<?xml version="1.0" standalone="no"?>
<!DOCTYPE svg PUBLIC "-//W3C//DTD SVG 20010904//EN"
 "http://www.w3.org/TR/2001/REC-SVG-20010904/DTD/svg10.dtd">
<svg version="1.0" xmlns="http://www.w3.org/2000/svg"
 width="1280.000000pt" height="1210.000000pt" viewBox="0 0 1280.000000 1210.000000"
 preserveAspectRatio="xMidYMid meet">
<metadata>
Created by potrace 1.15, written by Peter Selinger 2001-2017
</metadata>
<g transform="translate(0.000000,1210.000000) scale(0.100000,-0.100000)"
fill="#000000" stroke="none">
<path d="M6395 12089 c-140 -15 -373 -66 -508 -110 -780 -258 -1391 -815
-1626 -1484 -133 -375 -178 -815 -168 -1625 9 -680 21 -743 202 -1010 77 -113
145 -240 145 -270 0 -28 57 -114 125 -190 105 -117 159 -244 215 -504 43 -201
83 -323 151 -461 85 -173 117 -325 106 -500 -10 -150 -36 -198 -131 -244 -34
-16 -104 -50 -156 -75 -123 -58 -272 -172 -435 -330 -240 -233 -469 -361 -920
-513 -332 -112 -658 -196 -1370 -353 -574 -127 -889 -210 -1036 -274 -66 -28
-101 -83 -174 -270 -98 -250 -191 -595 -275 -1017 -65 -321 -92 -436 -124
-524 -48 -131 -180 -744 -296 -1380 -92 -504 -112 -641 -117 -802 l-5 -153
6402 0 6402 0 -6 38 c-3 20 -29 215 -56 432 -143 1119 -230 1636 -327 1935
-14 44 -54 141 -88 215 -95 204 -132 324 -144 468 -15 186 -52 303 -138 437
-90 138 -209 244 -419 373 -177 108 -245 141 -404 195 -74 25 -398 147 -720
270 -596 229 -863 327 -1026 377 -51 16 -114 40 -141 53 -101 51 -234 172
-371 336 -215 258 -319 355 -441 413 -289 138 -397 512 -286 983 29 121 46
171 117 340 75 177 124 325 142 430 18 104 66 207 156 335 138 198 173 254
219 343 161 317 266 761 233 987 -12 87 -29 127 -67 163 -53 49 -73 241 -85
842 -11 541 -26 700 -82 875 -50 157 -152 314 -298 460 -216 217 -474 350
-805 415 -267 52 -454 127 -585 236 -137 113 -228 139 -510 144 -102 2 -225
-1 -275 -6z"/>
</g>
</svg>
