<svg xmlns="http://www.w3.org/2000/svg" width="120" height="60" fill="#7289da"><path d="M21.864 27.445c-.913 0-1.634.785-1.634 1.762s.737 1.762 1.634 1.762c.913 0 1.634-.785 1.634-1.762s-.737-1.762-1.634-1.762zm-5.847 0c-.913 0-1.634.785-1.634 1.762s.737 1.762 1.634 1.762c.913 0 1.634-.785 1.634-1.762.016-.977-.72-1.762-1.634-1.762zM29.65 14.117H8.184A3.29 3.29 0 0 0 4.9 17.401v21.465a3.29 3.29 0 0 0 3.284 3.284H26.35l-.85-2.93 2.05 1.9 1.938 1.778 3.46 2.996V17.4c-.016-1.8-1.5-3.284-3.3-3.284zM23.467 34.86L22.4 33.58c2.098-.593 2.9-1.9 2.9-1.9a9.15 9.15 0 0 1-1.842.945c-.8.336-1.57.545-2.323.7-1.538.288-2.947.208-4.15-.016-.913-.176-1.698-.416-2.355-.7-.368-.144-.77-.32-1.17-.545-.048-.032-.096-.048-.144-.08-.032-.016-.048-.032-.064-.032l-.45-.272s.77 1.265 2.803 1.874l-1.073 1.314c-3.54-.112-4.886-2.42-4.886-2.42 0-5.1 2.307-9.26 2.307-9.26 2.307-1.714 4.485-1.666 4.485-1.666l.16.192c-2.883.817-4.197 2.082-4.197 2.082s.352-.192.945-.45c1.714-.753 3.076-.945 3.636-1 .096-.016.176-.032.272-.032a13.57 13.57 0 0 1 3.236-.032c1.522.176 3.156.625 4.822 1.522 0 0-1.265-1.2-4-2.018l.224-.256s2.195-.048 4.485 1.666c0 0 2.307 4.15 2.307 9.26 0-.016-1.346 2.3-4.886 2.403zm19.267-11.865h-5.238v5.885l3.487 3.14v-5.7h1.862c1.183 0 1.767.568 1.767 1.483v4.37c0 .915-.552 1.53-1.767 1.53H37.48v3.33h5.238c2.808.016 5.443-1.388 5.443-4.607v-4.7C48.177 24.434 45.54 23 42.734 23zm27.45 9.42v-4.828c0-1.735 3.124-2.13 4.07-.394l2.887-1.167c-1.136-2.493-3.203-3.218-4.922-3.218-2.808 0-5.585 1.625-5.585 4.78v4.828c0 3.187 2.777 4.78 5.522 4.78a5.63 5.63 0 0 0 5.048-3.14l-3.092-1.42c-.757 1.94-3.928 1.467-3.928-.22zM60.64 28.25c-1.1-.237-1.814-.63-1.862-1.3.063-1.625 2.572-1.688 4.04-.126l2.32-1.783c-1.45-1.767-3.092-2.24-4.78-2.24-2.572 0-5.064 1.45-5.064 4.197 0 2.666 2.05 4.102 4.307 4.45 1.152.158 2.43.615 2.398 1.404-.095 1.5-3.187 1.42-4.6-.284l-2.24 2.098c1.3 1.688 3.092 2.54 4.765 2.54 2.572 0 5.427-1.483 5.538-4.197.158-3.424-2.335-4.3-4.828-4.75zm-10.57 8.756h3.534v-14H50.07zm59.588-14h-5.238v5.885l3.487 3.14v-5.7h1.862c1.183 0 1.767.568 1.767 1.483v4.37c0 .915-.552 1.53-1.767 1.53h-5.364v3.33h5.254c2.808.016 5.443-1.388 5.443-4.607v-4.7c0-3.282-2.635-4.717-5.443-4.717zm-25.7-.2c-2.903 0-5.8 1.578-5.8 4.812v4.78C78.168 35.6 81.07 37.2 84 37.2c2.903 0 5.8-1.6 5.8-4.812v-4.78c0-3.218-2.92-4.812-5.822-4.812zm2.272 9.592c0 1-1.136 1.53-2.256 1.53-1.136 0-2.272-.5-2.272-1.53v-4.78c0-1.025 1.104-1.578 2.2-1.578 1.152 0 2.32.5 2.32 1.578zm16.234-4.78c-.08-3.282-2.32-4.607-5.206-4.607h-5.6v14h3.58v-4.45h.63l3.25 4.45h4.417L99.72 32.2c1.688-.536 2.745-2.004 2.745-4.6zM97.32 29.5h-2.083v-3.203h2.083c2.224 0 2.224 3.203 0 3.203z"/></svg>
