<svg xmlns="http://www.w3.org/2000/svg" xmlns:xlink="http://www.w3.org/1999/xlink" width="120" height="60"><defs><linearGradient id="A" gradientUnits="userSpaceOnUse"><stop offset=".18" stop-color="#0052cc"/><stop offset="1" stop-color="#2684ff"/></linearGradient><linearGradient id="B" x1="42.023" y1="35.232" x2="44.133" y2="33.122" xlink:href="#A"/><linearGradient xlink:href="#A" id="C" x1="41.464" y1="29.159" x2="39.35" y2="31.273"/><path id="D" d="M48.774 27.98h1.132v1.185c.4-.795 1.072-1.36 2.386-1.28v1.132c-1.482-.153-2.386.297-2.386 1.724v3.98h-1.132z"/></defs><g transform="translate(-1.544)"><g fill="#253858"><path d="M43.035 25.867h1.213v6.156c0 1.63-.714 2.756-2.386 2.756a4.31 4.31 0 0 1-1.455-.23v-1.18a3.4 3.4 0 0 0 1.253.23c1.024 0 1.378-.613 1.378-1.496zm3.422-.473a.79.79 0 0 1 .6.22.76.76 0 0 1 .22.59.81.81 0 0 1-.809.809.81.81 0 0 1-.809-.809.79.79 0 0 1 .22-.6.76.76 0 0 1 .59-.22zm-.593 2.588h1.16v6.738h-1.16z"/><use xlink:href="#D"/><path d="M57.72 33.505c-.432.9-1.24 1.348-2.277 1.348-1.792 0-2.695-1.522-2.695-3.504 0-1.9.943-3.504 2.83-3.504.983 0 1.738.444 2.144 1.32V27.98h1.16v6.738h-1.16zm-1.968.27c1.038 0 1.968-.66 1.968-2.156v-.545c0-1.496-.848-2.156-1.838-2.156-1.308 0-1.98.862-1.98 2.426.006 1.623.652 2.432 1.853 2.432zm9.988 1.078c-1.712 0-2.507-.337-3.194-.688v-1.24c.822.432 2.1.74 3.26.74 1.334 0 1.838-.525 1.838-1.308s-.485-1.2-2.17-1.603c-2-.485-2.883-1.173-2.883-2.628 0-1.378 1.05-2.398 3.113-2.398 1.28 0 2.102.306 2.7.646V27.6a5.44 5.44 0 0 0-2.756-.674c-1.16 0-1.847.404-1.847 1.213 0 .727.567 1.092 2.128 1.482 1.873.472 2.925 1.072 2.925 2.668-.01 1.536-.925 2.574-3.122 2.574zm4.137-3.518c0-2.02 1.185-3.5 3.207-3.5s3.18 1.47 3.18 3.5-1.173 3.522-3.18 3.522-3.207-1.5-3.207-3.522zm1.132 0c0 1.28.634 2.44 2.075 2.44s2.05-1.16 2.05-2.44-.62-2.406-2.05-2.406-2.07 1.126-2.07 2.406zm8.205-3.355h1.738v1.072h-1.738v5.666h-1.132v-5.666h-1.096V27.98h1.092v-.735c0-1.253.7-2.102 2.144-2.102.264-.001.527.035.78.107v1.072a3.83 3.83 0 0 0-.727-.067c-.714 0-1.072.418-1.072 1.024zm5.66 5.606a3.6 3.6 0 0 0 .727-.095v1.118a2.78 2.78 0 0 1-.781.107c-1.442 0-2.144-.848-2.144-2.102v-3.556H81.58v-1.072h1.092V26.55h1.132v1.43h1.792v1.072h-1.792V32.6c.006.593.357.997 1.07.997zm1.052-5.606h1.28l1.94 5.713 1.966-5.713h1.106l1.968 5.713 1.942-5.713h1.28l-2.48 6.738h-1.482l-1.16-3.26-.613-2.075-.613 2.075-1.175 3.26h-1.482zm16.774 5.525c-.432.9-1.24 1.348-2.277 1.348-1.792 0-2.695-1.522-2.695-3.504 0-1.9.943-3.504 2.83-3.504.983 0 1.738.444 2.144 1.32V27.98h1.16v6.738h-1.16zm-1.968.27c1.038 0 1.968-.66 1.968-2.156v-.545c0-1.496-.848-2.156-1.838-2.156-1.302.012-1.98.868-1.98 2.432 0 1.617.65 2.426 1.85 2.426z"/><use xlink:href="#D" x="56.838"/><path d="M113.212 34.853c-2.52 0-3.625-1.455-3.625-3.522 0-2.035 1.132-3.5 3.18-3.5 2.075 0 2.9 1.442 2.9 3.5v.525h-4.917c.162 1.145.903 1.887 2.493 1.887a5.97 5.97 0 0 0 2.049-.364v1.072c-.553.3-1.403.403-2.1.403zm-2.465-3.98h3.756c-.067-1.253-.634-1.968-1.792-1.968-1.224-.006-1.844.792-1.965 1.96z"/></g><g transform="matrix(3.058886 0 0 3.058886 -105.10111 -68.508931)"><path d="M46.568 31.918l-4.834-4.834-4.834 4.834a.406.406 0 0 0 0 .573l4.834 4.834 4.834-4.834a.406.406 0 0 0 0-.573zm-4.834 1.8l-1.514-1.514 1.514-1.514 1.514 1.514z" fill="#2684ff"/><path d="M41.734 30.7a2.549 2.549 0 0 1-.011-3.594L38.4 30.408l1.803 1.803z" fill="url(#C)"/><path d="M43.252 32.2l-1.518 1.518a2.549 2.549 0 0 1 0 3.606l3.32-3.32z" fill="url(#B)"/></g></g></svg>
