<?xml version="1.0" encoding="utf-8"?>
<!-- Generator: Adobe Illustrator 23.0.2, SVG Export Plug-In . SVG Version: 6.00 Build 0)  -->
<svg version="1.1" id="Layer_1" xmlns="http://www.w3.org/2000/svg" xmlns:xlink="http://www.w3.org/1999/xlink" x="0px" y="0px"
	 viewBox="0 0 1000 1000" style="enable-background:new 0 0 1000 1000;" xml:space="preserve">
<style type="text/css">
	.st0{opacity:0.35;fill:#FA9E34;}
	.st1{fill:#FFFFFF;}
	.st2{fill:#E8B87E;}
	.st3{fill:#FFDAB6;}
	.st4{fill:#D09750;}
	.st5{fill:#FF9D45;}
	.st6{fill:#A5692D;}
	.st7{fill:#BC7F3C;}
	.st8{fill:#DB6D00;}
	.st9{fill:#E07000;}
	.st10{fill:#F27E00;}
	.st11{fill:#FA9E34;}
	.st12{fill:#93551C;}
</style>
<circle class="st0" cx="500" cy="461.3" r="235"/>
<path class="st1" d="M598.8,413.9l-35.5,20.5l-17.9,10.4h-9L494.8,310l41.9,135.8h-4.9l0.4,1.2l0.4,1.2l0.3,0.8l0.1,0.3h13.8
	l0.5-0.3l46.9-27.1v-2.7l6.4-3.7L598.8,413.9z M434.1,445.8l-0.7,1.2l-1.2,2l0.5,0.3h11.1l0.4-1.1l0.4-1.2l0.4-1.2H434.1z
	 M598.8,413.9l-35.5,20.5l-17.9,10.4h-9L494.8,310l41.9,135.8h-4.9l0.4,1.2l0.4,1.2l0.3,0.8l0.1,0.3h13.8l0.5-0.3l46.9-27.1v-2.7
	l6.4-3.7L598.8,413.9z M434.1,445.8l-0.7,1.2l-1.2,2l0.5,0.3h11.1l0.4-1.1l0.4-1.2l0.4-1.2H434.1z M598.8,413.9l-35.5,20.5
	l-17.9,10.4h-9L494.8,310l41.9,135.8h-4.9l0.4,1.2l0.4,1.2l0.3,0.8l0.1,0.3h13.8l0.5-0.3l46.9-27.1v-2.7l6.4-3.7L598.8,413.9z
	 M434.1,445.8l-0.7,1.2l-1.2,2l0.5,0.3h11.1l0.4-1.1l0.4-1.2l0.4-1.2H434.1z M546,447.1l-0.7-1.2h-8.6l0.4,1.2h-4.9l-0.4-1.2
	l0.4,1.2l0.4,1.2l0.3,0.8l0.1,0.3h13.8l0.5-0.3L546,447.1z M434.1,445.8l-0.7,1.2l-1.2,2l0.5,0.3h11.1l0.4-1.1l0.4-1.2l0.4-1.2
	H434.1z M546,447.1l-0.7-1.2h-8.6l0.4,1.2h-4.9l-0.4-1.2l0.4,1.2l0.4,1.2l0.3,0.8l0.1,0.3h13.8l0.5-0.3L546,447.1z M438.5,447.1v2.4
	h5.3l0.4-1.1l0.4-1.2H438.5z M603,411.4l-4.2,2.4l-35.5,20.5l-17.9,10.4h-9L494.8,310v0l-1-3.3l-2-6.3h0l-0.1-0.3l-0.5-0.3l-1.5-0.8
	l-1.5,0.8l-0.5,0.3l-0.1,0.3l-2.1,6.4l-1.1,3.5l-43.9,134.4h-6.4l-47.5-27.4l-5.9-3.4h0l-4.2-2.4l-3.9-2.3v85.8l19.6,11.3l4.7,2.7
	l36,20.8h113.9l36.7-21.2l4.7-2.7l18.8-10.9v-85.8L603,411.4z M545.4,525H434.1l-48.7-28.1l-8.1-4.7v-74.8l8.1,4.7l46.9,27.1
	l0.5,0.3h11.1l0.4-1.1l0.4-1.2l0.4-1.2l44.6-136.4l42.1,136.4l0.4,1.2l0.4,1.2l0.3,0.8l0.1,0.3h13.8l0.5-0.3l46.9-27.1l1.2-0.7
	l6.9-4v74.8l-8.1,4.7L545.4,525z M434.1,445.8l-0.7,1.2l-1.2,2l0.5,0.3h11.1l0.4-1.1l0.4-1.2l0.4-1.2H434.1z M546,447.1l-0.7-1.2
	h-8.6l0.4,1.2h-4.9l-0.4-1.2l0.4,1.2l0.4,1.2l0.3,0.8l0.1,0.3h13.8l0.5-0.3L546,447.1z M434.1,445.8l-0.7,1.2l-1.2,2l0.5,0.3h11.1
	l0.4-1.1l0.4-1.2l0.4-1.2H434.1z M598.8,413.9l-35.5,20.5l-17.9,10.4h-9L494.8,310l41.9,135.8h-4.9l0.4,1.2l0.4,1.2l0.3,0.8l0.1,0.3
	h13.8l0.5-0.3l46.9-27.1v-2.7l6.4-3.7L598.8,413.9z M434.1,445.8l-0.7,1.2l-1.2,2l0.5,0.3h11.1l0.4-1.1l0.4-1.2l0.4-1.2H434.1z
	 M598.8,413.9l-35.5,20.5l-17.9,10.4h-9L494.8,310l41.9,135.8h-4.9l0.4,1.2l0.4,1.2l0.3,0.8l0.1,0.3h13.8l0.5-0.3l46.9-27.1v-2.7
	l6.4-3.7L598.8,413.9z M434.1,445.8l-0.7,1.2l-1.2,2l0.5,0.3h11.1l0.4-1.1l0.4-1.2l0.4-1.2H434.1z M598.8,413.9l-35.5,20.5
	l-17.9,10.4h-9L494.8,310l41.9,135.8h-4.9l0.4,1.2l0.4,1.2l0.3,0.8l0.1,0.3h13.8l0.5-0.3l46.9-27.1v-2.7l6.4-3.7L598.8,413.9z
	 M434.1,445.8l-0.7,1.2l-1.2,2l0.5,0.3h11.1l0.4-1.1l0.4-1.2l0.4-1.2H434.1z M598.8,413.9l-35.5,20.5l-17.9,10.4h-9L494.8,310
	l41.9,135.8h-4.9l0.4,1.2l0.4,1.2l0.3,0.8l0.1,0.3h13.8l0.5-0.3l46.9-27.1v-2.7l6.4-3.7L598.8,413.9z"/>
<g>
	<g>
		<g>
			<g>
				<path d="M576.8,475.5v252.9c0,0.5,0,1,0,1.5c-1.5,24.3-39.1,43.7-85.3,43.7c-46.2,0-83.8-19.5-85.3-43.7c0-0.5,0-1,0-1.5V475.5
					H576.8 M581.6,470.8h-4.7H406.1h-4.7v4.7v252.9c0,0.7,0,1.2,0.1,1.8c0.8,13.5,10.9,25.9,28.4,34.9c16.7,8.6,38.5,13.3,61.6,13.3
					c23.1,0,44.9-4.7,61.6-13.3c17.5-9,27.6-21.4,28.4-34.9c0-0.6,0.1-1.1,0.1-1.8V475.5V470.8L581.6,470.8z"/>
			</g>
			<g>
				<path d="M406.1,728.4c0,0.5,0,1,0,1.5h0V728.4 M410.8,728.4h-9.5v1.5v4.7h4.7h5.1l-0.3-5.1C410.8,729.2,410.8,728.9,410.8,728.4
					L410.8,728.4z"/>
			</g>
			<g>
				<path d="M576.8,728.4v1.5h0C576.8,729.4,576.8,728.9,576.8,728.4 M581.6,728.4h-9.5c0,0.4,0,0.8,0,1.1l-0.4,5.1h5.1h4.7l0-4.7
					V728.4L581.6,728.4z"/>
			</g>
		</g>
	</g>
	<g>
		<ellipse class="st2" cx="491.4" cy="728.4" rx="85.4" ry="45.2"/>
		<rect x="406.1" y="475.5" class="st2" width="170.7" height="254.4"/>
	</g>
	<ellipse class="st3" cx="491.4" cy="475.5" rx="85.4" ry="45.2"/>
	<ellipse class="st4" cx="494.2" cy="483.6" rx="95.2" ry="50.4"/>
	<g>
		<path class="st4" d="M446.7,648.9c-0.3,0-0.5-0.1-0.8-0.2l-14.8-8.4c-0.5-0.3-0.8-0.8-0.8-1.3v-7.5c0-0.6,0.3-1.1,0.8-1.3
			c0.5-0.3,1.1-0.3,1.6,0l14.8,8.5c0.5,0.3,0.8,0.8,0.8,1.3v7.3c0,0.6-0.3,1.1-0.8,1.3C447.3,648.9,447,648.9,446.7,648.9z
			 M431.9,631.5l-0.1,7.5l0,0.1l14.8,8.4l0.1-7.4L431.9,631.5z"/>
	</g>
	<g>
		<path class="st4" d="M436.8,739.4c-0.3,0-0.5-0.1-0.8-0.2l-14.8-8.4c-0.5-0.3-0.8-0.8-0.8-1.3V722c0-0.6,0.3-1.1,0.8-1.3
			c0.5-0.3,1.1-0.3,1.6,0l14.8,8.5c0.5,0.3,0.8,0.8,0.8,1.3v7.3c0,0.6-0.3,1.1-0.8,1.3C437.4,739.3,437.1,739.4,436.8,739.4z
			 M422,721.9l-0.1,7.5l0,0.1l14.8,8.4l0.1-7.4L422,721.9z"/>
	</g>
	<g>
		<path class="st4" d="M440.6,636.2c-0.3,0-0.5-0.1-0.8-0.2l-14.8-8.4c-0.5-0.3-0.8-0.8-0.8-1.3v-7.5c0-0.6,0.3-1.1,0.8-1.3
			c0.5-0.3,1.1-0.3,1.6,0l14.8,8.5c0.5,0.3,0.8,0.8,0.8,1.3v7.3c0,0.6-0.3,1.1-0.8,1.3C441.1,636.2,440.9,636.2,440.6,636.2z
			 M425.7,626.4l14.8,8.4l0.1-7.4l-14.9-8.6L425.7,626.4l-0.4,0.6L425.7,626.4z"/>
	</g>
	<g>
		<path class="st4" d="M434.1,544.9c-0.3,0-0.5-0.1-0.8-0.2l-14.8-8.4c-0.5-0.3-0.8-0.8-0.8-1.3v-7.5c0-0.6,0.3-1.1,0.8-1.3
			c0.5-0.3,1.1-0.3,1.6,0l14.8,8.5c0.5,0.3,0.8,0.8,0.8,1.3v7.3c0,0.6-0.3,1.1-0.8,1.3C434.6,544.9,434.4,544.9,434.1,544.9z
			 M419.2,535.1l14.8,8.4l0.1-7.4l-14.9-8.6L419.2,535.1l-0.4,0.6L419.2,535.1z"/>
	</g>
	<g>
		<path class="st4" d="M547.8,613.5c0.3,0,0.5-0.1,0.8-0.2l14.8-8.4c0.5-0.3,0.8-0.8,0.8-1.3v-7.5c0-0.6-0.3-1.1-0.8-1.3
			c-0.5-0.3-1.1-0.3-1.6,0l-14.8,8.5c-0.5,0.3-0.8,0.8-0.8,1.3v7.3c0,0.6,0.3,1.1,0.8,1.3C547.3,613.4,547.6,613.5,547.8,613.5z
			 M562.6,596l0.1,7.5l0,0.1l-14.8,8.4l-0.1-7.4L562.6,596z"/>
	</g>
	<g>
		<path class="st4" d="M554,600.8c0.3,0,0.5-0.1,0.8-0.2l14.8-8.4c0.5-0.3,0.8-0.8,0.8-1.3v-7.5c0-0.6-0.3-1.1-0.8-1.3
			c-0.5-0.3-1.1-0.3-1.6,0l-14.8,8.5c-0.5,0.3-0.8,0.8-0.8,1.3v7.3c0,0.6,0.3,1.1,0.8,1.3C553.4,600.7,553.7,600.8,554,600.8z
			 M568.9,590.9l-14.8,8.4l-0.1-7.4l14.9-8.6L568.9,590.9l0.4,0.6L568.9,590.9z"/>
	</g>
	<g>
		<path class="st4" d="M544,560.4c0.3,0,0.5-0.1,0.8-0.2l14.8-8.4c0.5-0.3,0.8-0.8,0.8-1.3V543c0-0.6-0.3-1.1-0.8-1.3
			c-0.5-0.3-1.1-0.3-1.6,0l-14.8,8.5c-0.5,0.3-0.8,0.8-0.8,1.3v7.3c0,0.6,0.3,1.1,0.8,1.3C543.5,560.3,543.8,560.4,544,560.4z
			 M558.9,550.6l-14.8,8.4l-0.1-7.4l14.9-8.6L558.9,550.6l0.4,0.6L558.9,550.6z"/>
	</g>
	<g>
		<path class="st4" d="M544,718.9c0.3,0,0.5-0.1,0.8-0.2l14.8-8.4c0.5-0.3,0.8-0.8,0.8-1.3v-7.5c0-0.6-0.3-1.1-0.8-1.3
			c-0.5-0.3-1.1-0.3-1.6,0l-14.8,8.5c-0.5,0.3-0.8,0.8-0.8,1.3v7.3c0,0.6,0.3,1.1,0.8,1.3C543.5,718.8,543.8,718.9,544,718.9z
			 M558.9,709.1l-14.8,8.4l-0.1-7.4l14.9-8.6L558.9,709.1l0.4,0.6L558.9,709.1z"/>
	</g>
	<g>
		<path class="st4" d="M504.6,597.6h-20.9c-1.2,0-2.2-1-2.2-2.2v-6.8c0-1.2,1-2.2,2.2-2.2h20.9c1.2,0,2.2,1,2.2,2.2v6.8
			C506.8,596.6,505.8,597.6,504.6,597.6z M483.7,588.1c-0.2,0-0.4,0.2-0.4,0.4v6.8c0,0.2,0.2,0.4,0.4,0.4h20.9
			c0.2,0,0.4-0.2,0.4-0.4v-6.8c0-0.2-0.2-0.4-0.4-0.4H483.7z"/>
	</g>
	<g>
		<path class="st4" d="M497.8,666.9h-20.9c-1.2,0-2.2-1-2.2-2.2v-6.8c0-1.2,1-2.2,2.2-2.2h20.9c1.2,0,2.2,1,2.2,2.2v6.8
			C500,665.9,499,666.9,497.8,666.9z M476.9,657.4c-0.2,0-0.4,0.2-0.4,0.4v6.8c0,0.2,0.2,0.4,0.4,0.4h20.9c0.2,0,0.4-0.2,0.4-0.4
			v-6.8c0-0.2-0.2-0.4-0.4-0.4H476.9z"/>
	</g>
	<g>
		<path class="st4" d="M511.5,749.1h-20.9c-1.2,0-2.2-1-2.2-2.2v-6.8c0-1.2,1-2.2,2.2-2.2h20.9c1.2,0,2.2,1,2.2,2.2v6.8
			C513.7,748.2,512.8,749.1,511.5,749.1z M490.6,739.7c-0.2,0-0.4,0.2-0.4,0.4v6.8c0,0.2,0.2,0.4,0.4,0.4h20.9
			c0.2,0,0.4-0.2,0.4-0.4v-6.8c0-0.2-0.2-0.4-0.4-0.4H490.6z"/>
	</g>
	<g>
		<path class="st4" d="M515.5,588.1h-20.9c-1.2,0-2.2-1-2.2-2.2v-6.8c0-1.2,1-2.2,2.2-2.2h20.9c1.2,0,2.2,1,2.2,2.2v6.8
			C517.7,587.1,516.7,588.1,515.5,588.1z M494.6,578.7c-0.2,0-0.4,0.2-0.4,0.4v6.8c0,0.2,0.2,0.4,0.4,0.4h20.9
			c0.2,0,0.4-0.2,0.4-0.4v-6.8c0-0.2-0.2-0.4-0.4-0.4H494.6z"/>
	</g>
	<g>
		<path class="st4" d="M509.8,657.4h-20.9c-1.2,0-2.2-1-2.2-2.2v-6.8c0-1.2,1-2.2,2.2-2.2h20.9c1.2,0,2.2,1,2.2,2.2v6.8
			C512,656.4,511,657.4,509.8,657.4z M488.8,648c-0.2,0-0.4,0.2-0.4,0.4v6.8c0,0.2,0.2,0.4,0.4,0.4h20.9c0.2,0,0.4-0.2,0.4-0.4v-6.8
			c0-0.2-0.2-0.4-0.4-0.4H488.8z"/>
	</g>
</g>
<polygon class="st1" points="606.2,414.6 605.4,415.5 604.6,416.3 602.9,418 600.5,415.6 598.8,413.9 598.8,413.8 592.4,407.5
	494.8,310 494.8,310 489.7,304.9 484.4,310.3 380.6,413.8 380.6,413.8 378.9,415.6 377.2,417.3 376.5,418 373.2,414.6 376.4,411.4
	377.2,410.6 383.7,404.2 475.3,312.7 487.6,300.3 488.3,299.7 489.7,298.9 491.2,299.7 491.8,300.3 491.8,300.3 504.1,312.7
	602.2,410.6 "/>
<polygon class="st1" points="537.3,447.7 535.5,448.3 532.8,449.1 532.5,448.3 532.3,447.7 532.1,447.1 531.8,445.8 489.6,309.4
	445,445.8 444.6,447.1 444.3,448.3 443.9,449.4 442.2,449.4 442.2,448.6 441.3,448.3 439.5,447.7 439.7,447.1 440.1,445.8
	440.4,444.7 484.4,310.3 485.5,306.7 487.6,300.3 487.7,300 488.3,299.7 489.7,298.9 491.2,299.7 491.7,300 491.8,300.3
	491.8,300.3 493.7,306.7 494.8,310 494.8,310 536.7,445.8 537.1,447.1 "/>
<rect x="433.4" y="526.1" class="st1" width="112.6" height="2.4"/>
<polygon class="st1" points="606.9,366.6 606.9,414.6 605.4,415.5 604.6,416 602.2,417.3 602.2,417.3 595.3,421.3 594.1,422
	547.2,449.1 546,447.1 545.3,445.8 544.8,445 545.4,444.7 563.3,434.3 598.8,413.8 602.2,411.9 602.2,369.3 504.1,312.7
	493.7,306.7 489.7,304.3 485.5,306.7 475.3,312.7 377.2,369.3 377.2,411.9 380.6,413.8 380.6,413.8 386.5,417.2 434.1,444.7
	434.6,445 434.1,445.8 433.4,447.1 432.2,449.1 385.3,422 377.2,417.3 377.2,417.3 374.8,416 374,415.5 372.5,414.6 372.5,366.6
	373.6,365.9 487.7,300 488.3,299.7 489.7,298.9 491.2,299.7 491.7,300 "/>
<rect x="433.4" y="445.8" class="st1" width="112.6" height="2.4"/>
<rect x="438.5" y="447.1" class="st1" width="10.5" height="80.3"/>
<rect x="527.2" y="447.1" class="st1" width="10.5" height="80.3"/>
<polygon class="st1" points="385.3,419.3 385.3,499.6 374.8,493.5 374.8,413.2 376.8,414.4 378.9,415.6 "/>
<polygon class="st1" points="588.1,502.4 588.1,535.2 526.9,561.7 445.7,561.7 392,532.9 392,504.8 396.8,504.8 396.8,530.1
	446.9,557 525.9,557 583.4,532.1 583.4,505 584.6,505 584.4,502.7 "/>
<polygon class="st5" points="475.3,312.7 383.7,404.2 377.2,410.6 377.2,369.3 "/>
<path d="M491.7,300l-0.5-0.3l-1.5-0.8l-1.5,0.8l-0.5,0.3l-114.1,65.9l-1.2,0.7v128.3l19.6,11.3v26.7l53.7,28.8h81.2l61.2-26.5v-29.5
	l18.8-10.9V366.6L491.7,300z M602.2,369.3v41.3l-98.1-97.9L602.2,369.3z M545.4,525h-7.6v-75.6h8.9l0.5-0.3l46.9-27.1v74.8
	L545.4,525z M380.6,413.8l103.7-103.6l-43.9,134.4h-6.4l-47.5-27.4L380.6,413.8z M563.3,434.3l-17.9,10.4h-9L494.8,310l97.7,97.5
	l6.3,6.3L563.3,434.3z M445,445.8l44.6-136.4l42.1,136.4H445z M449,448.3h78.2V525H449V448.3z M377.2,369.3l98.1-56.6l-91.6,91.5
	l-6.5,6.4V369.3z M385.3,496.9V422l46.9,27.1l0.5,0.3h5.8V525h-4.5L385.3,496.9z M583.4,532.1L525.9,557h-79l-50.1-26.9v-21.2
	l36,20.8h113.9l36.7-21.2V532.1z"/>
<polygon class="st6" points="583.4,508.5 583.4,532.1 525.9,557 446.9,557 396.8,530.1 396.8,508.9 432.8,529.7 546.6,529.7 "/>
<polygon class="st7" points="438.5,449.4 438.5,525 434.1,525 385.3,496.9 385.3,422 432.2,449.1 432.8,449.4 "/>
<rect x="449" y="448.3" class="st7" width="78.2" height="76.7"/>
<polygon class="st7" points="594.1,422 594.1,496.9 545.4,525 537.7,525 537.7,449.4 546.6,449.4 547.2,449.1 "/>
<polygon class="st8" points="602.2,369.3 602.2,410.6 504.1,312.7 "/>
<polygon class="st9" points="598.8,413.8 563.3,434.3 545.4,444.7 536.4,444.7 494.8,310 592.4,407.5 "/>
<polygon class="st10" points="531.8,445.8 445,445.8 489.6,309.4 "/>
<polygon class="st11" points="484.4,310.3 440.4,444.7 434.1,444.7 386.5,417.2 380.6,413.8 "/>
<g>
	<path class="st4" d="M585.6,488.3l-36.5,21c0,0-1.2-21.4,3.8-39.8L585.6,488.3z"/>
	<path class="st12" d="M567.4,446.3c20.2-11.4,18.2,42,18.2,42l-32.7-18.8C555.5,459.5,560,450.5,567.4,446.3z"/>
</g>
<g>
	<path class="st4" d="M393.7,488.3l36.5,21c0,0,1.2-21.4-3.8-39.8L393.7,488.3z"/>
	<path class="st12" d="M411.8,446.3c-20.2-11.4-18.2,42-18.2,42l32.7-18.8C423.7,459.5,419.3,450.5,411.8,446.3z"/>
</g>
<path class="st4" d="M522.3,513.5c0,0.2,0,0.3,0,0.3h-61.2c0,0-2.6-52.4,30.6-52.4c3.1,0,5.9,0.5,8.4,1.3c1.4,0.5,2.8,1.1,4.1,1.8
	C523.2,475.1,522.4,510.1,522.3,513.5z"/>
<path class="st12" d="M522.3,513.5c0,0.2,0,0.3,0,0.3s-20.3-33.6-31.8-33.6c-11.5,0-29.4,33.6-29.4,33.6s-2.6-52.4,30.6-52.4
	c3.1,0,5.9,0.5,8.4,1.3c1.4,0.5,2.8,1.1,4.1,1.8C523.2,475.1,522.4,510.1,522.3,513.5z"/>
</svg>
