<?xml version="1.0" encoding="UTF-8" standalone="no"?>
<svg
   xmlns:dc="http://purl.org/dc/elements/1.1/"
   xmlns:cc="http://creativecommons.org/ns#"
   xmlns:rdf="http://www.w3.org/1999/02/22-rdf-syntax-ns#"
   xmlns:svg="http://www.w3.org/2000/svg"
   xmlns="http://www.w3.org/2000/svg"
   viewBox="0 0 1300 205.35001"
   height="205.35001"
   width="1300"
   xml:space="preserve"
   version="1.1"
   id="svg2"><metadata
     id="metadata8"><rdf:RDF><cc:Work
         rdf:about=""><dc:format>image/svg+xml</dc:format><dc:type
           rdf:resource="http://purl.org/dc/dcmitype/StillImage" /></cc:Work></rdf:RDF></metadata><defs
     id="defs6"><clipPath
       id="clipPath18"
       clipPathUnits="userSpaceOnUse"><path
         id="path20"
         d="M 0,1642.8 0,0 l 10400,0 0,1642.8 -10400,0 z" /></clipPath></defs><g
     transform="matrix(1.25,0,0,-1.25,0,205.35)"
     id="g10"><g
       transform="scale(0.1,0.1)"
       id="g12"><g
         id="g14"><g
           clip-path="url(#clipPath18)"
           id="g16"><path
             id="path22"
             style="fill:#211f1e;fill-opacity:1;fill-rule:evenodd;stroke:none"
             d="m 3848.62,794.105 c 0,25.012 -4.18,45.364 -12.53,61.024 -8.33,15.621 -19.81,27.894 -34.41,36.734 -14.6,8.883 -32.6,14.891 -53.97,18 -21.39,3.129 -45.12,4.696 -71.2,4.696 -56.32,0 -116.28,-10.95 -179.91,-32.844 -14.61,27.117 -25.55,52.68 -32.84,76.664 -7.3,23.98 -10.97,52.661 -10.97,86.051 45.9,15.63 91.78,27.1 137.68,34.4 45.88,7.31 88.67,10.96 128.28,10.96 108.48,0 193.22,-26.07 254.24,-78.23 61.01,-52.158 91.52,-135.576 91.52,-250.31 l 0,-469.34 c -36.51,-11.469 -80.84,-22.43 -132.99,-32.859 -52.13,-10.43 -111.07,-15.653 -176.78,-15.653 -53.19,0 -101.96,4.704 -146.29,14.09 -44.32,9.383 -82.4,25.043 -114.18,46.942 -31.83,21.879 -56.33,50.05 -73.56,84.468 -17.19,34.434 -25.8,76.661 -25.8,126.731 0,50.051 10.69,92.031 32.07,125.93 21.38,33.898 49.03,61.027 82.91,81.351 33.91,20.348 71.71,34.942 113.44,43.813 41.72,8.867 83.43,13.297 125.15,13.297 30.25,0 63.62,-1.575 100.14,-4.684 l 0,18.769 z m 0,-161.156 c -12.53,2.09 -26.08,3.93 -40.7,5.481 -14.6,1.558 -27.61,2.34 -39.1,2.34 -51.11,0 -91.53,-9.11 -121.26,-27.372 -29.72,-18.25 -44.58,-47.718 -44.58,-88.386 0,-27.133 5.74,-47.973 17.21,-62.59 11.47,-14.59 25.3,-25.281 41.46,-32.051 16.17,-6.789 33.36,-10.961 51.62,-12.531 18.27,-1.551 34.17,-2.36 47.71,-2.36 15.66,0 31.31,1.321 46.94,3.93 15.66,2.61 29.21,4.942 40.7,7.039 l 0,206.5 z m 364,269.102 -101.7,0 -7.84,31.293 292.58,373.916 35.98,0 0,-236.24 189.3,0 c 3.11,-15.65 5.21,-29.73 6.27,-42.24 1.02,-12.53 1.54,-25.55 1.54,-39.124 0,-14.593 -0.52,-28.672 -1.54,-42.234 -1.06,-13.567 -3.16,-28.688 -6.27,-45.371 l -189.3,0 0,-317.602 c 0,-32.32 2.62,-58.39 7.84,-78.219 5.19,-19.789 12.76,-35.449 22.66,-46.929 9.93,-11.469 22.17,-19.289 36.77,-23.461 14.6,-4.192 31.83,-6.27 51.62,-6.27 15.66,0 31.03,1.309 46.17,3.918 15.11,2.602 28.41,4.953 39.88,7.032 7.32,-19.79 12.51,-40.399 15.65,-61.79 3.14,-21.378 4.69,-40.429 4.69,-57.109 0,-11.473 -0.25,-21.109 -0.78,-28.941 -0.52,-7.809 -1.29,-15.399 -2.35,-22.68 -47.97,-11.488 -97.5,-17.199 -148.61,-17.199 -94.92,0 -167.42,22.148 -217.47,66.461 -50.06,44.34 -75.09,116.578 -75.09,216.699 l 0,366.09 z m 586.96,0 -101.68,0 -7.84,31.293 292.57,373.916 35.98,0 0,-236.24 189.3,0 c 3.12,-15.65 5.22,-29.73 6.27,-42.24 1.02,-12.53 1.55,-25.55 1.55,-39.124 0,-14.593 -0.53,-28.672 -1.55,-42.234 -1.05,-13.567 -3.15,-28.688 -6.27,-45.371 l -189.3,0 0,-317.602 c 0,-32.32 2.63,-58.39 7.83,-78.219 5.22,-19.789 12.78,-35.449 22.68,-46.929 9.92,-11.469 22.15,-19.289 36.77,-23.461 14.59,-4.192 31.82,-6.27 51.62,-6.27 15.65,0 31.02,1.309 46.16,3.918 15.12,2.602 28.42,4.953 39.89,7.032 7.31,-19.79 12.51,-40.399 15.63,-61.79 3.15,-21.378 4.71,-40.429 4.71,-57.109 0,-11.473 -0.26,-21.109 -0.79,-28.941 -0.51,-7.809 -1.29,-15.399 -2.34,-22.68 -47.98,-11.488 -97.5,-17.199 -148.63,-17.199 -94.9,0 -167.4,22.148 -217.46,66.461 -50.06,44.34 -75.1,116.578 -75.1,216.699 l 0,366.09 z M 5827.25,753.406 c -2.08,50.086 -15.91,90.492 -41.46,121.262 -25.55,30.766 -61.27,46.168 -107.17,46.168 -52.15,0 -91.78,-14.609 -118.9,-43.809 -27.11,-29.207 -43.27,-70.414 -48.48,-123.621 l 316.01,0 z M 5509.66,598.539 c 4.18,-62.578 26.08,-107.949 65.71,-136.117 39.63,-28.16 91.78,-42.242 156.46,-42.242 35.46,0 71.68,3.402 108.72,10.191 37.03,6.77 72.22,16.418 105.61,28.93 11.47,-20.86 21.37,-45.891 29.72,-75.102 8.34,-29.179 13.03,-60.488 14.08,-93.859 -81.36,-31.289 -173.15,-46.942 -275.37,-46.942 -75.08,0 -139.47,10.434 -193.21,31.301 -53.7,20.852 -97.51,49.813 -131.4,86.821 -33.9,37.019 -58.94,81.089 -75.1,132.21 -16.16,51.102 -24.23,106.891 -24.23,167.372 0,59.464 8.33,115.265 25.02,167.41 16.67,52.168 41.45,97.523 74.31,136.105 32.85,38.613 73.52,69.113 122.03,91.533 48.5,22.43 105.08,33.64 169.74,33.64 56.32,0 106.39,-9.9 150.19,-29.73 43.81,-19.81 81.09,-46.93 111.86,-81.365 30.77,-34.394 53.99,-75.347 69.63,-122.8 15.65,-47.454 23.47,-98.313 23.47,-152.528 0,-19.82 -0.78,-39.39 -2.35,-58.676 -1.56,-19.281 -3.41,-34.679 -5.47,-46.152 l -519.42,0 z m 612.08,472.481 c 15.64,3.11 30.5,5.47 44.58,7.03 14.1,1.58 29.46,2.36 46.16,2.36 15.65,0 31.04,-1.06 46.14,-3.13 15.14,-2.08 30,-4.7 44.58,-7.83 3.15,-5.23 6.02,-12.77 8.62,-22.68 2.61,-9.91 4.95,-20.34 7.04,-31.3 2.09,-10.96 3.9,-21.884 5.47,-32.857 1.57,-10.957 2.86,-20.054 3.92,-27.383 22.94,32.34 51.12,61.29 84.48,86.83 33.38,25.56 75.1,38.35 125.15,38.35 10.45,0 22.44,-0.52 35.99,-1.58 13.55,-1.04 23.46,-2.6 29.72,-4.7 2.09,-10.41 3.66,-22.41 4.69,-35.97 1.07,-13.55 1.58,-27.64 1.58,-42.246 0,-17.73 -0.8,-37.023 -2.35,-57.883 -1.57,-20.855 -4.44,-40.668 -8.62,-59.445 -11.47,2.094 -24.24,3.129 -38.31,3.129 -14.08,0 -22.7,0 -25.81,0 -17.75,0 -37.55,-1.832 -59.47,-5.473 -21.89,-3.664 -42.75,-13.301 -62.57,-28.957 -19.83,-15.637 -36.24,-39.109 -49.29,-70.406 -13.03,-31.274 -19.57,-75.082 -19.57,-131.418 l 0,-384.859 c -18.75,-3.114 -37.52,-5.204 -56.31,-6.243 -18.76,-1.05 -37.01,-1.558 -54.75,-1.558 -17.74,0 -35.72,0.508 -53.98,1.558 -18.25,1.039 -37.28,3.129 -57.09,6.243 l 0,810.418 z m 592.26,0 c 14.59,3.11 29.2,5.47 43.79,7.03 14.61,1.58 30.77,2.36 48.51,2.36 17.73,0 33.37,-0.78 46.93,-2.36 13.56,-1.56 27.64,-3.92 42.24,-7.03 3.12,-5.22 6.01,-12.79 8.61,-22.7 2.6,-9.9 4.96,-20.34 7.04,-31.28 2.09,-10.95 3.9,-21.638 5.47,-32.067 1.59,-10.43 2.88,-19.301 3.92,-26.594 8.32,15.625 19.29,31.277 32.86,46.931 13.55,15.63 29.71,29.7 48.48,42.23 18.77,12.52 39.89,22.69 63.37,30.51 23.46,7.83 49.81,11.74 79.01,11.74 126.19,0 207.02,-47.99 242.49,-143.942 20.85,38.597 50.32,72.222 88.38,100.922 38.08,28.68 86.32,43.02 144.74,43.02 91.77,0 159.3,-25.31 202.58,-75.9 43.3,-50.562 64.94,-129.577 64.94,-237.011 l 0,-514.707 c -37.54,-6.262 -74.59,-9.371 -111.08,-9.371 -36.51,0 -73.54,3.109 -111.08,9.371 l 0,456.84 c 0,56.324 -7.05,99.593 -21.14,129.832 -14.06,30.254 -42.48,45.379 -85.24,45.379 -17.75,0 -35.2,-2.618 -52.4,-7.817 -17.23,-5.207 -32.87,-14.851 -46.94,-28.937 -14.08,-14.082 -25.55,-33.914 -34.43,-59.465 -8.87,-25.527 -13.3,-58.664 -13.3,-99.336 l 0,-436.496 c -37.55,-6.262 -74.58,-9.371 -111.08,-9.371 -36.5,0 -73.54,3.109 -111.09,9.371 l 0,456.84 c 0,56.324 -7.03,99.593 -21.12,129.832 -14.08,30.254 -42.49,45.379 -85.25,45.379 -17.71,0 -35.46,-2.618 -53.2,-7.817 -17.71,-5.207 -33.63,-15.379 -47.71,-30.511 -14.09,-15.11 -25.3,-36.231 -33.63,-63.364 -8.35,-27.105 -12.53,-62.578 -12.53,-106.375 l 0,-423.984 c -37.55,-6.262 -74.55,-9.371 -111.07,-9.371 -36.51,0 -73.52,3.109 -111.07,9.371 l 0,808.848 z M 8339.8,412.371 c 58.41,0 100.39,21.629 125.93,64.93 25.56,43.269 38.34,105.597 38.34,186.945 0,81.359 -12.78,143.672 -38.34,186.953 -25.54,43.301 -67.52,64.938 -125.93,64.938 -57.36,0 -98.82,-21.637 -124.37,-64.938 -25.57,-43.281 -38.35,-105.594 -38.35,-186.953 0,-81.348 12.78,-143.676 38.35,-186.945 25.55,-43.301 67.01,-64.93 124.37,-64.93 z m 0,-168.973 c -65.71,0 -122.82,10.704 -171.31,32.082 -48.5,21.372 -88.66,51.102 -120.47,89.18 -31.81,38.07 -55.8,82.649 -71.95,133.762 -16.18,51.109 -24.26,106.367 -24.26,165.824 0,59.453 8.08,115.262 24.26,167.402 16.15,52.145 40.14,97.258 71.95,135.321 31.81,38.081 71.97,68.041 120.47,89.971 48.49,21.89 105.6,32.85 171.31,32.85 65.71,0 123.06,-10.96 172.09,-32.85 49.01,-21.93 89.68,-51.89 122.04,-89.971 32.33,-38.063 56.31,-83.176 71.97,-135.321 15.64,-52.14 23.45,-107.949 23.45,-167.402 0,-59.457 -7.81,-114.715 -23.45,-165.824 -15.66,-51.113 -39.64,-95.692 -71.97,-133.762 -32.36,-38.078 -73.03,-67.808 -122.04,-89.18 -49.03,-21.378 -106.38,-32.082 -172.09,-32.082 z m 674.77,370.782 c -58.42,16.699 -104.05,41.468 -136.89,74.32 -32.86,32.844 -49.29,82.141 -49.29,147.855 0,79.266 28.43,141.301 85.28,186.155 56.83,44.85 134.29,67.28 232.32,67.28 40.68,0 80.82,-3.65 120.46,-10.96 39.64,-7.3 79.79,-18.24 120.46,-32.85 -2.09,-27.1 -7.3,-55.265 -15.66,-84.48 -8.32,-29.195 -18.23,-54.746 -29.7,-76.676 -25.04,10.446 -52.67,19.571 -82.93,27.403 -30.23,7.804 -62.05,11.722 -95.42,11.722 -35.47,0 -63.09,-5.472 -82.93,-16.426 -19.81,-10.957 -29.72,-28.425 -29.72,-52.394 0,-22.953 7.04,-39.125 21.12,-48.516 14.08,-9.379 34.17,-18.265 60.23,-26.593 l 89.18,-26.614 c 29.21,-8.328 55.54,-18.492 79.01,-30.496 23.46,-11.996 43.55,-26.859 60.23,-44.578 16.69,-17.727 29.72,-39.641 39.1,-65.711 9.4,-26.082 14.1,-57.883 14.1,-95.422 0,-38.609 -8.09,-74.59 -24.26,-107.961 -16.16,-33.379 -39.64,-62.316 -70.4,-86.816 -30.77,-24.531 -68.06,-43.82 -111.87,-57.891 -43.79,-14.09 -93.34,-21.133 -148.62,-21.133 -25.04,0 -47.96,0.793 -68.82,2.352 -20.87,1.582 -40.94,4.18 -60.24,7.82 -19.29,3.66 -38.33,8.078 -57.1,13.301 -18.78,5.207 -39.12,11.988 -61.02,20.34 2.1,28.168 7.05,56.59 14.86,85.258 7.82,28.672 18,56.59 30.51,83.711 34.42,-13.571 67.02,-23.731 97.79,-30.508 30.77,-6.793 62.84,-10.192 96.2,-10.192 14.62,0 30.52,1.321 47.71,3.93 17.22,2.61 33.13,7.301 47.73,14.078 14.61,6.782 26.87,15.653 36.77,26.594 9.91,10.949 14.84,25.289 14.84,43.039 0,25.008 -7.55,43.008 -22.67,53.961 -15.13,10.938 -36.25,20.617 -63.35,28.949 l -97.01,28.149 z m 541.12,287.871 -101.67,0 -7.85,31.293 292.56,373.916 35.98,0 0,-236.24 189.31,0 c 3.13,-15.65 5.21,-29.73 6.27,-42.24 1.03,-12.53 1.56,-25.55 1.56,-39.124 0,-14.593 -0.53,-28.672 -1.56,-42.234 -1.06,-13.567 -3.14,-28.688 -6.27,-45.371 l -189.31,0 0,-317.602 c 0,-32.32 2.63,-58.39 7.83,-78.219 5.23,-19.789 12.78,-35.449 22.68,-46.929 9.93,-11.469 22.18,-19.289 36.77,-23.461 14.59,-4.192 31.83,-6.27 51.63,-6.27 15.65,0 31.02,1.309 46.16,3.918 15.11,2.602 28.41,4.953 39.88,7.032 7.31,-19.79 12.53,-40.399 15.64,-61.79 3.15,-21.378 4.7,-40.429 4.7,-57.109 0,-11.473 -0.26,-21.109 -0.78,-28.941 -0.52,-7.809 -1.29,-15.399 -2.35,-22.68 -47.96,-11.488 -97.5,-17.199 -148.61,-17.199 -94.92,0 -167.41,22.148 -217.48,66.461 -50.05,44.34 -75.09,116.578 -75.09,216.699 l 0,366.09 z M 2180.68,1318.68 c 45.21,6.28 88.7,9.45 130.5,9.45 44.07,0 87.58,-3.17 130.51,-9.45 l 279.65,-580.43 288.12,580.43 c 35.03,6.28 73.99,9.45 116.94,9.45 42.94,0 84.16,-3.17 123.72,-9.45 l 57.62,-1065.84 c -42.92,-6.301 -83.6,-9.442 -122.01,-9.442 -38.44,0 -76.27,3.141 -113.55,9.442 l -30.52,770.62 -247.45,-532.62 c -15.83,-2.102 -32.2,-3.961 -49.16,-5.508 -16.95,-1.582 -33.88,-2.363 -50.84,-2.363 -14.7,0 -29.37,0.519 -44.05,1.57 -14.69,1.051 -29.94,3.16 -45.77,6.301 l -230.49,543.65 -23.73,-781.65 c -36.15,-6.301 -71.18,-9.442 -105.09,-9.442 -36.16,0 -73.46,3.141 -111.85,9.442 l 47.45,1065.84" /><path
             id="path24"
             style="fill:#211f1e;fill-opacity:1;fill-rule:evenodd;stroke:none"
             d="m 1304.1,1486.03 8.65,-174.35 C 1454.09,1155.53 1509.88,934.391 1439.52,726.555 1334.49,416.301 988.168,253.211 665.98,362.281 343.797,471.34 167.754,811.273 272.781,1121.52 c 70.594,208.53 250.196,350.58 458.207,388.19 L 843.375,1642.5 C 492.742,1651.99 161.941,1434.35 43.582,1084.72 -101.84,655.141 128.516,189.012 558.098,43.582 987.68,-101.84 1453.81,128.52 1599.24,558.102 1717.4,907.168 1587.45,1280.37 1304.1,1486.03" /><path
             id="path26"
             style="fill:#211f1e;fill-opacity:1;fill-rule:evenodd;stroke:none"
             d="m 1102.73,971.586 -5.95,243.724 -4.77,140.25 -3.23,121.51 c 0,0 0.67,58.58 -1.37,72.35 -0.43,2.9 -1.34,5.26 -2.43,7.31 l -0.41,0.87 -0.47,0.75 c -2.24,3.86 -5.78,7.01 -10.35,8.56 -4.67,1.58 -9.51,1.19 -13.71,-0.62 l -0.26,-0.11 -1.45,-0.74 c -1.99,-0.97 -4.02,-2.22 -6,-4.14 -9.99,-9.7 -45.04,-56.65 -45.04,-56.65 l -76.372,-94.55 -88.984,-108.51 -152.778,-190 c 0,0 -70.109,-87.5 -54.617,-195.203 15.492,-107.703 95.563,-160.172 157.684,-181.199 62.117,-21.032 157.593,-27.989 235.327,48.156 77.73,76.144 75.18,188.242 75.18,188.242" /><path
             id="path28"
             style="fill:#bdbbbc;fill-opacity:1;fill-rule:nonzero;stroke:none"
             d="m 10250,254.281 c -82.9,0 -150,67.117 -150,149.989 0,82.851 67.1,149.968 150,149.968 82.8,0 150,-67.117 150,-149.968 0,-82.872 -67.2,-149.989 -150,-149.989 m 0,273.18 c -68,0 -123.2,-55.242 -123.2,-123.191 0,-67.961 55.2,-123.211 123.2,-123.211 67.9,0 123.2,55.25 123.2,123.211 0,67.949 -55.3,123.191 -123.2,123.191 m -25.8,-67.629 0,-47.031 27.1,0 c 14.8,0 23.1,8.699 23.1,23.769 0,9.711 -3.3,16.571 -10,20.25 -3.4,1.84 -8.1,3.012 -19.6,3.012 l -20.6,0 m 88.6,-141.273 -25.5,0 c -2,0 -3.8,1.011 -4.7,2.839 l -32.5,61.102 -25.9,0 0,-58.59 c 0,-3 -2.3,-5.351 -5.4,-5.351 l -22.4,0 c -3,0 -5.3,2.351 -5.3,5.351 l 0,160.699 c 0,3.02 2.3,5.36 5.3,5.36 l 49.2,0 c 17.6,0 25.3,-1.52 31.8,-4.028 18.9,-7.031 30.7,-25.601 30.7,-48.359 0,-20.602 -10.2,-38 -26.5,-46.043 0.5,-0.84 1,-1.668 1.5,-2.668 l 34.3,-62.449 c 0.9,-1.672 0.9,-3.684 -0.1,-5.184 -0.9,-1.668 -2.7,-2.679 -4.5,-2.679" /></g></g></g></g></svg>