<svg id="Layer_1" data-name="Layer 1" xmlns="http://www.w3.org/2000/svg" viewBox="0 0 819 158.97"><defs><style>.cls-1{fill:#00ac69;}.cls-2{fill:#1ce783;}.cls-3{fill:#1d252c;}</style></defs><polygon class="cls-1" points="111.19 55.03 111.19 103.94 68.84 128.4 68.84 158.97 137.68 119.23 137.68 39.74 111.19 55.03"/><polygon class="cls-2" points="68.84 30.58 111.19 55.03 137.68 39.74 137.68 39.74 68.84 0 0 39.74 0 39.74 26.48 55.03 68.84 30.58"/><polygon class="cls-3" points="42.36 94.78 42.36 143.69 68.84 158.97 68.84 79.49 0 39.74 0 70.32 42.36 94.78"/><path class="cls-3" d="M242.17,50.14c-14.82,0-21.84,9.36-21.84,9.36h-.78L218,51.7H200.05v79.56h19.5v-46c0-10.14,7-17.16,17.16-17.16s17.16,7,17.16,17.16v46h19.5V83.68C273.37,63.4,260.11,50.14,242.17,50.14Z" transform="translate(-10 -10.51)"/><polygon class="cls-3" points="442.47 93.45 441.35 93.45 428.09 41.19 408.25 41.19 394.99 93.45 393.88 93.45 380.61 41.19 360.33 41.19 380.61 120.75 404.36 120.75 417.61 69.27 418.73 69.27 431.99 120.75 455.73 120.75 476.01 41.19 455.73 41.19 442.47 93.45"/><path class="cls-3" d="M545.72,58.72h-.78l-1.56-7H527v79.55h19.5v-46c0-10.14,4.68-14.82,14.82-14.82h10V51.71h-11.6A17.56,17.56,0,0,0,545.72,58.72Z" transform="translate(-10 -10.51)"/><path class="cls-3" d="M614.47,50.14c-23.39,0-40.55,17.16-40.55,41.34s16.19,41.34,40.55,41.34c19.73,0,31.61-11.61,36.56-20.15l-17.9-6.38c-1.77,3.24-8.91,9.47-18.66,9.47-11.37,0-19.49-7.12-21.05-18h59.27a35.38,35.38,0,0,0,.78-7.8C653.47,67.3,636.31,50.14,614.47,50.14ZM593.42,84.46c2.34-10.14,9.36-17.94,21.05-17.94,10.93,0,17.94,7.8,19.5,17.94Z" transform="translate(-10 -10.51)"/><path class="cls-3" d="M326.4,50.14c-23.4,0-40.56,17.16-40.56,41.34S302,132.82,326.4,132.82c19.73,0,31.6-11.61,36.55-20.15l-17.9-6.38c-1.77,3.24-8.9,9.47-18.65,9.47-11.37,0-19.5-7.12-21.06-18h59.28a35.38,35.38,0,0,0,.78-7.8C365.4,67.3,348.24,50.14,326.4,50.14ZM305.34,84.46c2.34-10.14,9.36-17.94,21.06-17.94,10.92,0,17.94,7.8,19.5,17.94Z" transform="translate(-10 -10.51)"/><rect class="cls-3" x="692.14" y="9.78" width="19.5" height="19.5"/><path class="cls-3" d="M775.45,114.88c-11.7,0-21.06-9.36-21.06-23.4s9.36-23.4,21.06-23.4,16.38,7.8,17.94,12.48l17.66-6.28c-4.28-11.11-14.78-24.14-35.6-24.14-23.4,0-40.56,17.16-40.56,41.34s17.16,41.34,40.56,41.34c21,0,31.5-13.24,35.7-24.88l-17.76-6.32C791.83,107.08,787.15,114.88,775.45,114.88Z" transform="translate(-10 -10.51)"/><polygon class="cls-3" points="645.63 27.11 656.7 27.11 656.7 120.75 676.2 120.75 676.2 9.78 645.63 9.78 645.63 27.11"/><rect class="cls-3" x="692.14" y="41.19" width="19.5" height="79.56"/><path class="cls-3" d="M821.59,116a7.52,7.52,0,1,0,7.41,7.52A7.28,7.28,0,0,0,821.59,116Zm0,13.89a6.37,6.37,0,1,1,6.26-6.37A6.12,6.12,0,0,1,821.59,129.85Z" transform="translate(-10 -10.51)"/><path class="cls-3" d="M824.82,122.13a2.64,2.64,0,0,0-2.82-2.62h-3.34v7.84h1.15v-2.72h1.05l2.71,2.72H825l-2.71-2.72A2.53,2.53,0,0,0,824.82,122.13Zm-5,1.35v-2.82H822a1.5,1.5,0,0,1,1.68,1.47c0,.83-.53,1.35-1.68,1.35Z" transform="translate(-10 -10.51)"/></svg>
