<?xml version="1.0" encoding="utf-8"?>
<!-- Generator: Adobe Illustrator 25.0.1, SVG Export Plug-In . SVG Version: 6.00 Build 0)  -->
<svg version="1.0" id="katman_1" xmlns="http://www.w3.org/2000/svg" xmlns:xlink="http://www.w3.org/1999/xlink" x="0px" y="0px"
	 viewBox="0 0 560 400" style="enable-background:new 0 0 560 400;" xml:space="preserve">
<style type="text/css">
	.st0{fill:#253858;}
	.st1{fill-rule:evenodd;clip-rule:evenodd;fill:url(#SVGID_1_);}
	.st2{fill:url(#SVGID_2_);}
	.st3{fill:#2684FF;}
</style>
<g transform="matrix(1.13192 0 0 1.13192 31.11 155.014)">
	<path class="st0" d="M268.8,53.6c-2.9,5.9-8.2,8.9-15,8.9c-11.8,0-17.6-10.1-17.6-23.1c0-12.5,6.1-23.1,18.5-23.1
		c6.5,0,11.5,2.9,14.2,8.7v-7.8h7.5v40.5c0,13.1-6.1,21.9-22.1,21.9c-5.4,0.2-10.7-0.7-15.8-2.4v-7.5c5,1.7,10.2,2.6,15.5,2.7
		c11.1,0,15-6,15-14.2L268.8,53.6z M157.5,79h-7.6V17.1h7.6v8c2.9-5.9,8.2-8.9,15-8.9c11.8,0,17.8,10.1,17.8,23.1
		c0,12.5-6.2,23.1-18.7,23.1c-6.4,0-11.4-2.9-14.1-8.7V79z M213.3,62.5c-5.3,0.1-10.7-1-15.5-3.3v-8.1c4.9,2.7,10.3,4.2,15.8,4.4
		c5.9,0,8.9-2.4,8.9-5.9s-2.6-5.3-11-7.4c-9.9-2.4-14.1-6.2-14.1-13.5c0-7.7,6-12.5,16.1-12.5c5-0.1,9.9,1,14.3,3.2v7.9
		c-5.3-2.7-9.7-4.1-14.4-4.1c-5.6,0-8.6,2-8.6,5.4c0,3.1,2.1,5.1,10.3,7c9.9,2.4,14.9,6.1,14.9,13.8C230,56.9,225.2,62.5,213.3,62.5
		L213.3,62.5z M84.2,32.2c0-17.6,10.1-30,28.2-30s28.1,12.4,28.1,30c0,17.8-10.1,30.3-28.1,30.3S84.2,50,84.2,32.2z M292.9,42.8
		c1.1,7.6,6,12.5,16.5,12.5c4.6,0,9.2-0.8,13.5-2.4v7c-3.6,1.9-9.2,2.7-13.8,2.7c-16.6,0-24-9.6-24-23.2c0-13.4,7.5-23,21-23
		c13.7,0,19.2,9.5,19.2,23v3.5H292.9z M407.3,42.8c1.1,7.6,6,12.5,16.5,12.5c4.6,0,9.2-0.8,13.5-2.4v7c-3.6,1.9-9.3,2.7-13.8,2.7
		c-16.6,0-23.9-9.6-23.9-23.2c0-13.4,7.5-23,21-23c13.7,0,19.2,9.5,19.2,23v3.5H407.3z M390.7,61.6H383V17.1h7.7V61.6z M342.1,61.6
		h-7.6V17.1h7.6v7.3c2.8-5.1,8.2-8.3,14.1-8.2c10.2,0,16.1,7,16.1,19.3l0,26.1h-7.7V34.7c0-8-3.2-11.6-10.5-11.6
		c-7.1,0-12,4.7-12,13.7L342.1,61.6z M170.5,23.3c-6.9,0-13,4.4-13,14.2v3.6c0,9.9,5.6,14.2,12.1,14.2c8.6,0,13.1-5.7,13.1-16
		C182.7,28.7,178.5,23.3,170.5,23.3z M255.8,55.4c6.8,0,13-4.4,13-14.2v-3.6c0-9.9-5.6-14.2-12.1-14.2c-8.6,0-13.1,5.7-13.1,16
		C243.6,50,247.9,55.4,255.8,55.4L255.8,55.4L255.8,55.4L255.8,55.4z M92.2,32.2c0,12.4,5.8,22.6,20.2,22.6s20.1-10.2,20.1-22.6
		c0-12.1-5.8-22.3-20.1-22.3S92.2,20.1,92.2,32.2L92.2,32.2z M292.8,36.1h24.8c-0.4-8.3-4.2-13-11.8-13
		C297.7,23.1,293.6,28.4,292.8,36.1z M407.2,36.1H432c-0.4-8.3-4.2-13-11.8-13C412.1,23.1,408,28.4,407.2,36.1L407.2,36.1z M386.9,0
		c0.1,0,0.2,0,0.4,0c2.7,0,5,2.3,5,5c0,0.1,0,0.2,0,0.4c0,2.9-2.4,5.3-5.3,5.3s-5.3-2.4-5.3-5.3c0-0.1,0-0.2,0-0.4c0-2.7,2.3-5,5-5
		C386.7,0,386.8,0,386.9,0z"/>

		<linearGradient id="SVGID_1_" gradientUnits="userSpaceOnUse" x1="-620.1268" y1="532.1598" x2="-619.1268" y2="532.1598" gradientTransform="matrix(0 41.4622 41.4622 0 -22034.502 25718.4082)">
		<stop  offset="0" style="stop-color:#2684FF"/>
		<stop  offset="0.82" style="stop-color:#0052CC"/>
		<stop  offset="1" style="stop-color:#0052CC"/>
	</linearGradient>
	<circle class="st1" cx="30" cy="18.5" r="17.8"/>
	<g>

			<linearGradient id="SVGID_2_" gradientUnits="userSpaceOnUse" x1="-610.9341" y1="530.4849" x2="-609.9341" y2="530.4849" gradientTransform="matrix(13.8887 29.0677 29.0677 -13.8887 -6915.8862 25168.3516)">
			<stop  offset="0" style="stop-color:#2684FF"/>
			<stop  offset="0.62" style="stop-color:#0052CC"/>
			<stop  offset="1" style="stop-color:#0052CC"/>
		</linearGradient>
		<path class="st2" d="M28.5,71.7C16.9,64.3,7.2,54.1,0.3,42.2c-0.2-0.3-0.3-0.6-0.3-1c0-0.8,0.4-1.5,1.1-1.8l13.5-6.6
			c0.9-0.5,2.1-0.1,2.6,0.8c6.8,11.4,16.9,20.6,29,26.2c-4.5,4.5-9.4,8.5-14.7,11.9C30.6,72.3,29.4,72.3,28.5,71.7z"/>
		<path class="st3" d="M31.5,71.7c11.7-7.4,21.3-17.6,28.2-29.5c0.2-0.3,0.3-0.6,0.3-1c0-0.8-0.4-1.5-1.1-1.8l-13.5-6.6
			c-0.9-0.5-2.1-0.1-2.6,0.8C36,45,25.9,54.2,13.8,59.8c4.4,4.5,9.4,8.5,14.7,11.9C29.4,72.3,30.6,72.3,31.5,71.7z"/>
	</g>
</g>
</svg>
