<svg xmlns="http://www.w3.org/2000/svg" width="120" height="60" fill="#25c151"><path d="M30.7 26.106c-.408-.806-1.128-1.4-1.992-1.672a3.9 3.9 0 0 0-1.13-.18H21.56v2.392h6.028a1.07 1.07 0 0 1 .77.292c.2.205.32.5.307.784v1.05h-4.63a3.44 3.44 0 0 0-1.614.346c-.417.2-.786.506-1.08.868a3.38 3.38 0 0 0-.596 1.13 3.92 3.92 0 0 0-.184 1.134 3.45 3.45 0 0 0 .347 1.612c.2.417.506.786.868 1.08a3.38 3.38 0 0 0 1.124.596c.365.117.746.18 1.13.184h3.552a3.44 3.44 0 0 0 1.615-.347c.417-.2.786-.506 1.08-.868a3.39 3.39 0 0 0 .596-1.124 3.88 3.88 0 0 0 .19-1.137v-4.53a3.42 3.42 0 0 0-.354-1.612zm-2.045 6.122a1.11 1.11 0 0 1-.281.774 1.02 1.02 0 0 1-.796.311h-3.53a1.15 1.15 0 0 1-.77-.27.96.96 0 0 1-.324-.772 1.13 1.13 0 0 1 .28-.78 1.02 1.02 0 0 1 .795-.32h4.63zM51.3 31.225a3.45 3.45 0 0 0 1.622-.35c.8-.4 1.418-1.134 1.68-2.003.117-.367.18-.75.185-1.134a3.46 3.46 0 0 0-.35-1.622c-.212-.418-.5-.786-.873-1.08a3.38 3.38 0 0 0-1.135-.603 3.87 3.87 0 0 0-1.13-.178h-3.573a3.45 3.45 0 0 0-1.622.35c-.418.212-.786.5-1.08.873a3.42 3.42 0 0 0-.6 1.13c-.117.368-.18.75-.185 1.137v4.548c-.017.56.104 1.118.35 1.622a3.29 3.29 0 0 0 2.003 1.68 3.9 3.9 0 0 0 1.134.187h6.702v-2.418h-6.683a1.13 1.13 0 0 1-.784-.282 1.01 1.01 0 0 1-.316-.788v-1.068zm-4.656-3.468a1.14 1.14 0 0 1 .284-.787 1.01 1.01 0 0 1 .8-.316H51.3a1.11 1.11 0 0 1 .765.282.99.99 0 0 1 .316.78 1.13 1.13 0 0 1-.282.784 1.02 1.02 0 0 1-.8.316h-4.657zm25.484 7.985h-3.833c-1.36 0-2.156-.553-2.58-1.018-.85-.926-.857-2.122-.842-2.44V27.7c0-1.327.54-2.112.995-2.537.93-.872 2.15-.887 2.445-.876h4.776v-4.14h2.433v12.2c0 1.25-.512 2.014-.946 2.433-.937.92-2.193.973-2.446.973zM67.3 32.408c0 .126.027.478.2.676s.524.224.785.224h3.837c.956-.014.956-.73.956-.968v-5.636h-4.883c-.135 0-.5.04-.676.227-.146.135-.22.395-.22.755zm-56.16 7.456H8.706v-12.23c0-1.25.514-2.016.946-2.44.953-.94 2.245-.965 2.465-.964h3.827c1.362 0 2.162.554 2.585 1.02.853.927.858 2.126.843 2.445V32.3c0 1.33-.54 2.115-.996 2.54-.93.873-2.15.888-2.448.877h-4.8zm4.9-6.578c.128 0 .493-.036.692-.228.146-.135.22-.397.22-.76v-4.73c0-.127-.027-.48-.2-.676s-.527-.226-.8-.226H12.1c-.96.014-.96.735-.96.972v5.648zm42.152 2.456H55.76v-8.094c0-1.246.512-2 .946-2.433.958-.946 2.265-.974 2.472-.974h4.73v2.433h-4.745c-.97.016-.97.738-.97.976zm22 0c-.185 0-1.506-.036-2.47-1-.426-.423-.934-1.187-.934-2.422v-8.087h2.433v8.093c0 .532.184.707.38.8a1.5 1.5 0 0 0 .604.164h4.76v-9.067H87.4v11.5zM39.4 39.756h-5.8v-2.433h5.776c.608 0 .822-.238.946-.47a1.79 1.79 0 0 0 .197-.699v-.465h-4.595c-.307.01-1.595 0-2.58-.92-.478-.447-1.047-1.274-1.047-2.677v-4.238c-.01-.293.007-1.6.946-2.587.447-.473 1.272-1.038 2.66-1.038h3.454c1.443 0 3.6.957 3.6 3.6v8.355c-.003 1.447-.97 3.58-3.572 3.58zm-4.636-11.988v4.325c0 .426.093.73.27.9.287.27.8.27.8.27h4.696V27.82c0-.646-.26-.862-.515-1a1.82 1.82 0 0 0-.643-.17h-3.45c-.414 0-.7.1-.885.27-.24.247-.287.678-.285.838zm72.966 12.02h-5.77v-2.433h5.77c.605 0 .818-.235.946-.465a1.77 1.77 0 0 0 .195-.693v-.447h-4.605c-1.402 0-2.23-.57-2.68-1.047-.926-.987-.94-2.283-.928-2.587v-7.86h2.433v7.96c0 .16.042.585.278.83.174.18.476.27.897.27h4.603v-9.08h2.433v11.978c-.01 1.44-.97 3.572-3.573 3.572zm-12.5-4.035h-2.433V26.68h-4.14v-2.433h4.14v-3.125h2.433v3.125h4.156v2.433H95.22z"/></svg>
