<svg xmlns="http://www.w3.org/2000/svg" width="120" height="60"><style><![CDATA[.B{strokeWidth:.866}.C{stroke:#fff}.D{stroke-linecap:round}.E{stroke-linejoin:round}]]></style><path d="M13.56 43.927H8.34v-5.25h5.504c2.014 0 3.022.9 3.022 2.666 0 1.723-1.102 2.585-3.305 2.585m3.752-5.312c-.715-.64-1.716-.96-3.003-.96l-7.476.04v12.56H8.34l-.014-5.347h5.563c1.395 0 2.493-.32 3.294-.96s1.202-1.53 1.202-2.666-.358-2.026-1.073-2.666zm9.747 9.004a2.56 2.56 0 0 1-.715 1.068c-.675.66-1.704.987-3.1.987-1.25 0-2.2-.32-2.88-.96s-1.005-1.497-1.005-2.57c0-.56.088-1.055.263-1.488a2.92 2.92 0 0 1 .762-1.096c.692-.63 1.646-.947 2.86-.947 2.7 0 4.033 1.177 4.033 3.53 0 .56-.077 1.05-.23 1.474m.273-4.633c-.918-.837-2.277-1.256-4.077-1.256-1.7 0-3.015.428-3.942 1.283-.837.774-1.255 1.818-1.255 3.132 0 1.305.432 2.358 1.296 3.16.477.432 1.033.745 1.667.938s1.38.3 2.234.3c1.8 0 3.154-.414 4.1-1.242.837-.756 1.255-1.804 1.255-3.145 0-1.35-.423-2.403-1.27-3.16zm11.4 4.997c0 1.7-1.515 2.536-4.544 2.536-.926 0-1.706-.06-2.34-.176s-1.148-.313-1.544-.584a2.31 2.31 0 0 1-.728-.8c-.18-.323-.297-.75-.35-1.255l1.4-.013c0 .665.247 1.155.74 1.47.53.378 1.467.567 2.813.567 2.117 0 3.176-.53 3.176-1.592 0-.62-.355-1.047-1.065-1.28-.144-.045-1-.164-2.57-.357s-2.546-.367-2.933-.52c-.836-.333-1.254-.93-1.254-1.794a2.02 2.02 0 0 1 1.12-1.889c.37-.17.83-.303 1.384-.398s1.195-.142 1.924-.142c2.916 0 4.374.915 4.374 2.745h-1.34c0-1.286-1.025-1.93-3.075-1.93-1.043 0-1.82.13-2.333.4s-.77.66-.77 1.2c0 .504.346.868 1.038 1.093.405.117 1.335.252 2.792.405 1.304.117 2.198.283 2.684.5.926.36 1.4.97 1.4 1.834zm5.536 2.3l-.573.08-.358.027c-.918 0-1.58-.133-1.985-.4s-.6-.732-.6-1.4v-5.73h-1.67v-.843h1.66l.013-2.708h1.285v2.708h2.238v.857l-2.238-.014v5.577c0 .415.1.702.33.86s.614.237 1.18.237c.08.01.17.006.27-.01s.247-.05.445-.102l.014.86zm8.887-1.912a3.81 3.81 0 0 1-1.2.661c-.45.153-.966.23-1.55.23-2.688 0-4.03-1.1-4.03-3.33 0-1.033.344-1.842 1.03-2.426s1.656-.876 2.905-.876c1.258 0 2.213.294 2.865.883s.978 1.377.978 2.366c0 1.078-.333 1.9-.998 2.494m2.283-6.36h-1.285l-.014 1.417c-.566-.575-.97-.94-1.214-1.092-.72-.395-1.65-.593-2.792-.593-1.673 0-2.95.382-3.83 1.146-.836.7-1.254 1.717-1.254 3.047 0 .656.106 1.243.317 1.76s.52.955.925 1.314c.883.737 2.13 1.106 3.742 1.106 1.936 0 3.3-.53 4.12-1.6v1.467c0 .935-.295 1.66-.884 2.172s-1.558.77-2.907.77c-1.268 0-2.172-.175-2.7-.524-.405-.268-.684-.734-.836-1.397H45.5c.144.925.535 1.595 1.174 2.008.738.476 1.984.714 3.738.714 3.356 0 5.034-1.247 5.034-3.742v-7.983zm6.95.835a6.72 6.72 0 0 0-1.078-.094c-2.112 0-3.168 1.158-3.168 3.475v4.028h-1.27l-.014-8.243 1.285.013v1.47h.067c.216-.58.557-1.02 1.025-1.318.512-.3 1.276-.435 2.292-.435h.863v1.103zm1.196 2.766c.162-.937.526-1.662 1.092-2.176.37-.297.787-.52 1.254-.67s.994-.223 1.578-.223c1.142 0 2.074.313 2.798.94s1.095 1.336 1.095 2.13h-7.807m7.933-2.543a4.12 4.12 0 0 0-1.674-1.001c-.666-.217-1.444-.325-2.335-.325-1.665 0-2.956.387-3.874 1.16s-1.377 1.827-1.377 3.16.44 2.4 1.322 3.172c.953.864 2.298 1.296 4.035 1.296.692 0 1.333-.08 1.922-.235s1.104-.38 1.545-.665c.774-.556 1.263-1.24 1.47-2.056h-1.4c-.477 1.4-1.663 2.114-3.56 2.114-1.34 0-2.37-.344-3.1-1.034-.62-.6-.93-1.356-.93-2.296h9.16c0-1.398-.4-2.495-1.228-3.3z" fill="#231f20"/><path d="M86.32 46.888c0 2.447-1.974 3.67-5.92 3.67-2.365 0-4.092-.42-5.18-1.265-.9-.693-1.335-1.75-1.335-3.17h1.6c0 2.285 1.64 3.427 4.925 3.427 1.574 0 2.713-.234 3.414-.7.594-.413.9-1.06.9-1.94 0-.872-.405-1.483-1.215-1.834-.46-.2-1.58-.427-3.36-.715-2.24-.342-3.693-.683-4.358-1.024-.962-.503-1.444-1.357-1.444-2.562 0-1.123.4-1.96 1.228-2.508.88-.602 2.393-.903 4.534-.903 3.87 0 5.803 1.285 5.803 3.855H84.3c0-1.925-1.437-2.887-4.3-2.887-1.44 0-2.494.194-3.16.58-.63.414-.945 1.02-.945 1.822 0 .837.405 1.426 1.215 1.768.43.198 1.7.472 3.806.824 1.98.297 3.315.643 4 1.04.945.486 1.417 1.327 1.417 2.524zm12.908 1.25a6.2 6.2 0 0 1-2.012 1.071c-.748.238-1.585.357-2.512.357-1.9 0-3.42-.5-4.586-1.53s-1.75-2.377-1.75-4.074c0-1.77.578-3.147 1.735-4.135s2.7-1.482 4.6-1.482c1.936 0 3.458.516 4.565 1.55.585.503 1.017 1.1 1.297 1.765s.42 1.44.42 2.303c0 1.76-.586 3.152-1.756 4.176m.845.833c.828-.584 1.44-1.3 1.837-2.123s.595-1.8.595-2.878c0-1.95-.648-3.514-1.944-4.7-.693-.647-1.53-1.128-2.5-1.442s-2.1-.472-3.36-.472c-2.447 0-4.368.593-5.763 1.78s-2.092 2.795-2.092 4.826c0 1.977.703 3.572 2.1 4.785s3.33 1.82 5.768 1.82c.953 0 1.785-.065 2.496-.193s1.313-.327 1.808-.594l2.348 1.627.98-.9-2.273-1.542zm14.33 1.283h-10.858V37.68l1.493-.027v11.55h9.38l-.014 1.05z" fill="#367faf"/><path d="M67.415 27.556c.197-1.64.138-1.88 1.36-1.614l.3.027c.94.043 2.167-.15 2.89-.486 1.553-.72 2.474-1.924.943-1.608-3.494.72-3.734-.462-3.734-.462 3.69-5.474 5.23-12.423 3.9-14.123-3.63-4.64-9.916-2.445-10.02-2.388l-.033.006c-.69-.143-1.463-.23-2.33-.243-1.58-.026-2.78.414-3.7 1.105 0 0-11.212-4.62-10.7 5.81.11 2.218 3.18 16.786 6.84 12.386 1.338-1.61 2.63-2.97 2.63-2.97.642.427 1.4.644 2.217.566l.062-.053a2.43 2.43 0 0 0 .025.626c-.943 1.053-.666 1.24-2.55 1.627-1.907.393-.787 1.093-.055 1.276.887.222 2.94.536 4.325-1.405l-.055.222c.37.296.345 2.127.397 3.435s.14 2.53.407 3.25.58 2.574 3.06 2.043c2.07-.444 3.654-1.082 3.798-7.023" fill="#231f20" stroke="#231f20" strokeWidth="2.598"/><path d="M72.916 23.875c-3.494.72-3.734-.462-3.734-.462 3.69-5.474 5.23-12.423 3.9-14.124-3.63-4.64-9.916-2.445-10.02-2.388l-.034.006c-.69-.143-1.463-.23-2.33-.243-1.58-.026-2.78.414-3.7 1.105 0 0-11.212-4.62-10.7 5.81.11 2.22 3.18 16.786 6.84 12.386 1.338-1.61 2.63-2.97 2.63-2.97.642.427 1.41.644 2.216.566l.063-.053c-.02.2-.01.395.025.626-.943 1.053-.666 1.24-2.55 1.627-1.907.393-.787 1.093-.055 1.276.887.222 2.94.536 4.325-1.405l-.055.222c.37.296.63 1.925.585 3.4s-.072 2.49.22 3.282.58 2.574 3.06 2.043c2.07-.444 3.144-1.594 3.293-3.512.106-1.364.346-1.162.36-2.38l.192-.577c.222-1.85.035-2.445 1.31-2.167l.3.027c.94.043 2.168-.15 2.89-.486 1.553-.72 2.474-1.924.943-1.608z" fill="#417ba2"/><g fill="none" class="C B"><g class="D"><path d="M59.96 24.935c-.096 3.44.024 6.903.36 7.745s1.057 2.48 3.536 1.948c2.07-.444 2.824-1.303 3.15-3.2l.765-6.063M57 7.692s-11.22-4.586-10.7 5.842c.1 2.22 3.18 16.787 6.84 12.387 1.338-1.6 2.547-2.87 2.547-2.87M63.05 6.855c-.4.122 6.24-2.423 10.008 2.4 1.33 1.7-.2 8.65-3.9 14.124" class="E"/><path d="M69.157 23.37s.24 1.183 3.735.462c1.53-.316.6.887-.943 1.608-1.274.59-4.13.743-4.178-.074-.12-2.11 1.504-1.468 1.386-1.996-.106-.476-.832-.943-1.312-2.107-.42-1.017-5.75-8.812 1.48-7.654.265-.055-1.886-6.877-8.652-6.988s-6.542 8.32-6.542 8.32" stroke-linejoin="bevel"/></g><g class="E"><path d="M58.066 24.09c-.943 1.053-.666 1.24-2.55 1.627-1.907.393-.787 1.093-.055 1.276.887.222 2.94.536 4.325-1.405.422-.59-.002-1.534-.582-1.775-.28-.116-.655-.26-1.136.277z"/><path d="M58.004 24.072c-.095-.62.204-1.356.523-2.22.48-1.294 1.6-2.588.703-6.692-.66-3.058-5.098-.637-5.1-.222s.2 2.102-.074 4.067c-.36 2.564 1.63 4.733 3.923 4.51" class="D"/></g></g><g fill="#fff" class="C"><path d="M56.948 14.877c-.02.142.26.52.623.57s.675-.245.694-.386-.26-.298-.624-.35-.675.023-.694.165z" strokeWidth=".289"/><path d="M68.022 14.588c.02.142-.26.52-.623.57s-.675-.245-.695-.386.26-.298.624-.348.675.023.695.165z" strokeWidth=".144"/></g><path d="M69.323 13.608c.06 1.11-.24 1.868-.277 3.05-.056 1.72.82 3.687-.5 5.657" fill="none" class="B C D E"/></svg>
