<svg xmlns="http://www.w3.org/2000/svg" preserveAspectRatio="xMidYMid meet" width="120" height="60" fill="#465264"><path d="M65.606 25.255c-1.824 0-3.252.548-4.285 1.643s-1.55 2.647-1.55 4.653c0 1.95.56 3.455 1.677 4.52s2.67 1.595 4.655 1.595c.963 0 1.78-.07 2.45-.2s1.297-.352 1.885-.637v-2.527c-.72.328-1.4.567-2.073.717a9.5 9.5 0 0 1-2.106.226c-.956 0-1.698-.26-2.228-.782s-.813-1.245-.85-2.173h7.954v-1.586c0-1.7-.486-3.03-1.457-3.994s-2.326-1.446-4.07-1.446zm-2.35 4.85c.06-.807.3-1.43.695-1.868s.963-.66 1.677-.66 1.28.22 1.698.66.636 1.062.65 1.868zm15.73-4.85c-.837 0-1.666.104-2.412.444-.96.437-1.472 1.192-1.54 1.3l-.48-1.518h-2.57v11.97h3.365V31.82c0-1.414.2-2.425.63-3.036s1.1-.915 2.04-.915c.7 0 1.195.216 1.5.648s.475 1.08.475 1.943v6.992h3.364v-7.806c0-1.42-.372-2.507-1.114-3.26s-1.832-1.13-3.266-1.13zm31.868.225l-2.7 8.588-2.702-8.588h-3.53l4.542 12.315-.053.16c-.25.714-.598 1.247-1.043 1.6s-.965.53-1.56.53c-.478 0-1.16-.1-1.563-.202v2.592s.97.244 1.95.244c2.62 0 4.417-1.113 5.386-3.754l4.87-13.486zm-21.33-3.347l-3.358.998-.006 2.328h-2.14v2.473h2.14v5.77c0 1.32.306 2.3.92 2.97s1.593 1 2.94 1c.884 0 1.666-.098 2.35-.288v-2.5a6.25 6.25 0 0 1-1.378.178c-.44 0-.796-.1-1.065-.333s-.403-.563-.403-1.028v-5.77h2.846v-2.45h-2.846zm8.46 3.74c-.603.38-1.096.885-1.468 1.488l-.593-1.88h-2.548v11.97h3.365v-6.093c0-.964.3-1.713.9-2.248s1.436-.803 2.5-.803c.387 0 .772.023 1.08.08v-3.065a6.1 6.1 0 0 0-.969-.067c-.765 0-1.623.205-2.273.615zm-42.888 2.543l-2.168-1.097s-.528-.414-.667-.632-.2-.473-.2-.766c0-.47.173-.853.518-1.146s.842-.44 1.5-.44a7.06 7.06 0 0 1 1.66.204c.563.136 1.484.444 2.374.813l.863-2.676c-.83-.35-1.627-.62-2.388-.814s-1.56-.3-2.4-.3c-1.706 0-3.043.396-4 1.188s-1.45 1.88-1.45 3.266c0 .735.147 1.378.44 1.927a4.89 4.89 0 0 0 1.18 1.446c.492.414 1.232.846 2.217 1.295l2.1 1.06s.6.45.777.7a1.36 1.36 0 0 1 .265.818c0 .55-.2.964-.6 1.242s-.976.418-1.726.418c-.625 0-1.315-.094-2.068-.3-1.36-.354-2.514-1.003-2.514-1.003l-.855 2.715c.22.122 2.423 1.32 5.173 1.32 1.868 0 3.325-.407 4.373-1.22s1.572-1.927 1.572-3.34c0-1.02-.28-1.882-.838-2.586s-1.592-1.403-3.1-2.103zM27.55 15.682c-.835-1.452-2.1-2.285-3.5-2.285s-2.664.833-3.5 2.285l-4.4 7.66a24.65 24.65 0 0 1 3.129 2.087c5.265 4.122 8.812 10.348 9.377 17.408h-2.768c-.545-6.04-3.552-11.374-8.003-14.987-.973-.8-2.014-1.497-3.114-2.112L9.6 34.715c1.122.604 2.132 1.4 2.992 2.32a11.45 11.45 0 0 1 2.88 5.806l-4.627-.002a.92.92 0 0 1-.921-.923c0-.16.04-.3.1-.44l1.168-1.988c-.86-.93-1.87-1.715-2.992-2.32l-1.96 3.355c-.835 1.452-.917 2.976-.223 4.182s2.05 1.898 3.722 1.898h9.55a15.33 15.33 0 0 0 .106-1.776 15.31 15.31 0 0 0-.133-1.986 15.22 15.22 0 0 0-4.732-9.172l1.444-2.5c3.353 2.908 5.63 7.03 6.138 11.68a18.14 18.14 0 0 1 .112 1.986 18.41 18.41 0 0 1-.088 1.776h10.288c.036-.588.06-1.18.06-1.776a28.37 28.37 0 0 0-.076-1.986c-.586-8.45-4.87-15.894-11.245-20.7l2.098-3.645a.92.92 0 0 1 1.59.021l13.198 22.96a.94.94 0 0 1 .112.44.92.92 0 0 1-.921.923l-2.073.003a29.01 29.01 0 0 1 .077 1.985c0 .598-.025 1.2-.062 1.777h3.15c1.672 0 3.028-.7 3.722-1.898s.613-2.73-.222-4.182z"/></svg>
