<?xml version="1.0" encoding="UTF-8" standalone="no"?>
<svg
   xmlns:dc="http://purl.org/dc/elements/1.1/"
   xmlns:cc="http://creativecommons.org/ns#"
   xmlns:rdf="http://www.w3.org/1999/02/22-rdf-syntax-ns#"
   xmlns:svg="http://www.w3.org/2000/svg"
   xmlns="http://www.w3.org/2000/svg"
   xmlns:sodipodi="http://sodipodi.sourceforge.net/DTD/sodipodi-0.dtd"
   xmlns:inkscape="http://www.inkscape.org/namespaces/inkscape"
   width="120"
   height="60"
   version="1.1"
   id="svg24"
   sodipodi:docname="slack-ar21.svg"
   style="fill:#ffffff;fill-rule:evenodd;stroke:#000000;stroke-linecap:round;stroke-linejoin:round"
   inkscape:version="0.92.3 (2405546, 2018-03-11)">
  <metadata
     id="metadata30">
    <rdf:RDF>
      <cc:Work
         rdf:about="">
        <dc:format>image/svg+xml</dc:format>
        <dc:type
           rdf:resource="http://purl.org/dc/dcmitype/StillImage" />
        <dc:title></dc:title>
      </cc:Work>
    </rdf:RDF>
  </metadata>
  <defs
     id="defs28" />
  <sodipodi:namedview
     pagecolor="#ffffff"
     bordercolor="#666666"
     borderopacity="1"
     objecttolerance="10"
     gridtolerance="10"
     guidetolerance="10"
     inkscape:pageopacity="0"
     inkscape:pageshadow="2"
     inkscape:window-width="1296"
     inkscape:window-height="725"
     id="namedview26"
     showgrid="false"
     inkscape:zoom="3.375"
     inkscape:cx="52"
     inkscape:cy="16"
     inkscape:window-x="67"
     inkscape:window-y="27"
     inkscape:window-maximized="0"
     inkscape:current-layer="svg24" />
  <g
     id="g6"
     style="fill:#000000;stroke:none"
     transform="translate(8,17.037037)">
    <path
       d="m 38.6903,13.662 c 0,-2.8492 2.1125,-4.838 5.9558,-4.838 2.3416,0 4.2607,0.7355 5.3004,1.456 0.2758,0.1752 0.3832,0.52 0.2546,0.8168 l -0.8464,1.7398 c -0.1565,0.284 -0.5548,0.2476 -0.7584,0.145 -0.7407,-0.369 -1.9535,-0.9918 -3.0543,-1.107 -0.2737,-0.0288 -0.56,-0.0437 -0.85,-0.0375 -0.9825,0.0213 -1.802,0.3566 -2.0922,1.0932 -0.0585,0.1464 -0.09,0.2925 -0.093,0.4377 -0.0254,0.9706 1.3465,1.3207 3.01,1.6 3.095,0.5214 5.434,1.4132 5.434,4.5425 0,2.6578 -2.1634,5.0605 -6.363,4.9868 -2.777,-0.055 -4.7468,-0.9756 -5.803,-1.8724 -0.0356,-0.03 -0.4378,-0.4328 -0.2228,-0.9155 0.247,-0.623 0.6618,-1.3382 0.989,-1.7136 0.182,-0.244 0.6617,-0.2826 0.91,-0.13 0.8705,0.5316 2.2907,1.3833 3.9528,1.4384 l 0.3855,0.0024 c 1.4852,-0.035 2.3837,-0.5877 2.3645,-1.5208 -0.0164,-0.8218 -1.1936,-1.301 -3.0543,-1.6486 -2.9906,-0.554 -5.3958,-1.522 -5.3958,-4.4775 m 27.1627,4.056 c -2.1087,0.0275 -4.0418,0.594 -4.0978,2.2138 0,1.2844 1.06,1.916 2.55,1.8335 1.4278,-0.135 2.5172,-0.744 2.997,-1.551 0.1782,-0.3002 0.2037,-1.4195 0.1934,-1.8985 -0.0025,-0.1002 -0.2073,-0.295 -0.2977,-0.3315 -0.448,-0.185 -0.7802,-0.2426 -1.3452,-0.265 m -7.016,-6.525 c 0.9863,-0.8668 2.927,-2.2163 6.0578,-2.145 4.1105,0.0838 6.2828,1.9787 6.485,6.5 0.0827,1.8687 -0.0546,7.0815 -0.09,8.3798 0.0164,0.0887 -0.0124,0.1797 -0.077,0.2435 a 0.283,0.283 0 0 1 -0.2474,0.0767 l -2.9602,0.0063 c -0.3626,-0.0175 -0.4047,-0.1938 -0.4098,-0.38 l -0.0216,-0.773 c -0.0038,-0.155 -0.1526,-0.15 -0.191,-0.125 -0.9646,1.0007 -2.545,1.501 -4.225,1.501 -2.553,0 -5.098,-1.4758 -5.0905,-4.3988 0.0077,-2.993 2.1672,-4.47 4.5394,-4.8178 1.5196,-0.2226 3.2324,-0.025 4.528,0.4816 0.0827,0.0324 0.252,-0.015 0.2545,-0.1302 0.005,-0.3813 -0.0128,-1.108 -0.089,-1.4533 -0.191,-0.878 -0.9354,-1.5847 -2.5007,-1.776 -0.322,-0.0395 -0.6472,-0.048 -0.971,-0.025 -1.2447,0.0962 -2.7413,1.0505 -3.3623,1.407 -0.1464,0.0837 -0.374,0.0225 -0.448,-0.0713 -0.3614,-0.46 -1.2725,-1.8037 -1.3426,-2.0187 -0.0701,-0.215 0.0293,-0.394 0.1566,-0.5066 z m 13.874,5.558 c -0.0254,-4.175 2.9346,-7.697 7.7413,-7.7295 2.9983,-0.0186 5.177,1.317 5.5614,1.9474 0.0763,0.1476 0.038,0.2714 -0.0167,0.4203 a 14.596,14.596 0 0 1 -1.3515,2.1213 c -0.1946,0.245 -0.4072,0.035 -0.6515,-0.1252 -0.681,-0.4465 -1.9764,-0.992 -3.2502,-0.992 -2.311,0 -4.0342,1.5584 -4.0138,4.424 0.0177,2.7516 1.6544,4.2612 4.0213,4.315 1.2308,0.03 2.4244,-0.6653 3.0543,-1.2344 0.201,-0.1725 0.4098,-0.0876 0.6402,0.09 0.4517,0.454 1.0995,1.1545 1.4596,1.6258 0.2355,0.2678 0.06,0.5305 -0.0253,0.6356 -0.975,1.213 -2.8583,2.2324 -5.3502,2.2462 -5.2176,0.0374 -7.806,-3.5696 -7.8303,-7.7595 m 24.905,7.5745 c 0.2444,-0.0176 2.8583,-0.373 3.6613,-0.553 0.1985,-0.045 0.2697,-0.2088 0.16,-0.3726 l -2.8596,-4.215 -2.717,-3.4232 c -0.0942,-0.1252 -0.089,-0.2502 0.0127,-0.3502 l 4.9708,-4.898 c 0.448,-0.4753 0.1783,-0.6815 -0.201,-0.793 -0.7355,-0.215 -1.924,-0.484 -2.6,-0.6254 -0.285,-0.0588 -0.6287,-0.0375 -0.891,0.2126 l -5.7393,5.5972 c -0.191,0.1875 -0.3004,0.146 -0.3016,-0.1227 L 90.9997,2.753 C 90.9947,2.5653 90.7657,2.424 90.637,2.418 L 87.64,2.4117 c -0.1896,0.0335 -0.3393,0.177 -0.378,0.3627 -0.1526,2.26 0.0637,18.8508 0.1553,21.1723 0.0023,0.1623 0.1305,0.296 0.2953,0.3077 0.658,0.0374 2.2855,0.035 3.0466,0.0212 0.374,0 0.42,-0.2588 0.42,-0.2588 l 0.056,-4.4528 c 0,0 0.0382,-0.1975 0.102,-0.25 l 1.326,-1.366 c 0.0764,-0.0725 0.196,-0.0674 0.2723,0.035 0.3755,0.4978 1.447,2.1163 2.4397,3.562 l 1.8236,2.59 c 0.1374,0.1926 0.298,0.2002 0.42,0.1964 z"
       id="path2"
       inkscape:connector-curvature="0" />
    <path
       d="m 53.1905,24.3082 2.7463,0.005 a 0.386,0.386 0 0 0 0.279,-0.0959 0.373,0.373 0 0 0 0.1257,-0.2631 C 56.5069,20.6999 56.4355,5.206 56.3312,2.7608 56.3224,2.5481 56.2295,2.4693 56.0832,2.4506 55.4214,2.363 53.5354,2.3843 52.9309,2.5382 c -0.1115,0.023 -0.1915,0.1194 -0.192,0.2313 -0.1477,6.306 -0.0484,20.8446 -0.0165,21.1198 0.0319,0.2752 0.178,0.409 0.467,0.419 z"
       id="path4"
       inkscape:connector-curvature="0" />
  </g>
  <path
     d="m 16.5,36.675037 c 0,-1.7385 1.338,-3.138 3,-3.138 1.662,0 3,1.3995 3,3.138 v 7.724 c 0,1.7384 -1.338,3.138 -3,3.138 -1.662,0 -3,-1.3996 -3,-3.138 z"
     id="path8"
     inkscape:connector-curvature="0"
     style="fill:#e01e5a;stroke:none" />
  <path
     d="m 27.638,39.537037 c -1.7384,0 -3.138,-1.338 -3.138,-3 0,-1.662 1.3995,-3 3.138,-3 h 7.7242 c 1.7384,0 3.138,1.338 3.138,3 0,1.662 -1.3995,3 -3.138,3 z"
     id="path10"
     inkscape:connector-curvature="0"
     style="fill:#ecb22d;stroke:none" />
  <path
     d="m 24.5,20.675037 c 0,-1.7385 1.338,-3.138 3,-3.138 1.662,0 3,1.3995 3,3.138 v 7.724 c 0,1.7385 -1.338,3.138 -3,3.138 -1.662,0 -3,-1.3995 -3,-3.138 z"
     id="path12"
     inkscape:connector-curvature="0"
     style="fill:#2fb67c;stroke:none" />
  <path
     d="m 11.638,31.537037 c -1.7385,0 -3.138,-1.338 -3.138,-3 0,-1.662 1.3995,-3 3.138,-3 h 7.724 c 1.7385,0 3.138,1.338 3.138,3 0,1.662 -1.3995,3 -3.138,3 z"
     id="path14"
     inkscape:connector-curvature="0"
     style="fill:#36c5f1;stroke:none" />
  <path
     d="m 24.5,44.537037 c 0,1.662 1.338,3 3,3 1.662,0 3,-1.338 3,-3 0,-1.662 -1.338,-3 -3,-3 h -3 z"
     id="path16"
     inkscape:connector-curvature="0"
     style="fill:#ecb22d;stroke:none" />
  <path
     d="m 35.5,31.537037 h -3 v -3 c 0,-1.662 1.338,-3 3,-3 1.662,0 3,1.338 3,3 0,1.662 -1.338,3 -3,3 z"
     id="path18"
     inkscape:connector-curvature="0"
     style="fill:#2fb67c;stroke:none" />
  <path
     d="m 11.5,33.537037 h 3 v 3 c 0,1.662 -1.338,3 -3,3 -1.662,0 -3,-1.338 -3,-3 0,-1.662 1.338,-3 3,-3 z"
     id="path20"
     inkscape:connector-curvature="0"
     style="fill:#e01e5a;stroke:none" />
  <path
     d="m 22.5,20.537037 v 3 h -3 c -1.662,0 -3,-1.338 -3,-3 0,-1.662 1.338,-3 3,-3 1.662,0 3,1.338 3,3 z"
     id="path22"
     inkscape:connector-curvature="0"
     style="fill:#36c5f1;stroke:none" />
</svg>
