<?xml version="1.0" standalone="no"?>
<!DOCTYPE svg PUBLIC "-//W3C//DTD SVG 20010904//EN"
 "http://www.w3.org/TR/2001/REC-SVG-20010904/DTD/svg10.dtd">
<svg version="1.0" xmlns="http://www.w3.org/2000/svg"
 width="371.000000pt" height="136.000000pt" viewBox="0 0 371.000000 136.000000"
 preserveAspectRatio="xMidYMid meet">

<g transform="translate(0.000000,136.000000) scale(0.100000,-0.100000)"
fill="#000000" stroke="none">
<path d="M132 1309 c-26 -13 -55 -39 -70 -62 l-27 -41 0 -526 0 -526 27 -41
c16 -24 44 -49 70 -62 l44 -21 1679 0 1679 0 44 21 c26 13 54 38 70 62 l27 41
0 526 0 526 -27 41 c-16 24 -44 49 -70 62 l-44 21 -1680 0 -1679 0 -43 -21z
m1841 -180 l57 -12 0 -52 0 -53 -75 24 c-87 27 -122 30 -168 10 -45 -19 -71
-51 -71 -90 0 -47 27 -82 95 -124 231 -142 258 -169 267 -262 7 -75 -5 -113
-49 -163 -52 -60 -122 -87 -222 -87 -64 0 -92 4 -184 25 -21 5 -23 11 -23 61
0 50 2 55 18 49 65 -26 133 -46 178 -51 112 -14 190 63 163 161 -12 42 -43 69
-162 139 -90 53 -153 108 -177 154 -17 34 -14 125 6 167 20 42 77 92 119 104
44 13 163 13 228 0z m590 0 l57 -12 0 -53 0 -53 -55 19 c-117 40 -188 35 -236
-16 -16 -18 -24 -37 -24 -64 0 -53 33 -85 159 -159 159 -92 206 -151 206 -256
-1 -86 -66 -168 -159 -200 -49 -17 -176 -20 -231 -6 -19 5 -47 12 -62 15 -26
6 -28 9 -28 62 0 50 2 55 18 49 168 -68 261 -69 317 -4 32 39 35 108 4 150
-11 16 -59 52 -107 80 -131 78 -171 109 -200 159 -31 53 -35 136 -9 186 19 37
69 81 112 100 37 16 163 18 238 3z m375 -171 l2 -168 185 0 185 0 2 168 3 167
55 0 55 0 3 -392 2 -393 -60 0 -60 0 0 185 0 185 -185 0 -185 0 0 -185 0 -185
-55 0 -55 0 0 396 0 395 53 -3 52 -3 3 -167z m-2363 -150 c168 -84 305 -155
304 -158 0 -4 -593 -299 -620 -309 -6 -2 -9 14 -7 40 l3 44 225 114 225 114
-228 113 -227 114 0 40 c0 22 4 40 10 40 5 0 147 -69 315 -152z m975 -618 l0
-40 -275 0 -275 0 0 40 0 40 275 0 275 0 0 -40z"/>
</g>
</svg>
