<?xml version="1.0" standalone="no"?>
<!DOCTYPE svg PUBLIC "-//W3C//DTD SVG 20010904//EN"
 "http://www.w3.org/TR/2001/REC-SVG-20010904/DTD/svg10.dtd">
<svg version="1.0" xmlns="http://www.w3.org/2000/svg"
 width="700.000000pt" height="394.000000pt" viewBox="0 0 700.000000 394.000000"
 preserveAspectRatio="xMidYMid meet">

<g transform="translate(0.000000,394.000000) scale(0.100000,-0.100000)"
fill="#000000" stroke="none">
<path d="M4231 3504 c-62 -31 -104 -84 -126 -157 -19 -64 -19 -81 1 -146 32
-109 154 -191 265 -178 137 16 239 140 226 275 -8 99 -66 181 -154 217 -58 24
-150 19 -212 -11z"/>
<path d="M3253 3293 c2 -10 8 -26 12 -35 7 -17 -17 -18 -424 -18 -461 0 -475
-1 -501 -49 -6 -13 -10 -205 -10 -549 l0 -529 26 -27 27 -26 304 0 c234 0 304
-3 307 -12 2 -7 9 -38 16 -68 7 -30 23 -76 37 -102 l23 -48 224 0 c218 0 223
0 244 23 12 12 36 38 55 57 19 19 39 45 46 57 8 15 11 162 11 497 l0 476 -75
0 -75 0 0 55 0 54 68 3 67 3 3 96 c3 92 1 98 -24 128 l-26 31 -170 0 c-157 0
-170 -1 -165 -17z m-43 -348 l0 -75 -110 0 -110 0 0 -300 0 -300 -75 0 -75 0
0 300 0 300 -110 0 -110 0 0 75 0 75 295 0 295 0 0 -75z"/>
<path d="M4095 2931 c11 -5 29 -19 40 -31 19 -21 20 -36 20 -439 0 -229 -4
-437 -8 -462 l-9 -47 49 -18 c75 -29 192 -26 265 8 75 35 148 104 184 175 l29
58 3 345 c2 263 0 350 -10 368 -26 49 -48 52 -325 51 -144 0 -249 -4 -238 -8z"/>
<path d="M3627 1156 c-78 -28 -107 -78 -107 -181 l0 -65 -45 0 c-43 0 -45 -1
-45 -29 0 -28 3 -30 43 -33 l42 -3 3 -217 2 -218 35 0 35 0 2 218 3 217 100 0
100 0 5 -180 c3 -103 11 -191 17 -207 22 -49 96 -77 158 -60 22 6 31 15 33 35
3 26 2 27 -43 25 -39 -2 -51 2 -66 21 -17 21 -19 42 -19 197 l0 174 65 0 65 0
0 30 0 30 -65 0 -65 0 0 74 0 75 -37 -13 c-38 -13 -38 -13 -41 -74 l-3 -62
-106 0 -106 0 5 70 c7 93 32 123 96 118 41 -3 42 -3 42 28 0 24 -5 33 -22 38
-31 8 -37 7 -81 -8z"/>
<path d="M1031 1126 c-7 -8 -11 -27 -9 -43 6 -51 88 -41 88 11 0 42 -53 63
-79 32z"/>
<path d="M160 755 l0 -355 35 0 35 0 1 308 0 307 29 -70 c16 -38 75 -176 133
-305 82 -185 108 -235 123 -235 14 0 45 61 149 299 l130 299 3 -301 2 -302 35
0 35 0 0 355 0 355 -49 0 -48 0 -106 -237 c-58 -131 -113 -258 -123 -283 -24
-62 -30 -66 -43 -28 -6 18 -62 149 -123 291 l-112 257 -53 0 -53 0 0 -355z"/>
<path d="M4290 1080 l0 -30 99 0 c81 0 100 -3 105 -16 3 -9 6 -155 6 -325 l0
-309 35 0 35 0 2 323 3 322 98 3 97 3 0 29 0 30 -240 0 -240 0 0 -30z"/>
<path d="M1366 904 c-62 -22 -102 -59 -133 -121 -37 -76 -39 -194 -6 -259 48
-92 138 -141 237 -131 80 8 106 24 106 64 l0 34 -32 -17 c-20 -10 -56 -17 -90
-17 -46 0 -63 5 -92 27 -52 39 -76 92 -76 167 0 79 28 141 80 175 59 39 113
42 193 9 14 -6 17 -2 17 28 0 30 -4 37 -31 46 -43 15 -126 13 -173 -5z"/>
<path d="M1850 912 c-32 -15 -58 -38 -79 -72 l-21 -35 0 53 0 52 -40 0 -40 0
2 -252 3 -253 35 0 35 0 5 170 c6 179 12 207 60 250 16 14 36 20 72 20 l49 0
-3 35 c-3 31 -6 35 -33 37 -16 1 -37 -1 -45 -5z"/>
<path d="M2085 896 c-94 -44 -134 -115 -135 -239 0 -93 31 -172 84 -212 107
-82 263 -67 345 32 85 103 79 297 -12 384 -65 62 -191 78 -282 35z m203 -62
c46 -34 72 -98 72 -180 0 -128 -60 -199 -166 -198 -106 2 -169 76 -169 199 0
87 30 148 90 183 49 28 131 26 173 -4z"/>
<path d="M2621 907 c-19 -6 -49 -26 -68 -44 -29 -29 -33 -40 -33 -84 0 -28 5
-59 10 -70 14 -25 69 -59 143 -88 59 -24 97 -60 97 -92 0 -10 -11 -30 -24 -45
-21 -25 -30 -28 -87 -28 -46 1 -76 7 -106 23 l-43 21 0 -39 c0 -34 4 -40 33
-52 48 -21 164 -18 215 5 50 23 82 69 82 120 0 74 -34 109 -153 156 -58 23
-97 59 -97 90 0 31 39 69 78 76 32 6 84 -2 135 -21 14 -6 17 -1 17 28 0 33 -3
37 -37 46 -47 13 -117 12 -162 -2z"/>
<path d="M3043 896 c-93 -44 -141 -143 -131 -270 12 -150 122 -248 263 -233
146 15 233 129 223 291 -10 152 -94 235 -238 236 -48 0 -79 -7 -117 -24z m181
-50 c96 -40 131 -199 71 -316 -57 -109 -229 -96 -291 22 -23 45 -18 166 9 219
39 75 132 108 211 75z"/>
<path d="M4872 907 c-97 -36 -157 -133 -157 -257 0 -173 98 -272 255 -257 30
3 74 13 98 22 38 16 42 20 42 52 0 19 -3 33 -7 31 -125 -64 -237 -52 -285 30
-10 16 -20 48 -24 70 l-7 42 182 0 181 0 0 38 c0 56 -27 136 -57 173 -51 60
-143 84 -221 56z m127 -65 c38 -19 71 -72 71 -114 l0 -28 -141 0 -141 0 7 28
c12 50 47 94 89 113 51 23 72 24 115 1z"/>
<path d="M5313 899 c-52 -20 -53 -21 -53 -60 l0 -40 30 21 c39 28 131 47 167
34 34 -12 73 -68 73 -105 0 -24 -5 -28 -37 -33 -199 -29 -233 -42 -265 -106
-48 -94 5 -196 110 -216 55 -10 101 4 148 48 l44 41 0 -42 c0 -40 1 -41 36
-41 l35 0 -3 213 c-3 204 -4 213 -26 245 -13 18 -40 39 -59 47 -49 21 -138 18
-200 -6z m215 -294 c-8 -90 -64 -148 -142 -148 -50 0 -81 20 -97 62 -14 35 7
88 41 106 30 16 111 32 169 34 l33 1 -4 -55z"/>
<path d="M5895 906 c-16 -7 -41 -26 -55 -41 l-25 -27 -5 34 c-5 30 -8 33 -43
36 l-37 3 2 -253 3 -253 35 0 35 0 5 185 c5 201 10 218 63 250 64 39 134 17
161 -50 13 -32 16 -77 16 -215 l0 -175 34 0 34 0 4 173 c3 156 5 176 26 214
34 65 96 89 157 61 52 -23 60 -56 63 -260 l4 -188 35 0 34 0 -3 208 c-3 195
-4 209 -26 243 -12 20 -38 44 -56 53 -72 34 -180 8 -221 -54 -21 -32 -35 -39
-35 -17 0 15 -45 59 -77 76 -29 15 -91 13 -128 -3z"/>
<path d="M6647 905 c-79 -28 -121 -99 -98 -167 16 -48 46 -74 127 -108 91 -38
114 -59 114 -104 0 -28 -6 -40 -27 -53 -37 -25 -128 -22 -182 4 l-41 20 0 -39
c0 -33 4 -40 28 -49 127 -49 286 8 299 107 10 74 -16 108 -116 156 -102 49
-131 72 -131 108 0 74 97 99 213 55 14 -6 17 -1 17 28 0 33 -3 37 -37 46 -51
15 -120 13 -166 -4z"/>
<path d="M1022 658 l3 -253 35 0 35 0 3 253 2 252 -40 0 -40 0 2 -252z"/>
</g>
</svg>
