<?xml version="1.0" encoding="utf-8"?>
<!-- Generator: Adobe Illustrator 19.0.0, SVG Export Plug-In . SVG Version: 6.00 Build 0)  -->
<svg version="1.1" id="Layer_1" xmlns="http://www.w3.org/2000/svg" xmlns:xlink="http://www.w3.org/1999/xlink" x="0px" y="0px"
	 viewBox="-98.3 173.7 206.3 53.2" style="enable-background:new -98.3 173.7 206.3 53.2;" xml:space="preserve">
<style type="text/css">
	.st0{fill:#0F172A;}
	.st1{fill:#FD9A00;}
</style>
<path class="st0" d="M-29,210.2h6.3c2.7,0,4.9,2.2,4.9,4.9h-18.1c0-5.3,4.1-9.4,7.9-13.1l3.8-3.7h-7.1c-2.5,0-4.6-2.1-4.6-4.6h18
	c0,5.3-4.1,9.4-7.8,13.2L-29,210.2z"/>
<path class="st0" d="M3.7,205.8h-15.5c0.1,1.5,0.6,2.7,1.6,3.6c0.9,0.9,2.1,1.2,3.5,1.2c2,0,3.4-0.9,4.3-2.5h5.8
	c-0.6,2-1.8,3.6-3.5,4.9c-1.8,1.2-3.9,2-6.4,2c-2,0-3.9-0.5-5.5-1.4c-1.6-0.9-2.9-2.1-3.8-3.7c-0.9-1.6-1.4-3.4-1.4-5.7
	c0-2.1,0.5-4.1,1.4-5.7c0.9-1.6,2.1-2.8,3.8-3.7c1.6-0.9,3.4-1.4,5.5-1.4c2,0,3.8,0.4,5.4,1.2c1.6,0.9,2.8,2.1,3.7,3.6
	c0.9,1.6,1.3,3.3,1.3,5.4C3.8,204.6,3.8,205.2,3.7,205.8z M-1.7,202.2c0-1.4-0.5-2.5-1.5-3.2c-1-0.9-2.1-1.2-3.5-1.2
	c-1.4,0-2.4,0.4-3.4,1.2c-0.9,0.7-1.5,1.8-1.6,3.3h10.1V202.2z"/>
<path class="st0" d="M27.9,198.4c0.9-1.6,2-2.9,3.5-3.8c1.5-0.9,3.1-1.4,4.9-1.4c1.4,0,2.6,0.3,3.9,0.9c1.3,0.6,2.3,1.4,3,2.4v-16.7
	h5.4v35h-5.4v-3.1c-0.6,1-1.6,1.9-2.8,2.5c-1.3,0.6-2.6,1-4.2,1c-1.8,0-3.4-0.5-4.9-1.4c-1.5-0.9-2.6-2.3-3.5-3.9
	c-0.9-1.6-1.3-3.5-1.3-5.8C26.6,202,27,200,27.9,198.4z M42.5,200.9c-0.5-0.9-1.3-1.6-2-2.1c-0.9-0.5-1.8-0.8-2.8-0.8
	c-1,0-1.9,0.3-2.8,0.8c-0.9,0.5-1.5,1.1-2,2.1c-0.5,0.9-0.8,2-0.8,3.3c0,1.3,0.3,2.4,0.8,3.4c0.5,1,1.3,1.6,2,2.1
	c0.9,0.5,1.8,0.8,2.8,0.8c1,0,1.9-0.3,2.8-0.8c0.9-0.5,1.5-1.3,2-2.1c0.5-0.9,0.8-2,0.8-3.4S43,201.8,42.5,200.9z"/>
<path class="st0" d="M25.4,204.3v10.6h-5v-10.6c0-2-0.5-3.5-1.5-4.5c-1-1.1-2.1-1.6-3.5-1.6s-2.5,0.5-3.5,1.6
	c-0.9,1-1.4,2.6-1.4,4.5v10.6H5.5v-10.6c0-2.1,0.5-4,1.3-5.7c0.9-1.6,2-2.9,3.5-3.8s3.1-1.4,5-1.4s3.5,0.5,5,1.4
	c1.5,0.9,2.6,2.1,3.5,3.8C24.9,200.3,25.4,202.2,25.4,204.3z"/>
<path class="st0" d="M51.3,204.1v-10.4h5v10.4c0,2,0.5,3.5,1.5,4.5c1,1.1,2.1,1.6,3.5,1.6c1.4,0,2.5-0.5,3.5-1.6
	c0.9-1,1.4-2.6,1.4-4.5v-10.4h4.9v10.4c0,2.1-0.5,4-1.3,5.7c-0.9,1.6-2,2.9-3.5,3.8c-1.5,0.9-3.1,1.4-5,1.4s-3.5-0.5-5-1.4
	c-1.5-0.9-2.6-2.1-3.5-3.8C51.7,208.1,51.3,206.2,51.3,204.1z"/>
<path class="st0" d="M80.7,198v10.2c0,0.8,0.1,1.3,0.5,1.5c0.4,0.4,0.9,0.5,1.8,0.5h2.5v4.5h-3.4c-4.5,0-6.8-2.1-6.8-6.5V198h-5.1
	v-4.4h5.1v-8.7h5.4v8.7h4.8l2.6,4.4H80.7z"/>
<path class="st0" d="M107.4,193.6l-8.7,20.6l-5,11.8h-5.7l5.1-11.8l-8.4-20.6h6l5.4,14.7l5.5-14.7H107.4z"/>
<path class="st0" d="M-66.9,189.2c-1.9,0-4.7-2.1-4.7-4.8v-3.6c0-2.7,0.8-4.8,4.7-4.8c3.9,0,4.7,2.1,4.7,4.8v3.6
	C-62.2,187.1-65,189.2-66.9,189.2z"/>
<path class="st0" d="M-37.7,223h-21.5l3.8-11.4l0.7-1.8c4.2,1.7,13.1,7.2,17.7,11.6C-36.4,222.1-36.8,223-37.7,223z"/>
<path class="st0" d="M-57.3,192.9l-15.9,10.4c-4.2-2.5-9.2-5.9-12.2-8.8c-0.6-0.6-0.2-1.5,0.7-1.5H-57.3z"/>
<path class="st1" d="M-48.6,194.3l-6,15.6l-0.7,1.8l-3.8,11.4H-96c-0.8,0-1.3-0.9-0.8-1.5c0.9-1.2,1.8-2.3,2.7-3.3
	c2.1-2.2,4.4-4.1,6.9-5.8l0.1-0.1c0.8-0.6,1.6-1.1,2.4-1.6l11.4-7.4l15.9-10.4h7.7C-48.8,192.9-48.4,193.6-48.6,194.3z"/>
</svg>
