<svg width="200" height="200" id="ebTx7AQO6FI1" xmlns="http://www.w3.org/2000/svg" xmlns:xlink="http://www.w3.org/1999/xlink" viewBox="0 0 1000 1000" shape-rendering="geometricPrecision" text-rendering="geometricPrecision" project-id="c08cce0214a442628707f51318db55ad" export-id="6724f745a2224919b31b19025a00c2d4" cached="false"><circle id="ebTx7AQO6FI2" r="235" transform="matrix(.5 0 0 0.5 500 461.299994)" opacity="0.15" fill="#fa9e34"/><path d="M598.8,413.9l-35.5,20.5-17.9,10.4h-9L494.8,310l41.9,135.8h-4.9l.4,1.2.4,1.2.3.8.1.3h13.8l.5-.3l46.9-27.1v-2.7l6.4-3.7-1.8-1.6ZM434.1,445.8l-.7,1.2-1.2,2l.5.3h11.1l.4-1.1.4-1.2.4-1.2h-10.9Zm164.7-31.9l-35.5,20.5-17.9,10.4h-9L494.8,310l41.9,135.8h-4.9l.4,1.2.4,1.2.3.8.1.3h13.8l.5-.3l46.9-27.1v-2.7l6.4-3.7-1.8-1.6ZM434.1,445.8l-.7,1.2-1.2,2l.5.3h11.1l.4-1.1.4-1.2.4-1.2h-10.9Zm164.7-31.9l-35.5,20.5-17.9,10.4h-9L494.8,310l41.9,135.8h-4.9l.4,1.2.4,1.2.3.8.1.3h13.8l.5-.3l46.9-27.1v-2.7l6.4-3.7-1.8-1.6ZM434.1,445.8l-.7,1.2-1.2,2l.5.3h11.1l.4-1.1.4-1.2.4-1.2h-10.9ZM546,447.1l-.7-1.2h-8.6l.4,1.2h-4.9l-.4-1.2.4,1.2.4,1.2.3.8.1.3h13.8l.5-.3-1.3-2Zm-111.9-1.3l-.7,1.2-1.2,2l.5.3h11.1l.4-1.1.4-1.2.4-1.2h-10.9ZM546,447.1l-.7-1.2h-8.6l.4,1.2h-4.9l-.4-1.2.4,1.2.4,1.2.3.8.1.3h13.8l.5-.3-1.3-2Zm-107.5,0v2.4h5.3l.4-1.1.4-1.2h-6.1v-.1ZM603,411.4l-4.2,2.4-35.5,20.5-17.9,10.4h-9L494.8,310v0l-1-3.3-2-6.3v0l-.1-.3-.5-.3-1.5-.8-1.5.8-.5.3-.1.3-2.1,6.4-1.1,3.5-43.9,134.4h-6.4l-47.5-27.4-5.9-3.4v0l-4.2-2.4-3.9-2.3v85.8l19.6,11.3l4.7,2.7l36,20.8h113.9l36.7-21.2l4.7-2.7L607,495v-85.8l-4,2.2ZM545.4,525h-111.3l-48.7-28.1-8.1-4.7v-74.8l8.1,4.7l46.9,27.1.5.3h11.1l.4-1.1.4-1.2.4-1.2l44.6-136.4L531.8,446l.4,1.2.4,1.2.3.8.1.3h13.8l.5-.3l46.9-27.1l1.2-.7l6.9-4v74.8l-8.1,4.7L545.4,525ZM434.1,445.8l-.7,1.2-1.2,2l.5.3h11.1l.4-1.1.4-1.2.4-1.2h-10.9ZM546,447.1l-.7-1.2h-8.6l.4,1.2h-4.9l-.4-1.2.4,1.2.4,1.2.3.8.1.3h13.8l.5-.3-1.3-2Zm-111.9-1.3l-.7,1.2-1.2,2l.5.3h11.1l.4-1.1.4-1.2.4-1.2h-10.9Zm164.7-31.9l-35.5,20.5-17.9,10.4h-9L494.8,310l41.9,135.8h-4.9l.4,1.2.4,1.2.3.8.1.3h13.8l.5-.3l46.9-27.1v-2.7l6.4-3.7-1.8-1.6ZM434.1,445.8l-.7,1.2-1.2,2l.5.3h11.1l.4-1.1.4-1.2.4-1.2h-10.9Zm164.7-31.9l-35.5,20.5-17.9,10.4h-9L494.8,310l41.9,135.8h-4.9l.4,1.2.4,1.2.3.8.1.3h13.8l.5-.3l46.9-27.1v-2.7l6.4-3.7-1.8-1.6ZM434.1,445.8l-.7,1.2-1.2,2l.5.3h11.1l.4-1.1.4-1.2.4-1.2h-10.9Zm164.7-31.9l-35.5,20.5-17.9,10.4h-9L494.8,310l41.9,135.8h-4.9l.4,1.2.4,1.2.3.8.1.3h13.8l.5-.3l46.9-27.1v-2.7l6.4-3.7-1.8-1.6ZM434.1,445.8l-.7,1.2-1.2,2l.5.3h11.1l.4-1.1.4-1.2.4-1.2h-10.9Zm164.7-31.9l-35.5,20.5-17.9,10.4h-9L494.8,310l41.9,135.8h-4.9l.4,1.2.4,1.2.3.8.1.3h13.8l.5-.3l46.9-27.1v-2.7l6.4-3.7-1.8-1.6Z" fill="#fff"/><g><g><g><g><path d="M576.8,475.5v252.9c0,.5,0,1,0,1.5-1.5,24.3-39.1,43.7-85.3,43.7s-83.8-19.5-85.3-43.7c0-.5,0-1,0-1.5v-252.9h170.6m4.8-4.7h-4.7-170.8-4.7v4.7v252.9c0,.7,0,1.2.1,1.8.8,13.5,10.9,25.9,28.4,34.9c16.7,8.6,38.5,13.3,61.6,13.3s44.9-4.7,61.6-13.3c17.5-9,27.6-21.4,28.4-34.9c0-.6.1-1.1.1-1.8v-252.9-4.7v0Z"/></g><g><path d="M406.1,728.4c0,.5,0,1,0,1.5v0-1.5m4.7,0h-9.5v1.5v4.7h4.7h5.1l-.3-5.1c0-.3,0-.6,0-1.1v0Z"/></g><g><path d="M576.8,728.4v1.5v0c0-.5,0-1,0-1.5m4.8,0h-9.5c0,.4,0,.8,0,1.1l-.4,5.1h5.1h4.7v-4.7-1.5h.1Z"/></g></g></g><g><ellipse rx="85.4" ry="45.2" transform="translate(491.4 728.4)" fill="#e8b87e"/><rect width="170.7" height="254.4" rx="0" ry="0" transform="translate(406.1 475.5)" fill="#e8b87e"/></g><ellipse rx="85.4" ry="45.2" transform="translate(491.4 475.5)" fill="#ffdab6"/><ellipse rx="95.2" ry="50.4" transform="translate(494.2 483.6)" fill="#d09750"/><g><path d="M446.7,648.9c-.3,0-.5-.1-.8-.2l-14.8-8.4c-.5-.3-.8-.8-.8-1.3v-7.5c0-.6.3-1.1.8-1.3.5-.3,1.1-.3,1.6,0l14.8,8.5c.5.3.8.8.8,1.3v7.3c0,.6-.3,1.1-.8,1.3-.2.3-.5.3-.8.3Zm-14.8-17.4l-.1,7.5v.1l14.8,8.4.1-7.4-14.8-8.6Z" fill="#d09750"/></g><g><path d="M436.8,739.4c-.3,0-.5-.1-.8-.2l-14.8-8.4c-.5-.3-.8-.8-.8-1.3v-7.5c0-.6.3-1.1.8-1.3.5-.3,1.1-.3,1.6,0l14.8,8.5c.5.3.8.8.8,1.3v7.3c0,.6-.3,1.1-.8,1.3-.2.2-.5.3-.8.3ZM422,721.9l-.1,7.5v.1l14.8,8.4.1-7.4-14.8-8.6Z" fill="#d09750"/></g><g><path d="M440.6,636.2c-.3,0-.5-.1-.8-.2L425,627.6c-.5-.3-.8-.8-.8-1.3v-7.5c0-.6.3-1.1.8-1.3.5-.3,1.1-.3,1.6,0l14.8,8.5c.5.3.8.8.8,1.3v7.3c0,.6-.3,1.1-.8,1.3-.3.3-.5.3-.8.3Zm-14.9-9.8l14.8,8.4.1-7.4-14.9-8.6v7.6l-.4.6.4-.6Z" fill="#d09750"/></g><g><path d="M434.1,544.9c-.3,0-.5-.1-.8-.2l-14.8-8.4c-.5-.3-.8-.8-.8-1.3v-7.5c0-.6.3-1.1.8-1.3.5-.3,1.1-.3,1.6,0l14.8,8.5c.5.3.8.8.8,1.3v7.3c0,.6-.3,1.1-.8,1.3-.3.3-.5.3-.8.3Zm-14.9-9.8l14.8,8.4.1-7.4-14.9-8.6v7.6l-.4.6.4-.6Z" fill="#d09750"/></g><g><path d="M547.8,613.5c.3,0,.5-.1.8-.2l14.8-8.4c.5-.3.8-.8.8-1.3v-7.5c0-.6-.3-1.1-.8-1.3-.5-.3-1.1-.3-1.6,0L547,603.3c-.5.3-.8.8-.8,1.3v7.3c0,.6.3,1.1.8,1.3.3.2.6.3.8.3ZM562.6,596l.1,7.5v.1L547.9,612l-.1-7.4l14.8-8.6Z" fill="#d09750"/></g><g><path d="M554,600.8c.3,0,.5-.1.8-.2l14.8-8.4c.5-.3.8-.8.8-1.3v-7.5c0-.6-.3-1.1-.8-1.3-.5-.3-1.1-.3-1.6,0l-14.8,8.5c-.5.3-.8.8-.8,1.3v7.3c0,.6.3,1.1.8,1.3.2.2.5.3.8.3Zm14.9-9.9l-14.8,8.4-.1-7.4l14.9-8.6v7.6l.4.6-.4-.6Z" fill="#d09750"/></g><g><path d="M544,560.4c.3,0,.5-.1.8-.2l14.8-8.4c.5-.3.8-.8.8-1.3v-7.5c0-.6-.3-1.1-.8-1.3-.5-.3-1.1-.3-1.6,0l-14.8,8.5c-.5.3-.8.8-.8,1.3v7.3c0,.6.3,1.1.8,1.3.3.2.6.3.8.3Zm14.9-9.8L544.1,559l-.1-7.4l14.9-8.6v7.6l.4.6-.4-.6Z" fill="#d09750"/></g><g><path d="M544,718.9c.3,0,.5-.1.8-.2l14.8-8.4c.5-.3.8-.8.8-1.3v-7.5c0-.6-.3-1.1-.8-1.3-.5-.3-1.1-.3-1.6,0l-14.8,8.5c-.5.3-.8.8-.8,1.3v7.3c0,.6.3,1.1.8,1.3.3.2.6.3.8.3Zm14.9-9.8l-14.8,8.4-.1-7.4l14.9-8.6v7.6l.4.6-.4-.6Z" fill="#d09750"/></g><g><path d="M504.6,597.6h-20.9c-1.2,0-2.2-1-2.2-2.2v-6.8c0-1.2,1-2.2,2.2-2.2h20.9c1.2,0,2.2,1,2.2,2.2v6.8c0,1.2-1,2.2-2.2,2.2Zm-20.9-9.5c-.2,0-.4.2-.4.4v6.8c0,.2.2.4.4.4h20.9c.2,0,.4-.2.4-.4v-6.8c0-.2-.2-.4-.4-.4h-20.9Z" fill="#d09750"/></g><g><path d="M497.8,666.9h-20.9c-1.2,0-2.2-1-2.2-2.2v-6.8c0-1.2,1-2.2,2.2-2.2h20.9c1.2,0,2.2,1,2.2,2.2v6.8c0,1.2-1,2.2-2.2,2.2Zm-20.9-9.5c-.2,0-.4.2-.4.4v6.8c0,.2.2.4.4.4h20.9c.2,0,.4-.2.4-.4v-6.8c0-.2-.2-.4-.4-.4h-20.9Z" fill="#d09750"/></g><g><path d="M511.5,749.1h-20.9c-1.2,0-2.2-1-2.2-2.2v-6.8c0-1.2,1-2.2,2.2-2.2h20.9c1.2,0,2.2,1,2.2,2.2v6.8c0,1.3-.9,2.2-2.2,2.2Zm-20.9-9.4c-.2,0-.4.2-.4.4v6.8c0,.2.2.4.4.4h20.9c.2,0,.4-.2.4-.4v-6.8c0-.2-.2-.4-.4-.4h-20.9Z" fill="#d09750"/></g><g><path d="M515.5,588.1h-20.9c-1.2,0-2.2-1-2.2-2.2v-6.8c0-1.2,1-2.2,2.2-2.2h20.9c1.2,0,2.2,1,2.2,2.2v6.8c0,1.2-1,2.2-2.2,2.2Zm-20.9-9.4c-.2,0-.4.2-.4.4v6.8c0,.2.2.4.4.4h20.9c.2,0,.4-.2.4-.4v-6.8c0-.2-.2-.4-.4-.4h-20.9Z" fill="#d09750"/></g><g><path d="M509.8,657.4h-20.9c-1.2,0-2.2-1-2.2-2.2v-6.8c0-1.2,1-2.2,2.2-2.2h20.9c1.2,0,2.2,1,2.2,2.2v6.8c0,1.2-1,2.2-2.2,2.2Zm-21-9.4c-.2,0-.4.2-.4.4v6.8c0,.2.2.4.4.4h20.9c.2,0,.4-.2.4-.4v-6.8c0-.2-.2-.4-.4-.4h-20.9Z" fill="#d09750"/></g></g><polygon points="606.2,414.6 605.4,415.5 604.6,416.3 602.9,418 600.5,415.6 598.8,413.9 598.8,413.8 592.4,407.5 494.8,310 494.8,310 489.7,304.9 484.4,310.3 380.6,413.8 380.6,413.8 378.9,415.6 377.2,417.3 376.5,418 373.2,414.6 376.4,411.4 377.2,410.6 383.7,404.2 475.3,312.7 487.6,300.3 488.3,299.7 489.7,298.9 491.2,299.7 491.8,300.3 491.8,300.3 504.1,312.7 602.2,410.6" fill="#fff"/><polygon points="537.3,447.7 535.5,448.3 532.8,449.1 532.5,448.3 532.3,447.7 532.1,447.1 531.8,445.8 489.6,309.4 445,445.8 444.6,447.1 444.3,448.3 443.9,449.4 442.2,449.4 442.2,448.6 441.3,448.3 439.5,447.7 439.7,447.1 440.1,445.8 440.4,444.7 484.4,310.3 485.5,306.7 487.6,300.3 487.7,300 488.3,299.7 489.7,298.9 491.2,299.7 491.7,300 491.8,300.3 491.8,300.3 493.7,306.7 494.8,310 494.8,310 536.7,445.8 537.1,447.1" fill="#fff"/><rect width="112.6" height="2.4" rx="0" ry="0" transform="translate(433.4 526.1)" fill="#fff"/><polygon points="606.9,366.6 606.9,414.6 605.4,415.5 604.6,416 602.2,417.3 602.2,417.3 595.3,421.3 594.1,422 547.2,449.1 546,447.1 545.3,445.8 544.8,445 545.4,444.7 563.3,434.3 598.8,413.8 602.2,411.9 602.2,369.3 504.1,312.7 493.7,306.7 489.7,304.3 485.5,306.7 475.3,312.7 377.2,369.3 377.2,411.9 380.6,413.8 380.6,413.8 386.5,417.2 434.1,444.7 434.6,445 434.1,445.8 433.4,447.1 432.2,449.1 385.3,422 377.2,417.3 377.2,417.3 374.8,416 374,415.5 372.5,414.6 372.5,366.6 373.6,365.9 487.7,300 488.3,299.7 489.7,298.9 491.2,299.7 491.7,300" fill="#fff"/><rect width="112.6" height="2.4" rx="0" ry="0" transform="translate(433.4 445.8)" fill="#fff"/><rect width="10.5" height="80.3" rx="0" ry="0" transform="translate(438.5 447.1)" fill="#fff"/><rect width="10.5" height="80.3" rx="0" ry="0" transform="translate(527.2 447.1)" fill="#fff"/><polygon points="385.3,419.3 385.3,499.6 374.8,493.5 374.8,413.2 376.8,414.4 378.9,415.6" fill="#fff"/><polygon points="588.1,502.4 588.1,535.2 526.9,561.7 445.7,561.7 392,532.9 392,504.8 396.8,504.8 396.8,530.1 446.9,557 525.9,557 583.4,532.1 583.4,505 584.6,505 584.4,502.7" fill="#fff"/><polygon points="475.3,312.7 383.7,404.2 377.2,410.6 377.2,369.3" fill="#ff9d45"/><path d="M491.7,300l-.5-.3-1.5-.8-1.5.8-.5.3-114.1,65.9-1.2.7v128.3L392,506.2v26.7l53.7,28.8h81.2l61.2-26.5v-29.5l18.8-10.9v-128.2L491.7,300Zm110.5,69.3v41.3l-98.1-97.9l98.1,56.6ZM545.4,525h-7.6v-75.6h8.9l.5-.3L594.1,422v74.8L545.4,525ZM380.6,413.8L484.3,310.2L440.4,444.6h-6.4l-47.5-27.4-5.9-3.4Zm182.7,20.5l-17.9,10.4h-9L494.8,310l97.7,97.5l6.3,6.3-35.5,20.5ZM445,445.8l44.6-136.4l42.1,136.4h-86.7Zm4,2.5h78.2v76.7h-78.2v-76.7Zm-71.8-79l98.1-56.6-91.6,91.5-6.5,6.4v-41.3Zm8.1,127.6v-74.9l46.9,27.1.5.3h5.8v75.6h-4.5l-48.7-28.1Zm198.1,35.2L525.9,557h-79l-50.1-26.9v-21.2l36,20.8h113.9l36.7-21.2v23.6Z"/><polygon points="583.4,508.5 583.4,532.1 525.9,557 446.9,557 396.8,530.1 396.8,508.9 432.8,529.7 546.6,529.7" fill="#a5692d"/><polygon points="438.5,449.4 438.5,525 434.1,525 385.3,496.9 385.3,422 432.2,449.1 432.8,449.4" fill="#bc7f3c"/><rect width="78.2" height="76.7" rx="0" ry="0" transform="translate(449 448.3)" fill="#bc7f3c"/><polygon points="594.1,422 594.1,496.9 545.4,525 537.7,525 537.7,449.4 546.6,449.4 547.2,449.1" fill="#bc7f3c"/><polygon points="602.2,369.3 602.2,410.6 504.1,312.7" fill="#db6d00"/><polygon points="598.8,413.8 563.3,434.3 545.4,444.7 536.4,444.7 494.8,310 592.4,407.5" fill="#e07000"/><polygon points="531.8,445.8 445,445.8 489.6,309.4" fill="#f27e00"/><polygon points="484.4,310.3 440.4,444.7 434.1,444.7 386.5,417.2 380.6,413.8" fill="#fa9e34"/><g><path d="M585.6,488.3l-36.5,21c0,0-1.2-21.4,3.8-39.8l32.7,18.8Z" fill="#d09750"/><path d="M567.4,446.3c20.2-11.4,18.2,42,18.2,42l-32.7-18.8c2.6-10,7.1-19,14.5-23.2Z" fill="#93551c"/></g><g><path d="M393.7,488.3l36.5,21c0,0,1.2-21.4-3.8-39.8l-32.7,18.8Z" fill="#d09750"/><path d="M411.8,446.3c-20.2-11.4-18.2,42-18.2,42l32.7-18.8c-2.6-10-7-19-14.5-23.2Z" fill="#93551c"/></g><path d="M522.3,513.5c0,.2,0,.3,0,.3h-61.2c0,0-2.6-52.4,30.6-52.4c3.1,0,5.9.5,8.4,1.3c1.4.5,2.8,1.1,4.1,1.8c19,10.6,18.2,45.6,18.1,49Z" fill="#d09750"/><path d="M522.3,513.5c0,.2,0,.3,0,.3s-20.3-33.6-31.8-33.6-29.4,33.6-29.4,33.6-2.6-52.4,30.6-52.4c3.1,0,5.9.5,8.4,1.3c1.4.5,2.8,1.1,4.1,1.8c19,10.6,18.2,45.6,18.1,49Z" fill="#93551c"/>
<script><![CDATA[
!function(t,n){"object"==typeof exports&&"undefined"!=typeof module?module.exports=n():"function"==typeof __SVGATOR_DEFINE__&&__SVGATOR_DEFINE__.amd?__SVGATOR_DEFINE__(n):((t="undefined"!=typeof globalThis?globalThis:t||self).__SVGATOR_PLAYER__=t.__SVGATOR_PLAYER__||{},t.__SVGATOR_PLAYER__["5c7f360c"]=n())}(this,(function(){"use strict";function t(t,n){var e=Object.keys(t);if(Object.getOwnPropertySymbols){var r=Object.getOwnPropertySymbols(t);n&&(r=r.filter((function(n){return Object.getOwnPropertyDescriptor(t,n).enumerable}))),e.push.apply(e,r)}return e}function n(n){for(var e=1;e<arguments.length;e++){var r=null!=arguments[e]?arguments[e]:{};e%2?t(Object(r),!0).forEach((function(t){o(n,t,r[t])})):Object.getOwnPropertyDescriptors?Object.defineProperties(n,Object.getOwnPropertyDescriptors(r)):t(Object(r)).forEach((function(t){Object.defineProperty(n,t,Object.getOwnPropertyDescriptor(r,t))}))}return n}function e(t){return(e="function"==typeof Symbol&&"symbol"==typeof Symbol.iterator?function(t){return typeof t}:function(t){return t&&"function"==typeof Symbol&&t.constructor===Symbol&&t!==Symbol.prototype?"symbol":typeof t})(t)}function r(t,n){if(!(t instanceof n))throw new TypeError("Cannot call a class as a function")}function i(t,n){for(var e=0;e<n.length;e++){var r=n[e];r.enumerable=r.enumerable||!1,r.configurable=!0,"value"in r&&(r.writable=!0),Object.defineProperty(t,r.key,r)}}function u(t,n,e){return n&&i(t.prototype,n),e&&i(t,e),t}function o(t,n,e){return n in t?Object.defineProperty(t,n,{value:e,enumerable:!0,configurable:!0,writable:!0}):t[n]=e,t}function a(t){return(a=Object.setPrototypeOf?Object.getPrototypeOf:function(t){return t.__proto__||Object.getPrototypeOf(t)})(t)}function l(t,n){return(l=Object.setPrototypeOf||function(t,n){return t.__proto__=n,t})(t,n)}function s(){if("undefined"==typeof Reflect||!Reflect.construct)return!1;if(Reflect.construct.sham)return!1;if("function"==typeof Proxy)return!0;try{return Boolean.prototype.valueOf.call(Reflect.construct(Boolean,[],(function(){}))),!0}catch(t){return!1}}function f(t,n,e){return(f=s()?Reflect.construct:function(t,n,e){var r=[null];r.push.apply(r,n);var i=new(Function.bind.apply(t,r));return e&&l(i,e.prototype),i}).apply(null,arguments)}function c(t,n){if(n&&("object"==typeof n||"function"==typeof n))return n;if(void 0!==n)throw new TypeError("Derived constructors may only return object or undefined");return function(t){if(void 0===t)throw new ReferenceError("this hasn't been initialised - super() hasn't been called");return t}(t)}function h(t,n,e){return(h="undefined"!=typeof Reflect&&Reflect.get?Reflect.get:function(t,n,e){var r=function(t,n){for(;!Object.prototype.hasOwnProperty.call(t,n)&&null!==(t=a(t)););return t}(t,n);if(r){var i=Object.getOwnPropertyDescriptor(r,n);return i.get?i.get.call(e):i.value}})(t,n,e||t)}function v(t){return function(t){if(Array.isArray(t))return y(t)}(t)||function(t){if("undefined"!=typeof Symbol&&null!=t[Symbol.iterator]||null!=t["@@iterator"])return Array.from(t)}(t)||function(t,n){if(!t)return;if("string"==typeof t)return y(t,n);var e=Object.prototype.toString.call(t).slice(8,-1);"Object"===e&&t.constructor&&(e=t.constructor.name);if("Map"===e||"Set"===e)return Array.from(t);if("Arguments"===e||/^(?:Ui|I)nt(?:8|16|32)(?:Clamped)?Array$/.test(e))return y(t,n)}(t)||function(){throw new TypeError("Invalid attempt to spread non-iterable instance.\nIn order to be iterable, non-array objects must have a [Symbol.iterator]() method.")}()}function y(t,n){(null==n||n>t.length)&&(n=t.length);for(var e=0,r=new Array(n);e<n;e++)r[e]=t[e];return r}function g(t,n,e){if(Number.isInteger(t))return t;var r=Math.pow(10,n);return Math[e]((+t+Number.EPSILON)*r)/r}Number.isInteger||(Number.isInteger=function(t){return"number"==typeof t&&isFinite(t)&&Math.floor(t)===t}),Number.EPSILON||(Number.EPSILON=2220446049250313e-31);var p=d(Math.pow(10,-6));function d(t){var n=arguments.length>1&&void 0!==arguments[1]?arguments[1]:6;return g(t,n,"round")}function m(t,n){var e=arguments.length>2&&void 0!==arguments[2]?arguments[2]:p;return Math.abs(t-n)<e}d(Math.pow(10,-2)),d(Math.pow(10,-4));var b=Math.PI/180;function w(t){return t*b}function x(t){return t/b}function _(t){return t}function A(t,n,e){var r=1-e;return 3*e*r*(t*r+n*e)+e*e*e}function k(){var t=arguments.length>0&&void 0!==arguments[0]?arguments[0]:0,n=arguments.length>1&&void 0!==arguments[1]?arguments[1]:0,e=arguments.length>2&&void 0!==arguments[2]?arguments[2]:1,r=arguments.length>3&&void 0!==arguments[3]?arguments[3]:1;return t<0||t>1||e<0||e>1?null:m(t,n)&&m(e,r)?_:function(i){if(i<=0)return t>0?i*n/t:0===n&&e>0?i*r/e:0;if(i>=1)return e<1?1+(i-1)*(r-1)/(e-1):1===e&&t<1?1+(i-1)*(n-1)/(t-1):1;for(var u,o=0,a=1;o<a;){var l=A(t,e,u=(o+a)/2);if(m(i,l))break;l<i?o=u:a=u}return A(n,r,u)}}function S(){return 1}function O(t){return 1===t?1:0}function j(){var t=arguments.length>0&&void 0!==arguments[0]?arguments[0]:1,n=arguments.length>1&&void 0!==arguments[1]?arguments[1]:0;if(1===t){if(0===n)return O;if(1===n)return S}var e=1/t;return function(t){return t>=1?1:(t+=n*e)-t%e}}var M=Math.sin,E=Math.cos,P=Math.acos,I=Math.asin,R=Math.tan,F=Math.atan2,N=Math.sqrt,T=function(){function t(){var n=arguments.length>0&&void 0!==arguments[0]?arguments[0]:1,e=arguments.length>1&&void 0!==arguments[1]?arguments[1]:0,i=arguments.length>2&&void 0!==arguments[2]?arguments[2]:0,u=arguments.length>3&&void 0!==arguments[3]?arguments[3]:1,o=arguments.length>4&&void 0!==arguments[4]?arguments[4]:0,a=arguments.length>5&&void 0!==arguments[5]?arguments[5]:0;r(this,t),this.m=[n,e,i,u,o,a],this.i=null,this.w=null,this.s=null}return u(t,[{key:"determinant",get:function(){var t=this.m;return t[0]*t[3]-t[1]*t[2]}},{key:"isIdentity",get:function(){if(null===this.i){var t=this.m;this.i=1===t[0]&&0===t[1]&&0===t[2]&&1===t[3]&&0===t[4]&&0===t[5]}return this.i}},{key:"point",value:function(t,n){var e=this.m;return{x:e[0]*t+e[2]*n+e[4],y:e[1]*t+e[3]*n+e[5]}}},{key:"translateSelf",value:function(){var t=arguments.length>0&&void 0!==arguments[0]?arguments[0]:0,n=arguments.length>1&&void 0!==arguments[1]?arguments[1]:0;if(!t&&!n)return this;var e=this.m;return e[4]+=e[0]*t+e[2]*n,e[5]+=e[1]*t+e[3]*n,this.w=this.s=this.i=null,this}},{key:"rotateSelf",value:function(){var t=arguments.length>0&&void 0!==arguments[0]?arguments[0]:0;if(t%=360){t=w(t);var n=M(t),e=E(t),r=this.m,i=r[0],u=r[1];r[0]=i*e+r[2]*n,r[1]=u*e+r[3]*n,r[2]=r[2]*e-i*n,r[3]=r[3]*e-u*n,this.w=this.s=this.i=null}return this}},{key:"scaleSelf",value:function(){var t=arguments.length>0&&void 0!==arguments[0]?arguments[0]:1,n=arguments.length>1&&void 0!==arguments[1]?arguments[1]:1;if(1!==t||1!==n){var e=this.m;e[0]*=t,e[1]*=t,e[2]*=n,e[3]*=n,this.w=this.s=this.i=null}return this}},{key:"skewSelf",value:function(t,n){if(n%=360,(t%=360)||n){var e=this.m,r=e[0],i=e[1],u=e[2],o=e[3];t&&(t=R(w(t)),e[2]+=r*t,e[3]+=i*t),n&&(n=R(w(n)),e[0]+=u*n,e[1]+=o*n),this.w=this.s=this.i=null}return this}},{key:"resetSelf",value:function(){var t=arguments.length>0&&void 0!==arguments[0]?arguments[0]:1,n=arguments.length>1&&void 0!==arguments[1]?arguments[1]:0,e=arguments.length>2&&void 0!==arguments[2]?arguments[2]:0,r=arguments.length>3&&void 0!==arguments[3]?arguments[3]:1,i=arguments.length>4&&void 0!==arguments[4]?arguments[4]:0,u=arguments.length>5&&void 0!==arguments[5]?arguments[5]:0,o=this.m;return o[0]=t,o[1]=n,o[2]=e,o[3]=r,o[4]=i,o[5]=u,this.w=this.s=this.i=null,this}},{key:"recomposeSelf",value:function(){var t=arguments.length>0&&void 0!==arguments[0]?arguments[0]:null,n=arguments.length>1&&void 0!==arguments[1]?arguments[1]:null,e=arguments.length>2&&void 0!==arguments[2]?arguments[2]:null,r=arguments.length>3&&void 0!==arguments[3]?arguments[3]:null,i=arguments.length>4&&void 0!==arguments[4]?arguments[4]:null;return this.isIdentity||this.resetSelf(),t&&(t.x||t.y)&&this.translateSelf(t.x,t.y),n&&this.rotateSelf(n),e&&(e.x&&this.skewSelf(e.x,0),e.y&&this.skewSelf(0,e.y)),!r||1===r.x&&1===r.y||this.scaleSelf(r.x,r.y),i&&(i.x||i.y)&&this.translateSelf(i.x,i.y),this}},{key:"decompose",value:function(){var t=arguments.length>0&&void 0!==arguments[0]?arguments[0]:0,n=arguments.length>1&&void 0!==arguments[1]?arguments[1]:0,e=this.m,r=e[0]*e[0]+e[1]*e[1],i=[[e[0],e[1]],[e[2],e[3]]],u=N(r);if(0===u)return{origin:{x:d(e[4]),y:d(e[5])},translate:{x:d(t),y:d(n)},scale:{x:0,y:0},skew:{x:0,y:0},rotate:0};i[0][0]/=u,i[0][1]/=u;var o=e[0]*e[3]-e[1]*e[2]<0;o&&(u=-u);var a=i[0][0]*i[1][0]+i[0][1]*i[1][1];i[1][0]-=i[0][0]*a,i[1][1]-=i[0][1]*a;var l,s=N(i[1][0]*i[1][0]+i[1][1]*i[1][1]);return 0===s?{origin:{x:d(e[4]),y:d(e[5])},translate:{x:d(t),y:d(n)},scale:{x:d(u),y:0},skew:{x:0,y:0},rotate:0}:(i[1][0]/=s,i[1][1]/=s,a/=s,i[1][1]<0?(l=x(P(i[1][1])),i[0][1]<0&&(l=360-l)):l=x(I(i[0][1])),o&&(l=-l),a=x(F(a,N(i[0][0]*i[0][0]+i[0][1]*i[0][1]))),o&&(a=-a),{origin:{x:d(e[4]),y:d(e[5])},translate:{x:d(t),y:d(n)},scale:{x:d(u),y:d(s)},skew:{x:d(a),y:0},rotate:d(l)})}},{key:"multiply",value:function(t){return this.clone().multiplySelf(t)}},{key:"preMultiply",value:function(t){return t.multiply(this)}},{key:"multiplySelf",value:function(t){var n=q(this.m,t.m),e=n.a,r=n.b,i=n.c,u=n.d,o=n.tx,a=n.ty;return this.resetSelf(e,r,i,u,o,a),this}},{key:"preMultiplySelf",value:function(t){var n=q(t.m,this.m),e=n.a,r=n.b,i=n.c,u=n.d,o=n.tx,a=n.ty;return this.resetSelf(e,r,i,u,o,a),this}},{key:"clone",value:function(){var t=this.m;return new this.constructor(t[0],t[1],t[2],t[3],t[4],t[5])}},{key:"toString",value:function(){var t=arguments.length>0&&void 0!==arguments[0]?arguments[0]:" ";if(null===this.s){var n=this.m.map((function(t){return d(t)}));1===n[0]&&0===n[1]&&0===n[2]&&1===n[3]?this.s="translate("+n[4]+t+n[5]+")":this.s="matrix("+n.join(t)+")"}return this.s}}],[{key:"create",value:function(t){return t?Array.isArray(t)?f(this,v(t)):t instanceof this?t.clone():(new this).recomposeSelf(t.origin,t.rotate,t.skew,t.scale,t.translate):new this}}]),t}();function q(t,n){return{a:t[0]*n[0]+t[2]*n[1],b:t[1]*n[0]+t[3]*n[1],c:t[0]*n[2]+t[2]*n[3],d:t[1]*n[2]+t[3]*n[3],tx:t[0]*n[4]+t[2]*n[5]+t[4],ty:t[1]*n[4]+t[3]*n[5]+t[5]}}function B(t,n,e){return t>=.5?e:n}function D(t,n,e){return 0===t||n===e?n:t*(e-n)+n}function L(t,n,e){var r=D(t,n,e);return r<=0?0:r}function C(t,n,e){var r=D(t,n,e);return r<=0?0:r>=1?1:r}function V(t,n,e){return 0===t?n:1===t?e:{x:D(t,n.x,e.x),y:D(t,n.y,e.y)}}function G(t,n,e){var r=function(t,n,e){return Math.round(D(t,n,e))}(t,n,e);return r<=0?0:r>=255?255:r}function z(t,n,e){return 0===t?n:1===t?e:{r:G(t,n.r,e.r),g:G(t,n.g,e.g),b:G(t,n.b,e.b),a:D(t,null==n.a?1:n.a,null==e.a?1:e.a)}}function Y(t,n){for(var e=[],r=0;r<t;r++)e.push(n);return e}function $(t,n){if(--n<=0)return t;var e=(t=Object.assign([],t)).length;do{for(var r=0;r<e;r++)t.push(t[r])}while(--n>0);return t}var U,Q=function(){function t(n){r(this,t),this.list=n,this.length=n.length}return u(t,[{key:"setAttribute",value:function(t,n){for(var e=this.list,r=0;r<this.length;r++)e[r].setAttribute(t,n)}},{key:"removeAttribute",value:function(t){for(var n=this.list,e=0;e<this.length;e++)n[e].removeAttribute(t)}},{key:"style",value:function(t,n){for(var e=this.list,r=0;r<this.length;r++)e[r].style[t]=n}}]),t}(),H=/-./g,J=function(t,n){return n.toUpperCase()};function Z(t){return"function"==typeof t?t:B}function K(t){return t?"function"==typeof t?t:Array.isArray(t)?function(t){var n=arguments.length>1&&void 0!==arguments[1]?arguments[1]:_;if(!Array.isArray(t))return n;switch(t.length){case 1:return j(t[0])||n;case 2:return j(t[0],t[1])||n;case 4:return k(t[0],t[1],t[2],t[3])||n}return n}(t,null):function(t,n){var e=arguments.length>2&&void 0!==arguments[2]?arguments[2]:_;switch(t){case"linear":return _;case"steps":return j(n.steps||1,n.jump||0)||e;case"bezier":case"cubic-bezier":return k(n.x1||0,n.y1||0,n.x2||0,n.y2||0)||e}return e}(t.type,t.value,null):null}function W(t,n,e){var r=arguments.length>3&&void 0!==arguments[3]&&arguments[3],i=n.length-1;if(t<=n[0].t)return r?[0,0,n[0].v]:n[0].v;if(t>=n[i].t)return r?[i,1,n[i].v]:n[i].v;var u,o=n[0],a=null;for(u=1;u<=i;u++){if(!(t>n[u].t)){a=n[u];break}o=n[u]}return null==a?r?[i,1,n[i].v]:n[i].v:o.t===a.t?r?[u,1,a.v]:a.v:(t=(t-o.t)/(a.t-o.t),o.e&&(t=o.e(t)),r?[u,t,e(t,o.v,a.v)]:e(t,o.v,a.v))}function X(t,n){var e=arguments.length>2&&void 0!==arguments[2]?arguments[2]:null;return t&&t.length?"function"!=typeof n?null:("function"!=typeof e&&(e=null),function(r){var i=W(r,t,n);return null!=i&&e&&(i=e(i)),i}):null}function tt(t,n){return t.t-n.t}function nt(t,n,r,i,u){var o,a="@"===r[0],l="#"===r[0],s=U[r],f=B;switch(a?(o=r.substr(1),r=o.replace(H,J)):l&&(r=r.substr(1)),e(s)){case"function":if(f=s(i,u,W,K,r,a,n,t),l)return f;break;case"string":f=X(i,Z(s));break;case"object":if((f=X(i,Z(s.i),s.f))&&"function"==typeof s.u)return s.u(n,f,r,a,t)}return f?function(t,n,e){if(arguments.length>3&&void 0!==arguments[3]&&arguments[3])return t instanceof Q?function(r){return t.style(n,e(r))}:function(r){return t.style[n]=e(r)};if(Array.isArray(n)){var r=n.length;return function(i){var u=e(i);if(null==u)for(var o=0;o<r;o++)t[o].removeAttribute(n);else for(var a=0;a<r;a++)t[a].setAttribute(n,u)}}return function(r){var i=e(r);null==i?t.removeAttribute(n):t.setAttribute(n,i)}}(n,r,f,a):null}function et(t,n,r,i){if(!i||"object"!==e(i))return null;var u=null,o=null;return Array.isArray(i)?o=function(t){if(!t||!t.length)return null;for(var n=0;n<t.length;n++)t[n].e&&(t[n].e=K(t[n].e));return t.sort(tt)}(i):(o=i.keys,u=i.data||null),o?nt(t,n,r,o,u):null}function rt(t,n,e){if(!e)return null;var r=[];for(var i in e)if(e.hasOwnProperty(i)){var u=et(t,n,i,e[i]);u&&r.push(u)}return r.length?r:null}function it(t,n){if(!n.settings.duration||n.settings.duration<0)return null;var e,r,i,u,o,a=function(t,n){if(!n)return null;var e=[];if(Array.isArray(n))for(var r=n.length,i=0;i<r;i++){var u=n[i];if(2===u.length){var o=null;if("string"==typeof u[0])o=t.getElementById(u[0]);else if(Array.isArray(u[0])){o=[];for(var a=0;a<u[0].length;a++)if("string"==typeof u[0][a]){var l=t.getElementById(u[0][a]);l&&o.push(l)}o=o.length?1===o.length?o[0]:new Q(o):null}if(o){var s=rt(t,o,u[1]);s&&(e=e.concat(s))}}}else for(var f in n)if(n.hasOwnProperty(f)){var c=t.getElementById(f);if(c){var h=rt(t,c,n[f]);h&&(e=e.concat(h))}}return e.length?e:null}(t,n.elements);return a?(e=a,r=n.settings,i=r.duration,u=e.length,o=null,function(t,n){var a=r.iterations||1/0,l=(r.alternate&&a%2==0)^r.direction>0?i:0,s=t%i,f=1+(t-s)/i;n*=r.direction,r.alternate&&f%2==0&&(n=-n);var c=!1;if(f>a)s=l,c=!0,-1===r.fill&&(s=r.direction>0?0:i);else if(n<0&&(s=i-s),s===o)return!1;o=s;for(var h=0;h<u;h++)e[h](s);return c}):null}function ut(t,n){for(var e=n.querySelectorAll("svg"),r=0;r<e.length;r++)if(e[r].id===t.root&&!e[r].svgatorAnimation)return e[r].svgatorAnimation=!0,e[r];return null}function ot(t){var n=function(t){return t.shadowRoot};return document?Array.from(t.querySelectorAll(":not("+["a","area","audio","br","canvas","circle","datalist","embed","g","head","hr","iframe","img","input","link","object","path","polygon","rect","script","source","style","svg","title","track","video"].join()+")")).filter(n).map(n):[]}function at(t){var n=arguments.length>1&&void 0!==arguments[1]?arguments[1]:document,e=arguments.length>2&&void 0!==arguments[2]?arguments[2]:0,r=ut(t,n);if(r)return r;if(e>=20)return null;for(var i=ot(n),u=0;u<i.length;u++){var o=at(t,i[u],e+1);if(o)return o}return null}function lt(t,n){if(U=n,!t||!t.root||!Array.isArray(t.animations))return null;var e=at(t);if(!e)return null;var r=t.animations.map((function(t){return it(e,t)})).filter((function(t){return!!t}));return r.length?{svg:e,animations:r,animationSettings:t.animationSettings,options:t.options||void 0}:null}function st(t){var n=arguments.length>1&&void 0!==arguments[1]?arguments[1]:null,e=arguments.length>2&&void 0!==arguments[2]?arguments[2]:Number,r=arguments.length>3&&void 0!==arguments[3]?arguments[3]:"undefined"!=typeof BigInt&&BigInt,i="0x"+(t.replace(/[^0-9a-fA-F]+/g,"")||27);return n&&r&&e.isSafeInteger&&!e.isSafeInteger(+i)?e(r(i))%n+n:+i}function ft(t,n,e){return!t||!e||n>t.length?t:t.substring(0,n)+ft(t.substring(n+1),e,e)}function ct(t){var n=arguments.length>1&&void 0!==arguments[1]?arguments[1]:27;return!t||t%n?t%n:[0,1].includes(n)?n:ct(t/n,n)}function ht(t,n,e){if(t&&t.length){var r=st(e),i=ct(r)+5,u=ft(t,ct(r,5),i);return u=u.replace(/\x7c$/g,"==").replace(/\x2f$/g,"="),u=function(t,n,e){var r=+("0x"+t.substring(0,4));t=t.substring(4);for(var i=st(n,r)%r+e%27,u=[],o=0;o<t.length;o+=2)if("|"!==t[o]){var a=+("0x"+t[o]+t[o+1])-i;u.push(a)}else{var l=+("0x"+t.substring(o+1,o+1+4))-i;o+=3,u.push(l)}return String.fromCharCode.apply(String,u)}(u=(u=atob(u)).replace(/[\x41-\x5A]/g,""),n,r),u=JSON.parse(u)}}var vt=[{key:"alternate",def:!1},{key:"fill",def:1},{key:"iterations",def:0},{key:"direction",def:1},{key:"speed",def:1},{key:"fps",def:100}],yt=function(){function t(n,e){var i=this,u=arguments.length>2&&void 0!==arguments[2]?arguments[2]:null;r(this,t),this._id=0,this._running=!1,this._rollingBack=!1,this._animations=n,this._settings=e,(!u||u<"2022-05-02")&&delete this._settings.speed,vt.forEach((function(t){i._settings[t.key]=i._settings[t.key]||t.def})),this.duration=e.duration,this.offset=e.offset||0,this.rollbackStartOffset=0}return u(t,[{key:"alternate",get:function(){return this._settings.alternate}},{key:"fill",get:function(){return this._settings.fill}},{key:"iterations",get:function(){return this._settings.iterations}},{key:"direction",get:function(){return this._settings.direction}},{key:"speed",get:function(){return this._settings.speed}},{key:"fps",get:function(){return this._settings.fps}},{key:"maxFiniteDuration",get:function(){return this.iterations>0?this.iterations*this.duration:this.duration}},{key:"_apply",value:function(t){for(var n=arguments.length>1&&void 0!==arguments[1]?arguments[1]:{},e=this._animations,r=e.length,i=0,u=0;u<r;u++)n[u]?i++:(n[u]=e[u](t,1),n[u]&&i++);return i}},{key:"_rollback",value:function(t){var n=this,e=1/0,r=null;this.rollbackStartOffset=t,this._rollingBack=!0,this._running=!0;this._id=window.requestAnimationFrame((function i(u){if(n._rollingBack){null==r&&(r=u);var o=Math.round(t-(u-r)*n.speed);if(o>n.duration&&e!==1/0){var a=!!n.alternate&&o/n.duration%2>1,l=o%n.duration;o=(l+=a?n.duration:0)||n.duration}var s=(n.fps?1e3/n.fps:0)*n.speed,f=Math.max(0,o);f<=e-s&&(n.offset=f,e=f,n._apply(f));var c=n.iterations>0&&-1===n.fill&&o>=n.maxFiniteDuration;(o<=0||n.offset<o||c)&&n.stop(),n._id=window.requestAnimationFrame(i)}}))}},{key:"_start",value:function(){var t=this,n=arguments.length>0&&void 0!==arguments[0]?arguments[0]:0,e=-1/0,r=null,i={};this._running=!0;var u=function u(o){null==r&&(r=o);var a=Math.round((o-r)*t.speed+n),l=(t.fps?1e3/t.fps:0)*t.speed;if(a>=e+l&&!t._rollingBack&&(t.offset=a,e=a,t._apply(a,i)===t._animations.length))return void t.pause(!0);t._id=window.requestAnimationFrame(u)};this._id=window.requestAnimationFrame(u)}},{key:"_pause",value:function(){this._id&&window.cancelAnimationFrame(this._id),this._running=!1}},{key:"play",value:function(){if(!this._running)return this._rollingBack?this._rollback(this.offset):this._start(this.offset)}},{key:"stop",value:function(){this._pause(),this.offset=0,this.rollbackStartOffset=0,this._rollingBack=!1,this._apply(0)}},{key:"reachedToEnd",value:function(){return this.iterations>0&&this.offset>=this.iterations*this.duration}},{key:"restart",value:function(){var t=arguments.length>0&&void 0!==arguments[0]&&arguments[0];this.stop(t),this.play(t)}},{key:"pause",value:function(){this._pause()}},{key:"reverse",value:function(){this.direction=-this.direction}}],[{key:"build",value:function(t,n){delete t.animationSettings,t.options=ht(t.options,t.root,"5c7f360c"),t.animations.map((function(n){n.settings=ht(n.s,t.root,"5c7f360c"),delete n.s,t.animationSettings||(t.animationSettings=n.settings)}));var e=t.version;if(!(t=lt(t,n)))return null;var r=t.options||{},i=new this(t.animations,t.animationSettings,e);return{el:t.svg,options:r,player:i}}},{key:"push",value:function(t){return this.build(t)}},{key:"init",value:function(){var t=this,n=window.__SVGATOR_PLAYER__&&window.__SVGATOR_PLAYER__["5c7f360c"];Array.isArray(n)&&n.splice(0).forEach((function(n){return t.build(n)}))}}]),t}();function gt(t){return d(t)+""}function pt(t){var n=arguments.length>1&&void 0!==arguments[1]?arguments[1]:" ";return t&&t.length?t.map(gt).join(n):""}function dt(t){return t?null==t.a||t.a>=1?function(t){if(!t)return"transparent";var n=function(t){return parseInt(t).toString(16).padStart(2,"0")};return function(t){for(var n=[],e="#"===t[0]?n.push("#"):0;e<t.length;e+=2){if(t[e]!==t[e+1])return t;n.push(t[e])}return n.join("")}("#"+n(t.r)+n(t.g)+n(t.b)+(null==t.a||t.a>=1?"":n(255*t.a)))}(t):"rgba("+t.r+","+t.g+","+t.b+","+t.a+")":"transparent"}function mt(t){return t?"url(#"+t+")":"none"}!function(){for(var t=0,n=["ms","moz","webkit","o"],e=0;e<n.length&&!window.requestAnimationFrame;++e)window.requestAnimationFrame=window[n[e]+"RequestAnimationFrame"],window.cancelAnimationFrame=window[n[e]+"CancelAnimationFrame"]||window[n[e]+"CancelRequestAnimationFrame"];window.requestAnimationFrame||(window.requestAnimationFrame=function(n){var e=Date.now(),r=Math.max(0,16-(e-t)),i=window.setTimeout((function(){n(e+r)}),r);return t=e+r,i},window.cancelAnimationFrame=window.clearTimeout)}();var bt={f:null,i:function(t,n,e){return 0===t?n:1===t?e:{x:L(t,n.x,e.x),y:L(t,n.y,e.y)}},u:function(t,n){return function(e){var r=n(e);t.setAttribute("rx",gt(r.x)),t.setAttribute("ry",gt(r.y))}}},wt={f:null,i:function(t,n,e){return 0===t?n:1===t?e:{width:L(t,n.width,e.width),height:L(t,n.height,e.height)}},u:function(t,n){return function(e){var r=n(e);t.setAttribute("width",gt(r.width)),t.setAttribute("height",gt(r.height))}}};Object.freeze({M:2,L:2,Z:0,H:1,V:1,C:6,Q:4,T:2,S:4,A:7});var xt={},_t=null;function At(t){var n=function(){if(_t)return _t;if("object"!==("undefined"==typeof document?"undefined":e(document))||!document.createElementNS)return{};var t=document.createElementNS("http://www.w3.org/2000/svg","svg");return t&&t.style?(t.style.position="absolute",t.style.opacity="0.01",t.style.zIndex="-9999",t.style.left="-9999px",t.style.width="1px",t.style.height="1px",_t={svg:t}):{}}().svg;if(!n)return function(t){return null};var r=document.createElementNS(n.namespaceURI,"path");r.setAttributeNS(null,"d",t),r.setAttributeNS(null,"fill","none"),r.setAttributeNS(null,"stroke","none"),n.appendChild(r);var i=r.getTotalLength();return function(t){var n=r.getPointAtLength(i*t);return{x:n.x,y:n.y}}}function kt(t){return xt[t]?xt[t]:xt[t]=At(t)}function St(t,n,e,r){if(!t||!r)return!1;var i=["M",t.x,t.y];if(n&&e&&(i.push("C"),i.push(n.x),i.push(n.y),i.push(e.x),i.push(e.y)),n?!e:e){var u=n||e;i.push("Q"),i.push(u.x),i.push(u.y)}return n||e||i.push("L"),i.push(r.x),i.push(r.y),i.join(" ")}function Ot(t,n,e,r){var i=arguments.length>4&&void 0!==arguments[4]?arguments[4]:1,u=St(t,n,e,r),o=kt(u);try{return o(i)}catch(t){return null}}function jt(t,n,e){return t+(n-t)*e}function Mt(t,n,e){var r=arguments.length>3&&void 0!==arguments[3]&&arguments[3],i={x:jt(t.x,n.x,e),y:jt(t.y,n.y,e)};return r&&(i.a=Et(t,n)),i}function Et(t,n){return Math.atan2(n.y-t.y,n.x-t.x)}function Pt(t,n,e,r){var i=1-r;return i*i*t+2*i*r*n+r*r*e}function It(t,n,e,r){return 2*(1-r)*(n-t)+2*r*(e-n)}function Rt(t,n,e,r){var i=arguments.length>4&&void 0!==arguments[4]&&arguments[4],u=Ot(t,n,null,e,r);return u||(u={x:Pt(t.x,n.x,e.x,r),y:Pt(t.y,n.y,e.y,r)}),i&&(u.a=Ft(t,n,e,r)),u}function Ft(t,n,e,r){return Math.atan2(It(t.y,n.y,e.y,r),It(t.x,n.x,e.x,r))}function Nt(t,n,e,r,i){var u=i*i;return i*u*(r-t+3*(n-e))+3*u*(t+e-2*n)+3*i*(n-t)+t}function Tt(t,n,e,r,i){var u=1-i;return 3*(u*u*(n-t)+2*u*i*(e-n)+i*i*(r-e))}function qt(t,n,e,r,i){var u=arguments.length>5&&void 0!==arguments[5]&&arguments[5],o=Ot(t,n,e,r,i);return o||(o={x:Nt(t.x,n.x,e.x,r.x,i),y:Nt(t.y,n.y,e.y,r.y,i)}),u&&(o.a=Bt(t,n,e,r,i)),o}function Bt(t,n,e,r,i){return Math.atan2(Tt(t.y,n.y,e.y,r.y,i),Tt(t.x,n.x,e.x,r.x,i))}function Dt(t,n,e){var r=arguments.length>3&&void 0!==arguments[3]&&arguments[3];if(Ct(n)){if(Vt(e))return Rt(n,e.start,e,t,r)}else if(Ct(e)){if(Gt(n))return Rt(n,n.end,e,t,r)}else{if(Gt(n))return Vt(e)?qt(n,n.end,e.start,e,t,r):Rt(n,n.end,e,t,r);if(Vt(e))return Rt(n,e.start,e,t,r)}return Mt(n,e,t,r)}function Lt(t,n,e){var r=Dt(t,n,e,!0);return r.a=x(function(t){return arguments.length>1&&void 0!==arguments[1]&&arguments[1]?t+Math.PI:t}(r.a)),r}function Ct(t){return!t.type||"corner"===t.type}function Vt(t){return null!=t.start&&!Ct(t)}function Gt(t){return null!=t.end&&!Ct(t)}var zt=new T;var Yt={f:gt,i:D},$t={f:gt,i:C};function Ut(t,n,e){return t.map((function(t){return function(t,n,e){var r=t.v;if(!r||"g"!==r.t||r.s||!r.v||!r.r)return t;var i=e.getElementById(r.r),u=i&&i.querySelectorAll("stop")||[];return r.s=r.v.map((function(t,n){var e=u[n]&&u[n].getAttribute("offset");return{c:t,o:e=d(parseInt(e)/100)}})),delete r.v,t}(t,0,e)}))}var Qt={gt:"gradientTransform",c:{x:"cx",y:"cy"},rd:"r",f:{x:"x1",y:"y1"},to:{x:"x2",y:"y2"}};function Ht(t,n,r,i,u,o,a,l){return Ut(t,0,l),n=function(t,n,e){for(var r,i,u,o=t.length-1,a={},l=0;l<=o;l++)(r=t[l]).e&&(r.e=n(r.e)),r.v&&"g"===(i=r.v).t&&i.r&&(u=e.getElementById(i.r))&&(a[i.r]={e:u,s:u.querySelectorAll("stop")});return a}(t,i,l),function(i){var u=r(i,t,Jt);if(!u)return"none";if("c"===u.t)return dt(u.v);if("g"===u.t){if(!n[u.r])return mt(u.r);var o=n[u.r];return function(t,n){for(var e=t.s,r=e.length;r<n.length;r++){var i=e[e.length-1].cloneNode();i.id=Wt(i.id),t.e.appendChild(i),e=t.s=t.e.querySelectorAll("stop")}for(var u=0,o=e.length,a=n.length-1;u<o;u++)e[u].setAttribute("stop-color",dt(n[Math.min(u,a)].c)),e[u].setAttribute("offset",n[Math.min(u,a)].o)}(o,u.s),Object.keys(Qt).forEach((function(t){if(void 0!==u[t])if("object"!==e(Qt[t])){var n,r="gt"===t?(n=u[t],Array.isArray(n)?"matrix("+n.join(" ")+")":""):u[t],i=Qt[t];o.e.setAttribute(i,r)}else Object.keys(Qt[t]).forEach((function(n){if(void 0!==u[t][n]){var e=u[t][n],r=Qt[t][n];o.e.setAttribute(r,e)}}))})),mt(u.r)}return"none"}}function Jt(t,e,r){if(0===t)return e;if(1===t)return r;if(e&&r){var i=e.t;if(i===r.t)switch(e.t){case"c":return{t:i,v:z(t,e.v,r.v)};case"g":if(e.r===r.r){var u={t:i,s:Zt(t,e.s,r.s),r:e.r};return e.gt&&r.gt&&(u.gt=function(t,n,e){var r=n.length;if(r!==e.length)return B(t,n,e);for(var i=new Array(r),u=0;u<r;u++)i[u]=D(t,n[u],e[u]);return i}(t,e.gt,r.gt)),e.c?(u.c=V(t,e.c,r.c),u.rd=L(t,e.rd,r.rd)):e.f&&(u.f=V(t,e.f,r.f),u.to=V(t,e.to,r.to)),u}}if("c"===e.t&&"g"===r.t||"c"===r.t&&"g"===e.t){var o="c"===e.t?e:r,a="g"===e.t?n({},e):n({},r),l=a.s.map((function(t){return{c:o.v,o:t.o}}));return a.s="c"===e.t?Zt(t,l,a.s):Zt(t,a.s,l),a}}return B(t,e,r)}function Zt(t,n,e){if(n.length===e.length)return n.map((function(n,r){return Kt(t,n,e[r])}));for(var r=Math.max(n.length,e.length),i=[],u=0;u<r;u++){var o=Kt(t,n[Math.min(u,n.length-1)],e[Math.min(u,e.length-1)]);i.push(o)}return i}function Kt(t,n,e){return{o:C(t,n.o,e.o||0),c:z(t,n.c,e.c||{})}}function Wt(t){return t.replace(/-fill-([0-9]+)$/,(function(t,n){return"-fill-"+(+n+1)}))}var Xt={fill:Ht,"fill-opacity":$t,stroke:Ht,"stroke-opacity":$t,"stroke-width":Yt,"stroke-dashoffset":{f:gt,i:D},"stroke-dasharray":{f:function(t){var n=arguments.length>1&&void 0!==arguments[1]?arguments[1]:" ";return t&&t.length>0&&(t=t.map((function(t){return d(t,4)}))),pt(t,n)},i:function(t,n,e){var r,i,u,o=n.length,a=e.length;if(o!==a)if(0===o)n=Y(o=a,0);else if(0===a)a=o,e=Y(o,0);else{var l=(u=(r=o)*(i=a)/function(t,n){for(var e;n;)e=n,n=t%n,t=e;return t||1}(r,i))<0?-u:u;n=$(n,Math.floor(l/o)),e=$(e,Math.floor(l/a)),o=a=l}for(var s=[],f=0;f<o;f++)s.push(d(L(t,n[f],e[f])));return s}},opacity:$t,transform:function(t,n,r,i){if(!(t=function(t,n){if(!t||"object"!==e(t))return null;var r=!1;for(var i in t)t.hasOwnProperty(i)&&(t[i]&&t[i].length?(t[i].forEach((function(t){t.e&&(t.e=n(t.e))})),r=!0):delete t[i]);return r?t:null}(t,i)))return null;var u=function(e,i,u){var o=arguments.length>3&&void 0!==arguments[3]?arguments[3]:null;return t[e]?r(i,t[e],u):n&&n[e]?n[e]:o};return n&&n.a&&t.o?function(n){var e=r(n,t.o,Lt);return zt.recomposeSelf(e,u("r",n,D,0)+e.a,u("k",n,V),u("s",n,V),u("t",n,V)).toString()}:function(t){return zt.recomposeSelf(u("o",t,Dt,null),u("r",t,D,0),u("k",t,V),u("s",t,V),u("t",t,V)).toString()}},r:Yt,"#size":wt,"#radius":bt,_:function(t,n){if(Array.isArray(t))for(var e=0;e<t.length;e++)this[t[e]]=n;else this[t]=n}},tn=function(t){!function(t,n){if("function"!=typeof n&&null!==n)throw new TypeError("Super expression must either be null or a function");t.prototype=Object.create(n&&n.prototype,{constructor:{value:t,writable:!0,configurable:!0}}),n&&l(t,n)}(o,t);var n,e,i=(n=o,e=s(),function(){var t,r=a(n);if(e){var i=a(this).constructor;t=Reflect.construct(r,arguments,i)}else t=r.apply(this,arguments);return c(this,t)});function o(){return r(this,o),i.apply(this,arguments)}return u(o,null,[{key:"build",value:function(t){var n=h(a(o),"build",this).call(this,t,Xt);if(!n)return null;n.el,n.options,function(t,n,e){t.play()}(n.player)}}]),o}(yt);return tn.init(),tn}));
(function(s,i,o,w,d,a,b){w[o]=w[o]||{};w[o][s]=w[o][s]||[];w[o][s].push(i);})('5c7f360c',{"root":"ebTx7AQO6FI1","version":"2022-05-04","animations":[{"elements":{"ebTx7AQO6FI2":{"transform":{"data":{"o":{"x":500,"y":461.299988,"type":"corner"},"t":{"x":0,"y":0.000012}},"keys":{"s":[{"t":0,"v":{"x":0.5,"y":0.5}},{"t":1500,"v":{"x":1,"y":1}},{"t":3000,"v":{"x":0.5,"y":0.5}}]}},"opacity":[{"t":0,"v":0.15,"e":[0.42,0,1,1]},{"t":1500,"v":0.75,"e":[0.439432,0.085662,1,1]},{"t":2930,"v":0.15},{"t":3000,"v":0.75,"e":[0.439432,0.085662,1,1]}]}},"s":"MADA1ZGQ5ODBjMmQzZDEBiZmQyYzdjZGNjODAO5ODkxWThlOGU4ZThhGODBjMmM3ZDBjM0xjMGWQyYzdjZGNjODA5ODJhmOGFCODBjN2QyYzNJkMGJmZDJjN2NkY2NkOMTgwTTk4OGU4YTgwYEzRjN2NhY2FZODA5ODOhmOGE4MGJmY2FkMmMGzZDBjY2JmZDJjMzgwLOThjNGJmY2FkMWMzOTGE4MGQxY2VjM1BjM2IMyODA5ODhmOGE4MGMC0Y2VkMTgwOTg4ZkM4CZThlZGI/"}],"options":"MBDAxMDg4MmY4MDgxNmPU3ZkY4MTJmNDcyZjcB5N2M2ZTcxMmY4YQ|"},'__SVGATOR_PLAYER__',window,document)
]]></script>
</svg>
