<svg xmlns="http://www.w3.org/2000/svg" viewBox="8.773128744287161 6.7731287442871615 45.22687125571284 50.44653715823994" width="2087" height="2500"><path fill="#185c37" d="M21.744 57H11.256A2.256 2.256 0 0 1 9 54.744V31.25l7.917-2.333L24 31.25v23.494A2.256 2.256 0 0 1 21.744 57z"/><path fill="#33c481" d="M38 7h13.67A2.33 2.33 0 0 1 54 9.33v27.34A2.33 2.33 0 0 1 51.67 39H38l-2.667-17.083z"/><path fill="#107c41" d="M9 9.33V32h15v16h12.67A2.33 2.33 0 0 0 39 45.67V7H11.33A2.33 2.33 0 0 0 9 9.33z"/><path fill="#21a366" d="M24 7h15v17H24z"/></svg>