<?xml version="1.0" encoding="UTF-8"?>
<!DOCTYPE svg PUBLIC "-//W3C//DTD SVG 1.1//EN" "http://www.w3.org/Graphics/SVG/1.1/DTD/svg11.dtd">
<svg xmlns="http://www.w3.org/2000/svg" version="1.1" width="1959px" height="2301px" style="shape-rendering:geometricPrecision; text-rendering:geometricPrecision; image-rendering:optimizeQuality; fill-rule:evenodd; clip-rule:evenodd" xmlns:xlink="http://www.w3.org/1999/xlink">
<g><path style="opacity:0.349" fill="#f99d34" d="M 936.5,-0.5 C 964.833,-0.5 993.167,-0.5 1021.5,-0.5C 1286.57,15.1426 1510.74,118.143 1694,308.5C 1859.36,488.337 1947.53,701.004 1958.5,946.5C 1958.5,967.833 1958.5,989.167 1958.5,1010.5C 1947.23,1259.94 1856.73,1475.27 1687,1656.5C 1582.95,1764.48 1460.45,1844.81 1319.5,1897.5C 1318.17,1698 1318.17,1498.33 1319.5,1298.5C 1328.41,1294.54 1337.41,1290.88 1346.5,1287.5C 1346.17,1246.16 1346.5,1204.83 1347.5,1163.5C 1372.83,1148.83 1398.17,1134.17 1423.5,1119.5C 1424.67,940.834 1424.83,762.168 1424,583.5C 1261.48,489.241 1098.81,395.241 936,301.5C 773.598,395.286 611.098,488.953 448.5,582.5C 447.167,761.5 447.167,940.5 448.5,1119.5C 474.833,1134.83 501.167,1150.17 527.5,1165.5C 528.333,1202.83 528.833,1240.16 529,1277.5C 541.651,1284.58 554.484,1291.24 567.5,1297.5C 567.5,1487.5 567.5,1677.5 567.5,1867.5C 567.5,1867.83 567.5,1868.17 567.5,1868.5C 381.902,1781.07 236.735,1649.07 132,1472.5C 51.2961,1332.55 7.1294,1181.89 -0.5,1020.5C -0.5,992.833 -0.5,965.167 -0.5,937.5C 14.9148,669.165 119.582,442.999 313.5,259C 489.833,99.2236 697.5,12.7236 936.5,-0.5 Z"/></g>
<g><path style="opacity:1" fill="#020100" d="M 1319.5,1897.5 C 1319.67,1968.83 1319.5,2040.17 1319,2111.5C 1309.27,2150.44 1288.77,2182.61 1257.5,2208C 1224.8,2233.36 1188.8,2253.02 1149.5,2267C 1088.7,2287.46 1026.37,2298.63 962.5,2300.5C 949.5,2300.5 936.5,2300.5 923.5,2300.5C 847.689,2298.64 774.689,2283.14 704.5,2254C 665.678,2237.17 631.845,2213.33 603,2182.5C 587.128,2163.76 576.295,2142.42 570.5,2118.5C 569.5,2118.5 568.5,2118.5 567.5,2118.5C 567.5,2035.17 567.5,1951.83 567.5,1868.5C 567.5,1868.17 567.5,1867.83 567.5,1867.5C 567.835,1677.96 568.835,1488.46 570.5,1299C 569.473,1298.49 568.473,1297.99 567.5,1297.5C 554.484,1291.24 541.651,1284.58 529,1277.5C 528.833,1240.16 528.333,1202.83 527.5,1165.5C 501.167,1150.17 474.833,1134.83 448.5,1119.5C 447.167,940.5 447.167,761.5 448.5,582.5C 611.098,488.953 773.598,395.286 936,301.5C 1098.81,395.241 1261.48,489.241 1424,583.5C 1424.83,762.168 1424.67,940.834 1423.5,1119.5C 1398.17,1134.17 1372.83,1148.83 1347.5,1163.5C 1346.5,1204.83 1346.17,1246.16 1346.5,1287.5C 1337.41,1290.88 1328.41,1294.54 1319.5,1298.5C 1318.17,1498.33 1318.17,1698 1319.5,1897.5 Z"/></g>
<g><path style="opacity:1" fill="#f17d00" d="M 1110.5,912.5 C 990.5,913.833 870.5,913.833 750.5,912.5C 811.842,723.308 873.675,534.308 936,345.5C 994.476,534.428 1052.64,723.428 1110.5,912.5 Z"/></g>
<g><path style="opacity:1" fill="#df6f00" d="M 956.5,349.5 C 956.897,348.475 957.563,348.308 958.5,349C 1102.5,493 1246.5,637 1390.5,781C 1316.5,823.667 1242.5,866.333 1168.5,909C 1155.5,909.5 1142.5,909.667 1129.5,909.5C 1072.61,722.502 1014.94,535.836 956.5,349.5 Z"/></g>
<g><path style="opacity:1" fill="#f99d34" d="M 912.5,349.5 C 913.097,349.735 913.43,350.235 913.5,351C 852.321,537.036 791.654,723.203 731.5,909.5C 721.828,909.666 712.161,909.5 702.5,909C 628.997,866.081 555.33,823.414 481.5,781C 625.368,637.299 769.035,493.465 912.5,349.5 Z"/></g>
<g><path style="opacity:1" fill="#fe9c44" d="M 869.5,362.5 C 870.239,362.369 870.906,362.536 871.5,363C 737,497.5 602.5,632 468,766.5C 467.167,709.164 467.333,651.83 468.5,594.5C 602.393,517.392 736.06,440.059 869.5,362.5 Z"/></g>
<g><path style="opacity:1" fill="#da6c00" d="M 1404.5,595.5 C 1404.83,652.669 1404.5,709.669 1403.5,766.5C 1267.73,631.228 1132.06,495.728 996.5,360C 1132.87,437.691 1268.87,516.191 1404.5,595.5 Z"/></g>
<g><path style="opacity:1" fill="#371b00" d="M 1404.5,595.5 C 1405.83,652.668 1405.83,710.001 1404.5,767.5C 1403.89,767.376 1403.56,767.043 1403.5,766.5C 1404.5,709.669 1404.83,652.669 1404.5,595.5 Z"/></g>
<g><path style="opacity:1" fill="#bb7e3b" d="M 500.5,815.5 C 566.394,852.452 632.061,889.952 697.5,928C 705.827,928.5 714.16,928.666 722.5,928.5C 722.5,1033.83 722.5,1139.17 722.5,1244.5C 715.385,1244.92 708.385,1244.42 701.5,1243C 634.997,1204.25 568.33,1165.75 501.5,1127.5C 500.5,1023.5 500.167,919.502 500.5,815.5 Z"/></g>
<g><path style="opacity:1" fill="#bb7e3b" d="M 1369.5,815.5 C 1370.5,918.999 1370.83,1022.67 1370.5,1126.5C 1303.39,1165.89 1236.06,1205.06 1168.5,1244C 1157.59,1244.82 1146.76,1244.65 1136,1243.5C 1135.33,1138.83 1135.33,1034.17 1136,929.5C 1148.76,928.677 1161.59,928.177 1174.5,928C 1239.53,890.488 1304.53,852.988 1369.5,815.5 Z"/></g>
<g><path style="opacity:0.922" fill="#714c22" d="M 1369.5,815.5 C 1369.56,814.957 1369.89,814.624 1370.5,814.5C 1371.83,918.666 1371.83,1022.67 1370.5,1126.5C 1370.83,1022.67 1370.5,918.999 1369.5,815.5 Z"/></g>
<g><path style="opacity:1" fill="#93551c" d="M 671.5,1013.5 C 626.663,1039.42 581.663,1065.09 536.5,1090.5C 534.527,1051.03 537.027,1011.69 544,972.5C 547.439,953.966 554.439,936.966 565,921.5C 573.269,911.618 583.769,907.784 596.5,910C 610.377,913.894 622.21,921.06 632,931.5C 652.381,955.266 665.548,982.599 671.5,1013.5 Z"/></g>
<g><path style="opacity:1" fill="#93551c" d="M 1334.5,1090.5 C 1289.66,1064.58 1244.66,1038.91 1199.5,1013.5C 1205.24,986.027 1216.41,961.027 1233,938.5C 1242.61,927.123 1254.11,918.29 1267.5,912C 1286.32,906.053 1300.82,911.553 1311,928.5C 1321.69,949.255 1328.35,971.255 1331,994.5C 1335.02,1026.56 1336.18,1058.56 1334.5,1090.5 Z"/></g>
<g><path style="opacity:1" fill="#d27714" d="M 750.5,912.5 C 870.5,913.833 990.5,913.833 1110.5,912.5C 1111.04,912.56 1111.38,912.893 1111.5,913.5C 990.833,914.833 870.167,914.833 749.5,913.5C 749.624,912.893 749.957,912.56 750.5,912.5 Z"/></g>
<g><path style="opacity:1" fill="#bb7e3b" d="M 766.5,924.5 C 875.167,924.5 983.833,924.5 1092.5,924.5C 1092.5,1031.17 1092.5,1137.83 1092.5,1244.5C 983.833,1244.5 875.167,1244.5 766.5,1244.5C 766.5,1137.83 766.5,1031.17 766.5,924.5 Z"/></g>
<g><path style="opacity:1" fill="#93551c" d="M 1070.5,1196.5 C 1044.67,1152.15 1013.33,1111.98 976.5,1076C 967.422,1067.94 957.088,1061.94 945.5,1058C 939.747,1057.15 934.08,1057.48 928.5,1059C 911.628,1067.87 897.128,1079.7 885,1094.5C 859.11,1126.23 836.61,1160.23 817.5,1196.5C 814.755,1151.08 820.922,1106.75 836,1063.5C 846.024,1034.91 863.191,1011.75 887.5,994C 925.137,973.441 962.804,973.441 1000.5,994C 1016.47,1004.97 1029.31,1018.8 1039,1035.5C 1058.41,1073.82 1069.08,1114.48 1071,1157.5C 1071.83,1170.67 1071.66,1183.67 1070.5,1196.5 Z"/></g>
<g><path style="opacity:1" fill="#cf964f" d="M 671.5,1013.5 C 672.117,1013.61 672.617,1013.94 673,1014.5C 685.262,1068.49 690.095,1123.16 687.5,1178.5C 636.612,1149.9 586.278,1120.56 536.5,1090.5C 581.663,1065.09 626.663,1039.42 671.5,1013.5 Z"/></g>
<g><path style="opacity:1" fill="#cf964f" d="M 1199.5,1013.5 C 1244.66,1038.91 1289.66,1064.58 1334.5,1090.5C 1284.72,1120.56 1234.39,1149.9 1183.5,1178.5C 1181.54,1130.81 1184.71,1083.47 1193,1036.5C 1194.42,1028.49 1196.58,1020.82 1199.5,1013.5 Z"/></g>
<g><path style="opacity:1" fill="#cf964f" d="M 1070.5,1196.5 C 986.167,1197.83 901.833,1197.83 817.5,1196.5C 836.61,1160.23 859.11,1126.23 885,1094.5C 897.128,1079.7 911.628,1067.87 928.5,1059C 934.08,1057.48 939.747,1057.15 945.5,1058C 957.088,1061.94 967.422,1067.94 976.5,1076C 1013.33,1111.98 1044.67,1152.15 1070.5,1196.5 Z"/></g>
<g><path style="opacity:1" fill="#a4682c" d="M 1324.5,1175.5 C 1326.49,1208.15 1327.16,1241.15 1326.5,1274.5C 1247.08,1308.37 1167.75,1342.54 1088.5,1377C 977.833,1377.67 867.167,1377.67 756.5,1377C 687.333,1339.83 618.167,1302.67 549,1265.5C 548.167,1236.16 548.333,1206.83 549.5,1177.5C 599.167,1206 648.833,1234.5 698.5,1263C 856.833,1263.67 1015.17,1263.67 1173.5,1263C 1224,1233.97 1274.34,1204.8 1324.5,1175.5 Z"/></g>
<g><path style="opacity:0.839" fill="#191005" d="M 567.5,1297.5 C 568.473,1297.99 569.473,1298.49 570.5,1299C 568.835,1488.46 567.835,1677.96 567.5,1867.5C 567.5,1677.5 567.5,1487.5 567.5,1297.5 Z"/></g>
<g><path style="opacity:0.922" fill="#896b47" d="M 1296.5,1308.5 C 1297.21,1307.6 1298.21,1307.26 1299.5,1307.5C 1299.83,1571 1299.5,1834.33 1298.5,2097.5C 1299.17,1834.16 1298.5,1571.16 1296.5,1308.5 Z"/></g>
<g><path style="opacity:1" fill="#e7b77d" d="M 1155.5,1369.5 C 1155.08,1376.28 1155.58,1382.95 1157,1389.5C 1160.35,1391.97 1163.85,1392.14 1167.5,1390C 1187.5,1378.67 1207.5,1367.33 1227.5,1356C 1228.33,1355.17 1229.17,1354.33 1230,1353.5C 1230.82,1347.98 1230.65,1342.65 1229.5,1337.5C 1251.65,1327.6 1273.98,1317.93 1296.5,1308.5C 1298.5,1571.16 1299.17,1834.16 1298.5,2097.5C 1297.38,2117.02 1291.55,2135.02 1281,2151.5C 1263.32,2177.18 1241.15,2198.02 1214.5,2214C 1172.12,2238.8 1126.79,2256.13 1078.5,2266C 972.894,2288.22 868.227,2284.56 764.5,2255C 716.187,2240.85 672.853,2217.85 634.5,2186C 611.28,2165.73 596.113,2140.57 589,2110.5C 587.341,1843.19 587.008,1575.85 588,1308.5C 642.754,1338.13 697.587,1367.63 752.5,1397C 865.5,1397.67 978.5,1397.67 1091.5,1397C 1112.74,1387.55 1134.07,1378.38 1155.5,1369.5 Z"/></g>
<g><path style="opacity:1" fill="#d09851" d="M 1229.5,1337.5 C 1230.65,1342.65 1230.82,1347.98 1230,1353.5C 1229.17,1354.33 1228.33,1355.17 1227.5,1356C 1207.5,1367.33 1187.5,1378.67 1167.5,1390C 1163.85,1392.14 1160.35,1391.97 1157,1389.5C 1155.58,1382.95 1155.08,1376.28 1155.5,1369.5C 1157.71,1368.23 1160.05,1367.23 1162.5,1366.5C 1162.17,1372.54 1162.5,1378.54 1163.5,1384.5C 1183.5,1373.17 1203.5,1361.83 1223.5,1350.5C 1224.49,1346.89 1224.82,1343.23 1224.5,1339.5C 1226.05,1338.56 1227.72,1337.89 1229.5,1337.5 Z"/></g>
<g><path style="opacity:1" fill="#e4b57c" d="M 1224.5,1339.5 C 1224.82,1343.23 1224.49,1346.89 1223.5,1350.5C 1203.5,1361.83 1183.5,1373.17 1163.5,1384.5C 1162.5,1378.54 1162.17,1372.54 1162.5,1366.5C 1182.92,1357.13 1203.59,1348.13 1224.5,1339.5 Z"/></g>
<g><path style="opacity:1" fill="#d09751" d="M 952.5,1460.5 C 984.921,1460.01 1017.25,1460.51 1049.5,1462C 1050.7,1462.9 1051.53,1464.07 1052,1465.5C 1052.96,1478.26 1052.63,1490.93 1051,1503.5C 1049.68,1505.49 1047.85,1506.65 1045.5,1507C 1032.84,1507.5 1020.17,1507.67 1007.5,1507.5C 1007.67,1518.51 1007.5,1529.51 1007,1540.5C 1005.83,1543 1004,1544.83 1001.5,1546C 970.167,1546.67 938.833,1546.67 907.5,1546C 905,1544.83 903.167,1543 902,1540.5C 901.041,1528.07 901.374,1515.74 903,1503.5C 904.214,1501.95 905.714,1500.78 907.5,1500C 920.496,1499.5 933.496,1499.33 946.5,1499.5C 946.333,1488.83 946.5,1478.16 947,1467.5C 947.967,1464.38 949.8,1462.05 952.5,1460.5 Z"/></g>
<g><path style="opacity:1" fill="#e7b77d" d="M 955.5,1467.5 C 985.169,1467.33 1014.84,1467.5 1044.5,1468C 1045.65,1478.09 1045.82,1488.26 1045,1498.5C 1015.24,1499.66 985.405,1499.83 955.5,1499C 954.178,1488.5 954.178,1478 955.5,1467.5 Z"/></g>
<g><path style="opacity:1" fill="#d09851" d="M 1263.5,1480.5 C 1267.03,1480.35 1269.86,1481.68 1272,1484.5C 1272.67,1496.5 1272.67,1508.5 1272,1520.5C 1271.53,1521.93 1270.7,1523.1 1269.5,1524C 1261.92,1528.04 1254.42,1532.21 1247,1536.5C 1246.67,1549.17 1246.33,1561.83 1246,1574.5C 1241.92,1577.46 1237.75,1580.29 1233.5,1583C 1216.51,1591.83 1199.84,1601.16 1183.5,1611C 1178.72,1613.66 1174.89,1612.83 1172,1608.5C 1171.33,1596.83 1171.33,1585.17 1172,1573.5C 1172.47,1572.07 1173.3,1570.9 1174.5,1570C 1181.96,1566.03 1189.3,1561.87 1196.5,1557.5C 1197.33,1544.85 1197.83,1532.18 1198,1519.5C 1199.56,1517.64 1201.39,1516.14 1203.5,1515C 1223.73,1503.73 1243.73,1492.23 1263.5,1480.5 Z"/></g>
<g><path style="opacity:1" fill="#e7b77d" d="M 1263.5,1487.5 C 1264.83,1492.29 1265.49,1497.45 1265.5,1503C 1265.33,1508.17 1265.17,1513.33 1265,1518.5C 1245.02,1529.8 1225.02,1541.13 1205,1552.5C 1203.45,1542.51 1203.29,1532.51 1204.5,1522.5C 1224.39,1511.06 1244.06,1499.39 1263.5,1487.5 Z"/></g>
<g><path style="opacity:1" fill="#e7b77d" d="M 909.5,1507.5 C 939.5,1507.5 969.5,1507.5 999.5,1507.5C 999.5,1517.83 999.5,1528.17 999.5,1538.5C 969.5,1538.5 939.5,1538.5 909.5,1538.5C 909.5,1528.17 909.5,1517.83 909.5,1507.5 Z"/></g>
<g><path style="opacity:1" fill="#e7b77d" d="M 1237.5,1541.5 C 1239.2,1543.31 1240.03,1545.64 1240,1548.5C 1240.67,1556.17 1240.67,1563.83 1240,1571.5C 1219.96,1583.03 1199.79,1594.37 1179.5,1605.5C 1178.33,1595.52 1178.17,1585.52 1179,1575.5C 1198.64,1564.27 1218.14,1552.93 1237.5,1541.5 Z"/></g>
<g><path style="opacity:1" fill="#d09851" d="M 666.5,1628.5 C 669.32,1628.25 671.986,1628.75 674.5,1630C 695.415,1642.04 716.249,1654.21 737,1666.5C 738.126,1672.56 738.626,1678.73 738.5,1685C 738.271,1691.55 738.104,1698.05 738,1704.5C 744.921,1709.05 752.088,1713.21 759.5,1717C 760.667,1718.17 761.833,1719.33 763,1720.5C 763.667,1732.5 763.667,1744.5 763,1756.5C 761.179,1759.99 758.346,1761.16 754.5,1760C 732.919,1747.96 711.419,1735.79 690,1723.5C 688.704,1710.59 688.037,1697.59 688,1684.5C 680.167,1680 672.333,1675.5 664.5,1671C 663.809,1669.93 663.309,1668.77 663,1667.5C 662.333,1655.83 662.333,1644.17 663,1632.5C 664.376,1631.29 665.542,1629.96 666.5,1628.5 Z"/></g>
<g><path style="opacity:1" fill="#e7b77d" d="M 669.5,1635.5 C 690.094,1646.91 710.594,1658.58 731,1670.5C 731.832,1680.52 731.666,1690.52 730.5,1700.5C 710.414,1689.04 690.248,1677.71 670,1666.5C 669.5,1656.17 669.334,1645.84 669.5,1635.5 Z"/></g>
<g><path style="opacity:1" fill="#e7b77d" d="M 695.5,1688.5 C 715.473,1699.82 735.473,1711.15 755.5,1722.5C 756.833,1732.83 756.833,1743.17 755.5,1753.5C 735.5,1742.17 715.5,1730.83 695.5,1719.5C 694.439,1709.17 694.439,1698.84 695.5,1688.5 Z"/></g>
<g><path style="opacity:1" fill="#d09851" d="M 929.5,1748.5 C 960.502,1748.33 991.502,1748.5 1022.5,1749C 1025,1750.17 1026.83,1752 1028,1754.5C 1028.67,1766.5 1028.67,1778.5 1028,1790.5C 1026.52,1793.66 1024.02,1795.5 1020.5,1796C 1006.84,1796.5 993.171,1796.67 979.5,1796.5C 979.667,1807.17 979.5,1817.84 979,1828.5C 977.5,1831.33 975.333,1833.5 972.5,1835C 941.5,1835.67 910.5,1835.67 879.5,1835C 877,1833.83 875.167,1832 874,1829.5C 873.04,1816.74 873.373,1804.07 875,1791.5C 875.903,1790.3 877.069,1789.47 878.5,1789C 893.496,1788.5 908.496,1788.33 923.5,1788.5C 923.333,1776.83 923.5,1765.16 924,1753.5C 925.73,1751.6 927.563,1749.93 929.5,1748.5 Z"/></g>
<g><path style="opacity:1" fill="#e7b77d" d="M 931.5,1756.5 C 961.169,1756.33 990.835,1756.5 1020.5,1757C 1021.65,1767.09 1021.82,1777.26 1021,1787.5C 991.238,1788.66 961.405,1788.83 931.5,1788C 930.178,1777.5 930.178,1767 931.5,1756.5 Z"/></g>
<g><path style="opacity:1" fill="#e7b77d" d="M 880.5,1796.5 C 910.833,1796.5 941.167,1796.5 971.5,1796.5C 971.819,1806.75 971.486,1816.92 970.5,1827C 940.833,1827.67 911.167,1827.67 881.5,1827C 880.514,1816.92 880.181,1806.75 880.5,1796.5 Z"/></g>
<g><path style="opacity:1" fill="#d09851" d="M 1220.5,1973.5 C 1224.29,1972.81 1227.45,1973.81 1230,1976.5C 1230.96,1989.6 1230.63,2002.6 1229,2015.5C 1207.83,2027.33 1186.67,2039.17 1165.5,2051C 1161.22,2052.46 1158.05,2051.29 1156,2047.5C 1155.04,2035.07 1155.37,2022.74 1157,2010.5C 1178.15,1998.01 1199.31,1985.68 1220.5,1973.5 Z"/></g>
<g><path style="opacity:1" fill="#e7b77d" d="M 1222.5,1979.5 C 1223.83,1984.46 1224.49,1989.79 1224.5,1995.5C 1224.17,2000.83 1223.83,2006.17 1223.5,2011.5C 1203.09,2022.45 1182.92,2033.79 1163,2045.5C 1162.33,2035.17 1162.33,2024.83 1163,2014.5C 1183.14,2003.19 1202.98,1991.52 1222.5,1979.5 Z"/></g>
<g><path style="opacity:1" fill="#d09851" d="M 650.5,2058.5 C 654.131,2058.16 657.464,2058.99 660.5,2061C 681.248,2072.79 701.748,2084.96 722,2097.5C 722.667,2109.5 722.667,2121.5 722,2133.5C 719.588,2136.79 716.421,2137.96 712.5,2137C 690.741,2124.9 669.241,2112.4 648,2099.5C 646.396,2087.57 646.063,2075.57 647,2063.5C 647.997,2061.68 649.164,2060.01 650.5,2058.5 Z"/></g>
<g><path style="opacity:1" fill="#e7b77d" d="M 653.5,2065.5 C 673.94,2076.56 694.274,2087.89 714.5,2099.5C 715.833,2109.83 715.833,2120.17 714.5,2130.5C 694.5,2119.17 674.5,2107.83 654.5,2096.5C 653.501,2086.19 653.168,2075.85 653.5,2065.5 Z"/></g>
<g><path style="opacity:1" fill="#d19852" d="M 937.5,2130.5 C 968.168,2130.33 998.835,2130.5 1029.5,2131C 1032.33,2132.5 1034.5,2134.67 1036,2137.5C 1036.67,2148.83 1036.67,2160.17 1036,2171.5C 1034.5,2174.33 1032.33,2176.5 1029.5,2178C 998.833,2178.67 968.167,2178.67 937.5,2178C 934.417,2177.21 932.251,2175.38 931,2172.5C 930.333,2160.5 930.333,2148.5 931,2136.5C 932.494,2133.69 934.66,2131.69 937.5,2130.5 Z"/></g>
<g><path style="opacity:1" fill="#e7b77d" d="M 938.5,2138.5 C 968.169,2138.33 997.835,2138.5 1027.5,2139C 1028.83,2149.33 1028.83,2159.67 1027.5,2170C 997.835,2170.5 968.169,2170.67 938.5,2170.5C 938.5,2159.83 938.5,2149.17 938.5,2138.5 Z"/></g>
</svg>
