<?xml version="1.0" encoding="UTF-8"?>
<svg xmlns="http://www.w3.org/2000/svg" xmlns:xlink="http://www.w3.org/1999/xlink" width="72px" height="72px" viewBox="0 0 72 72" version="1.1">
<defs>
<filter id="alpha" filterUnits="objectBoundingBox" x="0%" y="0%" width="100%" height="100%">
  <feColorMatrix type="matrix" in="SourceGraphic" values="0 0 0 0 1 0 0 0 0 1 0 0 0 0 1 0 0 0 1 0"/>
</filter>
<mask id="mask0">
  <g filter="url(#alpha)">
<rect x="0" y="0" width="72" height="72" style="fill:rgb(0%,0%,0%);fill-opacity:0.34902;stroke:none;"/>
  </g>
</mask>
<clipPath id="clip1">
  <rect x="0" y="0" width="72" height="72"/>
</clipPath>
<g id="surface5" clip-path="url(#clip1)">
<path style=" stroke:none;fill-rule:nonzero;fill:rgb(98.039216%,61.960784%,20.392157%);fill-opacity:1;" d="M 52.921875 33.214844 C 52.921875 42.558594 45.34375 50.132812 36 50.132812 C 26.65625 50.132812 19.078125 42.558594 19.078125 33.214844 C 19.078125 23.867188 26.65625 16.292969 36 16.292969 C 45.34375 16.292969 52.921875 23.867188 52.921875 33.214844 Z M 52.921875 33.214844 "/>
</g>
</defs>
<g id="surface1">
<use xlink:href="#surface5" mask="url(#mask0)"/>
<path style=" stroke:none;fill-rule:nonzero;fill:rgb(100%,100%,100%);fill-opacity:1;" d="M 43.113281 29.800781 L 40.558594 31.277344 L 39.269531 32.027344 L 38.621094 32.027344 L 35.625 22.320312 L 38.640625 32.097656 L 38.289062 32.097656 L 38.320312 32.183594 L 38.347656 32.269531 L 38.367188 32.328125 L 38.375 32.347656 L 39.371094 32.347656 L 39.40625 32.328125 L 42.78125 30.375 L 42.78125 30.183594 L 43.242188 29.914062 Z M 31.253906 32.097656 L 31.203125 32.183594 L 31.117188 32.328125 L 31.15625 32.347656 L 31.953125 32.347656 L 31.980469 32.269531 L 32.011719 32.183594 L 32.039062 32.097656 Z M 43.113281 29.800781 L 40.558594 31.277344 L 39.269531 32.027344 L 38.621094 32.027344 L 35.625 22.320312 L 38.640625 32.097656 L 38.289062 32.097656 L 38.320312 32.183594 L 38.347656 32.269531 L 38.367188 32.328125 L 38.375 32.347656 L 39.371094 32.347656 L 39.40625 32.328125 L 42.78125 30.375 L 42.78125 30.183594 L 43.242188 29.914062 Z M 31.253906 32.097656 L 31.203125 32.183594 L 31.117188 32.328125 L 31.15625 32.347656 L 31.953125 32.347656 L 31.980469 32.269531 L 32.011719 32.183594 L 32.039062 32.097656 Z M 43.113281 29.800781 L 40.558594 31.277344 L 39.269531 32.027344 L 38.621094 32.027344 L 35.625 22.320312 L 38.640625 32.097656 L 38.289062 32.097656 L 38.320312 32.183594 L 38.347656 32.269531 L 38.367188 32.328125 L 38.375 32.347656 L 39.371094 32.347656 L 39.40625 32.328125 L 42.78125 30.375 L 42.78125 30.183594 L 43.242188 29.914062 Z M 31.253906 32.097656 L 31.203125 32.183594 L 31.117188 32.328125 L 31.15625 32.347656 L 31.953125 32.347656 L 31.980469 32.269531 L 32.011719 32.183594 L 32.039062 32.097656 Z M 39.3125 32.191406 L 39.261719 32.105469 L 38.640625 32.105469 L 38.671875 32.191406 L 38.320312 32.191406 L 38.289062 32.105469 L 38.320312 32.191406 L 38.347656 32.277344 L 38.367188 32.335938 L 38.375 32.355469 L 39.371094 32.355469 L 39.40625 32.335938 Z M 31.253906 32.097656 L 31.203125 32.183594 L 31.117188 32.328125 L 31.15625 32.347656 L 31.953125 32.347656 L 31.980469 32.269531 L 32.011719 32.183594 L 32.039062 32.097656 Z M 39.3125 32.191406 L 39.261719 32.105469 L 38.640625 32.105469 L 38.671875 32.191406 L 38.320312 32.191406 L 38.289062 32.105469 L 38.320312 32.191406 L 38.347656 32.277344 L 38.367188 32.335938 L 38.375 32.355469 L 39.371094 32.355469 L 39.40625 32.335938 Z M 31.570312 32.191406 L 31.570312 32.363281 L 31.953125 32.363281 L 31.980469 32.285156 L 32.011719 32.199219 L 31.570312 32.199219 Z M 43.414062 29.621094 L 43.113281 29.792969 L 40.558594 31.269531 L 39.269531 32.019531 L 38.621094 32.019531 L 35.625 22.320312 L 35.554688 22.082031 L 35.410156 21.628906 L 35.402344 21.605469 L 35.367188 21.585938 L 35.257812 21.527344 L 35.152344 21.585938 L 35.113281 21.605469 L 35.105469 21.628906 L 34.957031 22.089844 L 34.875 22.339844 L 31.714844 32.019531 L 31.253906 32.019531 L 27.835938 30.046875 L 27.410156 29.800781 L 27.109375 29.628906 L 26.828125 29.460938 L 26.828125 35.640625 L 28.238281 36.453125 L 28.578125 36.648438 L 31.167969 38.144531 L 39.371094 38.144531 L 42.011719 36.621094 L 42.351562 36.425781 L 43.703125 35.640625 L 43.703125 29.460938 Z M 39.269531 37.800781 L 31.253906 37.800781 L 27.75 35.777344 L 27.164062 35.4375 L 27.164062 30.054688 L 27.75 30.390625 L 31.125 32.34375 L 31.160156 32.363281 L 31.960938 32.363281 L 31.988281 32.285156 L 32.019531 32.199219 L 32.046875 32.113281 L 35.257812 22.292969 L 38.289062 32.113281 L 38.320312 32.199219 L 38.347656 32.285156 L 38.367188 32.34375 L 38.375 32.363281 L 39.371094 32.363281 L 39.40625 32.34375 L 42.78125 30.390625 L 42.867188 30.339844 L 43.367188 30.054688 L 43.367188 35.4375 L 42.78125 35.777344 Z M 31.253906 32.097656 L 31.203125 32.183594 L 31.117188 32.328125 L 31.15625 32.347656 L 31.953125 32.347656 L 31.980469 32.269531 L 32.011719 32.183594 L 32.039062 32.097656 Z M 39.3125 32.191406 L 39.261719 32.105469 L 38.640625 32.105469 L 38.671875 32.191406 L 38.320312 32.191406 L 38.289062 32.105469 L 38.320312 32.191406 L 38.347656 32.277344 L 38.367188 32.335938 L 38.375 32.355469 L 39.371094 32.355469 L 39.40625 32.335938 Z M 31.253906 32.097656 L 31.203125 32.183594 L 31.117188 32.328125 L 31.15625 32.347656 L 31.953125 32.347656 L 31.980469 32.269531 L 32.011719 32.183594 L 32.039062 32.097656 Z M 43.113281 29.800781 L 40.558594 31.277344 L 39.269531 32.027344 L 38.621094 32.027344 L 35.625 22.320312 L 38.640625 32.097656 L 38.289062 32.097656 L 38.320312 32.183594 L 38.347656 32.269531 L 38.367188 32.328125 L 38.375 32.347656 L 39.371094 32.347656 L 39.40625 32.328125 L 42.78125 30.375 L 42.78125 30.183594 L 43.242188 29.914062 Z M 31.253906 32.097656 L 31.203125 32.183594 L 31.117188 32.328125 L 31.15625 32.347656 L 31.953125 32.347656 L 31.980469 32.269531 L 32.011719 32.183594 L 32.039062 32.097656 Z M 43.113281 29.800781 L 40.558594 31.277344 L 39.269531 32.027344 L 38.621094 32.027344 L 35.625 22.320312 L 38.640625 32.097656 L 38.289062 32.097656 L 38.320312 32.183594 L 38.347656 32.269531 L 38.367188 32.328125 L 38.375 32.347656 L 39.371094 32.347656 L 39.40625 32.328125 L 42.78125 30.375 L 42.78125 30.183594 L 43.242188 29.914062 Z M 31.253906 32.097656 L 31.203125 32.183594 L 31.117188 32.328125 L 31.15625 32.347656 L 31.953125 32.347656 L 31.980469 32.269531 L 32.011719 32.183594 L 32.039062 32.097656 Z M 43.113281 29.800781 L 40.558594 31.277344 L 39.269531 32.027344 L 38.621094 32.027344 L 35.625 22.320312 L 38.640625 32.097656 L 38.289062 32.097656 L 38.320312 32.183594 L 38.347656 32.269531 L 38.367188 32.328125 L 38.375 32.347656 L 39.371094 32.347656 L 39.40625 32.328125 L 42.78125 30.375 L 42.78125 30.183594 L 43.242188 29.914062 Z M 31.253906 32.097656 L 31.203125 32.183594 L 31.117188 32.328125 L 31.15625 32.347656 L 31.953125 32.347656 L 31.980469 32.269531 L 32.011719 32.183594 L 32.039062 32.097656 Z M 43.113281 29.800781 L 40.558594 31.277344 L 39.269531 32.027344 L 38.621094 32.027344 L 35.625 22.320312 L 38.640625 32.097656 L 38.289062 32.097656 L 38.320312 32.183594 L 38.347656 32.269531 L 38.367188 32.328125 L 38.375 32.347656 L 39.371094 32.347656 L 39.40625 32.328125 L 42.78125 30.375 L 42.78125 30.183594 L 43.242188 29.914062 Z M 43.113281 29.800781 "/>
<path style=" stroke:none;fill-rule:nonzero;fill:rgb(0%,0%,0%);fill-opacity:1;" d="M 41.53125 34.234375 L 41.53125 52.445312 C 41.53125 52.480469 41.53125 52.515625 41.53125 52.554688 C 41.421875 54.300781 38.714844 55.699219 35.386719 55.699219 C 32.0625 55.699219 29.355469 54.296875 29.246094 52.554688 C 29.246094 52.515625 29.246094 52.480469 29.246094 52.445312 L 29.246094 34.234375 L 41.53125 34.234375 M 41.875 33.898438 L 28.902344 33.898438 L 28.902344 52.445312 C 28.902344 52.496094 28.902344 52.53125 28.90625 52.574219 C 28.964844 53.546875 29.691406 54.4375 30.953125 55.085938 C 32.15625 55.707031 33.726562 56.042969 35.386719 56.042969 C 37.050781 56.042969 38.621094 55.707031 39.824219 55.085938 C 41.082031 54.4375 41.808594 53.546875 41.867188 52.574219 C 41.867188 52.53125 41.875 52.496094 41.875 52.445312 Z M 41.875 33.898438 "/>
<path style=" stroke:none;fill-rule:nonzero;fill:rgb(0%,0%,0%);fill-opacity:1;" d="M 29.238281 52.445312 C 29.238281 52.480469 29.238281 52.515625 29.238281 52.554688 L 29.238281 52.445312 M 29.578125 52.445312 L 28.894531 52.445312 L 28.894531 52.890625 L 29.597656 52.890625 L 29.578125 52.523438 C 29.578125 52.503906 29.578125 52.480469 29.578125 52.445312 Z M 29.578125 52.445312 "/>
<path style=" stroke:none;fill-rule:nonzero;fill:rgb(0%,0%,0%);fill-opacity:1;" d="M 41.53125 52.445312 L 41.53125 52.554688 C 41.53125 52.515625 41.53125 52.480469 41.53125 52.445312 M 41.875 52.445312 L 41.191406 52.445312 C 41.191406 52.472656 41.191406 52.503906 41.191406 52.523438 L 41.164062 52.890625 L 41.867188 52.890625 L 41.867188 52.445312 Z M 41.875 52.445312 "/>
<path style=" stroke:none;fill-rule:nonzero;fill:rgb(90.980392%,72.156863%,49.411765%);fill-opacity:1;" d="M 41.53125 52.445312 C 41.53125 50.648438 38.777344 49.191406 35.378906 49.191406 C 31.984375 49.191406 29.230469 50.648438 29.230469 52.445312 C 29.230469 54.242188 31.984375 55.699219 35.378906 55.699219 C 38.777344 55.699219 41.53125 54.242188 41.53125 52.445312 Z M 41.53125 52.445312 "/>
<path style=" stroke:none;fill-rule:nonzero;fill:rgb(90.980392%,72.156863%,49.411765%);fill-opacity:1;" d="M 29.238281 34.234375 L 41.53125 34.234375 L 41.53125 52.554688 L 29.238281 52.554688 Z M 29.238281 34.234375 "/>
<path style=" stroke:none;fill-rule:nonzero;fill:rgb(100%,85.490196%,71.372549%);fill-opacity:1;" d="M 41.53125 34.234375 C 41.53125 32.4375 38.777344 30.980469 35.378906 30.980469 C 31.984375 30.980469 29.230469 32.4375 29.230469 34.234375 C 29.230469 36.035156 31.984375 37.492188 35.378906 37.492188 C 38.777344 37.492188 41.53125 36.035156 41.53125 34.234375 Z M 41.53125 34.234375 "/>
<path style=" stroke:none;fill-rule:nonzero;fill:rgb(81.568627%,59.215686%,31.372549%);fill-opacity:1;" d="M 42.4375 34.820312 C 42.4375 32.816406 39.367188 31.191406 35.582031 31.191406 C 31.796875 31.191406 28.726562 32.816406 28.726562 34.820312 C 28.726562 36.824219 31.796875 38.449219 35.582031 38.449219 C 39.367188 38.449219 42.4375 36.824219 42.4375 34.820312 Z M 42.4375 34.820312 "/>
<path style=" stroke:none;fill-rule:nonzero;fill:rgb(81.568627%,59.215686%,31.372549%);fill-opacity:1;" d="M 32.164062 46.722656 C 32.140625 46.722656 32.125 46.714844 32.105469 46.707031 L 31.039062 46.101562 C 31.003906 46.078125 30.980469 46.042969 30.980469 46.007812 L 30.980469 45.46875 C 30.980469 45.425781 31.003906 45.390625 31.039062 45.375 C 31.074219 45.351562 31.117188 45.351562 31.15625 45.375 L 32.21875 45.988281 C 32.257812 46.007812 32.277344 46.042969 32.277344 46.078125 L 32.277344 46.605469 C 32.277344 46.648438 32.257812 46.683594 32.21875 46.699219 C 32.207031 46.722656 32.183594 46.722656 32.164062 46.722656 Z M 31.097656 45.46875 L 31.089844 46.007812 L 31.089844 46.015625 L 32.15625 46.621094 L 32.164062 46.085938 Z M 31.097656 45.46875 "/>
<path style=" stroke:none;fill-rule:nonzero;fill:rgb(81.568627%,59.215686%,31.372549%);fill-opacity:1;" d="M 31.449219 53.238281 C 31.429688 53.238281 31.414062 53.230469 31.390625 53.222656 L 30.328125 52.617188 C 30.289062 52.597656 30.269531 52.558594 30.269531 52.523438 L 30.269531 51.984375 C 30.269531 51.941406 30.289062 51.90625 30.328125 51.890625 C 30.363281 51.867188 30.40625 51.867188 30.441406 51.890625 L 31.507812 52.503906 C 31.542969 52.523438 31.566406 52.558594 31.566406 52.597656 L 31.566406 53.121094 C 31.566406 53.164062 31.542969 53.199219 31.507812 53.214844 C 31.492188 53.230469 31.472656 53.238281 31.449219 53.238281 Z M 30.382812 51.976562 L 30.375 52.515625 L 30.375 52.523438 L 31.441406 53.128906 L 31.449219 52.597656 Z M 30.382812 51.976562 "/>
<path style=" stroke:none;fill-rule:nonzero;fill:rgb(81.568627%,59.215686%,31.372549%);fill-opacity:1;" d="M 31.722656 45.804688 C 31.703125 45.804688 31.6875 45.800781 31.664062 45.792969 L 30.601562 45.1875 C 30.5625 45.164062 30.542969 45.128906 30.542969 45.09375 L 30.542969 44.554688 C 30.542969 44.511719 30.5625 44.472656 30.601562 44.460938 C 30.636719 44.4375 30.679688 44.4375 30.714844 44.460938 L 31.78125 45.070312 C 31.816406 45.09375 31.839844 45.128906 31.839844 45.164062 L 31.839844 45.691406 C 31.839844 45.734375 31.816406 45.769531 31.78125 45.785156 C 31.757812 45.804688 31.746094 45.804688 31.722656 45.804688 Z M 30.652344 45.101562 L 31.714844 45.707031 L 31.722656 45.171875 L 30.652344 44.554688 L 30.652344 45.101562 L 30.621094 45.144531 Z M 30.652344 45.101562 "/>
<path style=" stroke:none;fill-rule:nonzero;fill:rgb(81.568627%,59.215686%,31.372549%);fill-opacity:1;" d="M 31.253906 39.234375 C 31.234375 39.234375 31.21875 39.226562 31.199219 39.21875 L 30.132812 38.613281 C 30.097656 38.59375 30.074219 38.554688 30.074219 38.519531 L 30.074219 37.980469 C 30.074219 37.9375 30.097656 37.902344 30.132812 37.886719 C 30.167969 37.863281 30.210938 37.863281 30.246094 37.886719 L 31.3125 38.5 C 31.347656 38.519531 31.371094 38.554688 31.371094 38.59375 L 31.371094 39.117188 C 31.371094 39.160156 31.347656 39.195312 31.3125 39.210938 C 31.292969 39.234375 31.277344 39.234375 31.253906 39.234375 Z M 30.183594 38.527344 L 31.246094 39.132812 L 31.253906 38.597656 L 30.183594 37.980469 L 30.183594 38.527344 L 30.152344 38.570312 Z M 30.183594 38.527344 "/>
<path style=" stroke:none;fill-rule:nonzero;fill:rgb(81.568627%,59.215686%,31.372549%);fill-opacity:1;" d="M 39.441406 44.171875 C 39.464844 44.171875 39.476562 44.164062 39.5 44.15625 L 40.566406 43.554688 C 40.601562 43.53125 40.621094 43.496094 40.621094 43.460938 L 40.621094 42.917969 C 40.621094 42.875 40.601562 42.839844 40.566406 42.824219 C 40.527344 42.804688 40.484375 42.804688 40.449219 42.824219 L 39.382812 43.4375 C 39.347656 43.460938 39.328125 43.496094 39.328125 43.53125 L 39.328125 44.058594 C 39.328125 44.101562 39.347656 44.136719 39.382812 44.152344 C 39.40625 44.164062 39.425781 44.171875 39.441406 44.171875 Z M 40.507812 42.910156 L 40.515625 43.453125 L 40.515625 43.460938 L 39.449219 44.0625 L 39.441406 43.53125 Z M 40.507812 42.910156 "/>
<path style=" stroke:none;fill-rule:nonzero;fill:rgb(81.568627%,59.215686%,31.372549%);fill-opacity:1;" d="M 39.886719 43.257812 C 39.910156 43.257812 39.925781 43.25 39.945312 43.242188 L 41.011719 42.636719 C 41.046875 42.617188 41.070312 42.582031 41.070312 42.542969 L 41.070312 42.003906 C 41.070312 41.960938 41.046875 41.925781 41.011719 41.910156 C 40.976562 41.890625 40.933594 41.890625 40.894531 41.910156 L 39.832031 42.523438 C 39.792969 42.542969 39.773438 42.582031 39.773438 42.617188 L 39.773438 43.140625 C 39.773438 43.1875 39.792969 43.222656 39.832031 43.234375 C 39.84375 43.25 39.867188 43.257812 39.886719 43.257812 Z M 40.960938 42.542969 L 39.894531 43.148438 L 39.886719 42.617188 L 40.960938 41.996094 L 40.960938 42.542969 L 40.988281 42.589844 Z M 40.960938 42.542969 "/>
<path style=" stroke:none;fill-rule:nonzero;fill:rgb(81.568627%,59.215686%,31.372549%);fill-opacity:1;" d="M 39.167969 40.347656 C 39.191406 40.347656 39.203125 40.339844 39.226562 40.335938 L 40.292969 39.730469 C 40.328125 39.707031 40.347656 39.671875 40.347656 39.636719 L 40.347656 39.097656 C 40.347656 39.054688 40.328125 39.015625 40.292969 39.003906 C 40.253906 38.980469 40.210938 38.980469 40.175781 39.003906 L 39.109375 39.613281 C 39.074219 39.636719 39.054688 39.671875 39.054688 39.707031 L 39.054688 40.234375 C 39.054688 40.277344 39.074219 40.3125 39.109375 40.328125 C 39.132812 40.339844 39.152344 40.347656 39.167969 40.347656 Z M 40.242188 39.644531 L 39.175781 40.246094 L 39.167969 39.714844 L 40.242188 39.097656 L 40.242188 39.644531 L 40.269531 39.6875 Z M 40.242188 39.644531 "/>
<path style=" stroke:none;fill-rule:nonzero;fill:rgb(81.568627%,59.215686%,31.372549%);fill-opacity:1;" d="M 39.167969 51.761719 C 39.191406 51.761719 39.203125 51.753906 39.226562 51.746094 L 40.292969 51.140625 C 40.328125 51.121094 40.347656 51.085938 40.347656 51.046875 L 40.347656 50.507812 C 40.347656 50.464844 40.328125 50.429688 40.292969 50.414062 C 40.253906 50.394531 40.210938 50.394531 40.175781 50.414062 L 39.109375 51.027344 C 39.074219 51.046875 39.054688 51.085938 39.054688 51.121094 L 39.054688 51.644531 C 39.054688 51.6875 39.074219 51.726562 39.109375 51.738281 C 39.132812 51.753906 39.152344 51.761719 39.167969 51.761719 Z M 40.242188 51.054688 L 39.175781 51.660156 L 39.167969 51.128906 L 40.242188 50.507812 L 40.242188 51.054688 L 40.269531 51.097656 Z M 40.242188 51.054688 "/>
<path style=" stroke:none;fill-rule:nonzero;fill:rgb(81.568627%,59.215686%,31.372549%);fill-opacity:1;" d="M 36.332031 43.027344 L 34.828125 43.027344 C 34.738281 43.027344 34.667969 42.957031 34.667969 42.867188 L 34.667969 42.378906 C 34.667969 42.292969 34.738281 42.222656 34.828125 42.222656 L 36.332031 42.222656 C 36.417969 42.222656 36.488281 42.292969 36.488281 42.378906 L 36.488281 42.867188 C 36.488281 42.957031 36.417969 43.027344 36.332031 43.027344 Z M 34.828125 42.34375 C 34.8125 42.34375 34.796875 42.359375 34.796875 42.371094 L 34.796875 42.863281 C 34.796875 42.875 34.8125 42.890625 34.828125 42.890625 L 36.332031 42.890625 C 36.34375 42.890625 36.359375 42.875 36.359375 42.863281 L 36.359375 42.371094 C 36.359375 42.359375 36.34375 42.34375 36.332031 42.34375 Z M 34.828125 42.34375 "/>
<path style=" stroke:none;fill-rule:nonzero;fill:rgb(81.568627%,59.215686%,31.372549%);fill-opacity:1;" d="M 35.839844 48.015625 L 34.335938 48.015625 C 34.25 48.015625 34.179688 47.945312 34.179688 47.859375 L 34.179688 47.367188 C 34.179688 47.28125 34.25 47.210938 34.335938 47.210938 L 35.839844 47.210938 C 35.929688 47.210938 36 47.28125 36 47.367188 L 36 47.859375 C 36 47.945312 35.929688 48.015625 35.839844 48.015625 Z M 34.335938 47.332031 C 34.324219 47.332031 34.308594 47.347656 34.308594 47.363281 L 34.308594 47.851562 C 34.308594 47.867188 34.324219 47.878906 34.335938 47.878906 L 35.839844 47.878906 C 35.855469 47.878906 35.871094 47.867188 35.871094 47.851562 L 35.871094 47.363281 C 35.871094 47.347656 35.855469 47.332031 35.839844 47.332031 Z M 34.335938 47.332031 "/>
<path style=" stroke:none;fill-rule:nonzero;fill:rgb(81.568627%,59.215686%,31.372549%);fill-opacity:1;" d="M 36.828125 53.933594 L 35.324219 53.933594 C 35.238281 53.933594 35.164062 53.863281 35.164062 53.777344 L 35.164062 53.289062 C 35.164062 53.199219 35.238281 53.128906 35.324219 53.128906 L 36.828125 53.128906 C 36.914062 53.128906 36.988281 53.199219 36.988281 53.289062 L 36.988281 53.777344 C 36.988281 53.871094 36.921875 53.933594 36.828125 53.933594 Z M 35.324219 53.257812 C 35.308594 53.257812 35.292969 53.273438 35.292969 53.289062 L 35.292969 53.777344 C 35.292969 53.792969 35.308594 53.804688 35.324219 53.804688 L 36.828125 53.804688 C 36.84375 53.804688 36.855469 53.792969 36.855469 53.777344 L 36.855469 53.289062 C 36.855469 53.273438 36.84375 53.257812 36.828125 53.257812 Z M 35.324219 53.257812 "/>
<path style=" stroke:none;fill-rule:nonzero;fill:rgb(81.568627%,59.215686%,31.372549%);fill-opacity:1;" d="M 37.117188 42.34375 L 35.609375 42.34375 C 35.523438 42.34375 35.453125 42.269531 35.453125 42.183594 L 35.453125 41.695312 C 35.453125 41.609375 35.523438 41.535156 35.609375 41.535156 L 37.117188 41.535156 C 37.203125 41.535156 37.273438 41.609375 37.273438 41.695312 L 37.273438 42.183594 C 37.273438 42.269531 37.203125 42.34375 37.117188 42.34375 Z M 35.609375 41.667969 C 35.597656 41.667969 35.582031 41.679688 35.582031 41.695312 L 35.582031 42.183594 C 35.582031 42.199219 35.597656 42.214844 35.609375 42.214844 L 37.117188 42.214844 C 37.128906 42.214844 37.144531 42.199219 37.144531 42.183594 L 37.144531 41.695312 C 37.144531 41.679688 37.128906 41.667969 37.117188 41.667969 Z M 35.609375 41.667969 "/>
<path style=" stroke:none;fill-rule:nonzero;fill:rgb(81.568627%,59.215686%,31.372549%);fill-opacity:1;" d="M 36.707031 47.332031 L 35.199219 47.332031 C 35.113281 47.332031 35.042969 47.261719 35.042969 47.175781 L 35.042969 46.683594 C 35.042969 46.597656 35.113281 46.527344 35.199219 46.527344 L 36.707031 46.527344 C 36.792969 46.527344 36.863281 46.597656 36.863281 46.683594 L 36.863281 47.175781 C 36.863281 47.261719 36.792969 47.332031 36.707031 47.332031 Z M 35.195312 46.65625 C 35.179688 46.65625 35.164062 46.671875 35.164062 46.683594 L 35.164062 47.175781 C 35.164062 47.1875 35.179688 47.203125 35.195312 47.203125 L 36.699219 47.203125 C 36.710938 47.203125 36.726562 47.1875 36.726562 47.175781 L 36.726562 46.683594 C 36.726562 46.671875 36.710938 46.65625 36.699219 46.65625 Z M 35.195312 46.65625 "/>
<path style=" stroke:none;fill-rule:nonzero;fill:rgb(100%,100%,100%);fill-opacity:1;" d="M 43.644531 29.851562 L 43.589844 29.914062 L 43.53125 29.972656 L 43.410156 30.097656 L 43.113281 29.800781 L 43.113281 29.792969 L 42.652344 29.339844 L 35.625 22.320312 L 35.257812 21.953125 L 34.875 22.339844 L 27.402344 29.792969 L 27.28125 29.921875 L 27.160156 30.046875 L 27.109375 30.097656 L 26.871094 29.851562 L 27.160156 29.5625 L 27.625 29.101562 L 34.222656 22.515625 L 35.105469 21.621094 L 35.15625 21.578125 L 35.257812 21.519531 L 35.367188 21.578125 L 35.410156 21.621094 L 36.296875 22.515625 L 43.359375 29.5625 Z M 43.644531 29.851562 "/>
<path style=" stroke:none;fill-rule:nonzero;fill:rgb(100%,100%,100%);fill-opacity:1;" d="M 38.6875 32.234375 L 38.554688 32.277344 L 38.363281 32.335938 L 38.339844 32.277344 L 38.324219 32.234375 L 38.3125 32.191406 L 38.289062 32.097656 L 35.25 22.277344 L 32.039062 32.097656 L 32.011719 32.191406 L 31.988281 32.277344 L 31.960938 32.355469 L 31.839844 32.355469 L 31.839844 32.300781 L 31.773438 32.277344 L 31.644531 32.234375 L 31.660156 32.191406 L 31.6875 32.097656 L 31.707031 32.019531 L 34.875 22.339844 L 34.957031 22.082031 L 35.105469 21.621094 L 35.113281 21.601562 L 35.15625 21.578125 L 35.257812 21.519531 L 35.367188 21.578125 L 35.402344 21.601562 L 35.410156 21.621094 L 35.546875 22.082031 L 35.625 22.320312 L 38.640625 32.097656 L 38.671875 32.191406 Z M 38.6875 32.234375 "/>
<path style=" stroke:none;fill-rule:nonzero;fill:rgb(100%,100%,100%);fill-opacity:1;" d="M 31.203125 37.878906 L 39.3125 37.878906 L 39.3125 38.050781 L 31.203125 38.050781 Z M 31.203125 37.878906 "/>
<path style=" stroke:none;fill-rule:nonzero;fill:rgb(100%,100%,100%);fill-opacity:1;" d="M 43.695312 26.394531 L 43.695312 29.851562 L 43.589844 29.914062 L 43.53125 29.953125 L 43.359375 30.046875 L 42.863281 30.332031 L 42.773438 30.382812 L 39.398438 32.335938 L 39.3125 32.191406 L 39.261719 32.097656 L 39.226562 32.039062 L 39.269531 32.019531 L 40.558594 31.269531 L 43.113281 29.792969 L 43.359375 29.65625 L 43.359375 26.589844 L 36.296875 22.515625 L 35.546875 22.082031 L 35.257812 21.910156 L 34.957031 22.082031 L 34.222656 22.515625 L 27.160156 26.589844 L 27.160156 29.65625 L 27.402344 29.792969 L 27.828125 30.039062 L 31.253906 32.019531 L 31.292969 32.039062 L 31.253906 32.097656 L 31.203125 32.191406 L 31.117188 32.335938 L 27.742188 30.382812 L 27.160156 30.046875 L 26.984375 29.953125 L 26.929688 29.914062 L 26.820312 29.851562 L 26.820312 26.394531 L 26.898438 26.34375 L 35.113281 21.601562 L 35.15625 21.578125 L 35.257812 21.519531 L 35.367188 21.578125 L 35.402344 21.601562 Z M 43.695312 26.394531 "/>
<path style=" stroke:none;fill-rule:nonzero;fill:rgb(100%,100%,100%);fill-opacity:1;" d="M 31.203125 32.097656 L 39.3125 32.097656 L 39.3125 32.269531 L 31.203125 32.269531 Z M 31.203125 32.097656 "/>
<path style=" stroke:none;fill-rule:nonzero;fill:rgb(100%,100%,100%);fill-opacity:1;" d="M 31.570312 32.191406 L 32.328125 32.191406 L 32.328125 37.972656 L 31.570312 37.972656 Z M 31.570312 32.191406 "/>
<path style=" stroke:none;fill-rule:nonzero;fill:rgb(100%,100%,100%);fill-opacity:1;" d="M 37.957031 32.191406 L 38.714844 32.191406 L 38.714844 37.972656 L 37.957031 37.972656 Z M 37.957031 32.191406 "/>
<path style=" stroke:none;fill-rule:nonzero;fill:rgb(100%,100%,100%);fill-opacity:1;" d="M 27.742188 30.191406 L 27.742188 35.972656 L 26.984375 35.53125 L 26.984375 29.75 L 27.128906 29.835938 L 27.28125 29.921875 Z M 27.742188 30.191406 "/>
<path style=" stroke:none;fill-rule:nonzero;fill:rgb(100%,100%,100%);fill-opacity:1;" d="M 42.34375 36.171875 L 42.34375 38.535156 L 37.9375 40.441406 L 32.089844 40.441406 L 28.222656 38.367188 L 28.222656 36.34375 L 28.570312 36.34375 L 28.570312 38.167969 L 32.175781 40.105469 L 37.863281 40.105469 L 42.003906 38.3125 L 42.003906 36.359375 L 42.089844 36.359375 L 42.078125 36.195312 Z M 42.34375 36.171875 "/>
<path style=" stroke:none;fill-rule:nonzero;fill:rgb(100%,61.568627%,27.058824%);fill-opacity:1;" d="M 34.222656 22.515625 L 27.625 29.101562 L 27.160156 29.5625 L 27.160156 26.589844 Z M 34.222656 22.515625 "/>
<path style=" stroke:none;fill-rule:nonzero;fill:rgb(0%,0%,0%);fill-opacity:1;" d="M 35.402344 21.601562 L 35.367188 21.578125 L 35.257812 21.519531 L 35.152344 21.578125 L 35.113281 21.601562 L 26.898438 26.34375 L 26.8125 26.394531 L 26.8125 35.632812 L 28.222656 36.445312 L 28.222656 38.367188 L 32.089844 40.441406 L 37.9375 40.441406 L 42.34375 38.535156 L 42.34375 36.410156 L 43.695312 35.625 L 43.695312 26.394531 Z M 43.359375 26.589844 L 43.359375 29.5625 L 36.296875 22.515625 Z M 39.269531 37.800781 L 38.722656 37.800781 L 38.722656 32.355469 L 39.363281 32.355469 L 39.398438 32.335938 L 42.773438 30.382812 L 42.773438 35.769531 Z M 27.402344 29.792969 L 34.871094 22.335938 L 31.707031 32.011719 L 31.246094 32.011719 L 27.828125 30.039062 Z M 40.558594 31.269531 L 39.269531 32.019531 L 38.621094 32.019531 L 35.625 22.320312 L 42.660156 29.339844 L 43.113281 29.792969 Z M 32.039062 32.097656 L 35.25 22.277344 L 38.28125 32.097656 Z M 32.328125 32.277344 L 37.957031 32.277344 L 37.957031 37.800781 L 32.328125 37.800781 Z M 27.160156 26.589844 L 34.222656 22.515625 L 27.625 29.101562 L 27.160156 29.5625 Z M 27.742188 35.777344 L 27.742188 30.382812 L 31.117188 32.335938 L 31.15625 32.355469 L 31.570312 32.355469 L 31.570312 37.800781 L 31.246094 37.800781 Z M 42.003906 38.3125 L 37.863281 40.105469 L 32.175781 40.105469 L 28.570312 38.167969 L 28.570312 36.640625 L 31.160156 38.136719 L 39.363281 38.136719 L 42.003906 36.613281 Z M 42.003906 38.3125 "/>
<path style=" stroke:none;fill-rule:nonzero;fill:rgb(64.705882%,41.176471%,17.647059%);fill-opacity:1;" d="M 42.003906 36.613281 L 42.003906 38.3125 L 37.863281 40.105469 L 32.175781 40.105469 L 28.570312 38.167969 L 28.570312 36.640625 L 31.160156 38.136719 L 39.355469 38.136719 Z M 42.003906 36.613281 "/>
<path style=" stroke:none;fill-rule:nonzero;fill:rgb(73.72549%,49.803922%,23.529412%);fill-opacity:1;" d="M 31.570312 32.355469 L 31.570312 37.800781 L 31.253906 37.800781 L 27.742188 35.777344 L 27.742188 30.382812 L 31.117188 32.335938 L 31.160156 32.355469 Z M 31.570312 32.355469 "/>
<path style=" stroke:none;fill-rule:nonzero;fill:rgb(73.72549%,49.803922%,23.529412%);fill-opacity:1;" d="M 32.328125 32.277344 L 37.957031 32.277344 L 37.957031 37.800781 L 32.328125 37.800781 Z M 32.328125 32.277344 "/>
<path style=" stroke:none;fill-rule:nonzero;fill:rgb(73.72549%,49.803922%,23.529412%);fill-opacity:1;" d="M 42.773438 30.382812 L 42.773438 35.777344 L 39.269531 37.800781 L 38.714844 37.800781 L 38.714844 32.355469 L 39.355469 32.355469 L 39.398438 32.335938 Z M 42.773438 30.382812 "/>
<path style=" stroke:none;fill-rule:nonzero;fill:rgb(85.882353%,42.745098%,0%);fill-opacity:1;" d="M 43.359375 26.589844 L 43.359375 29.5625 L 36.296875 22.515625 Z M 43.359375 26.589844 "/>
<path style=" stroke:none;fill-rule:nonzero;fill:rgb(87.843137%,43.921569%,0%);fill-opacity:1;" d="M 43.113281 29.792969 L 40.558594 31.269531 L 39.269531 32.019531 L 38.621094 32.019531 L 35.625 22.320312 L 42.652344 29.339844 Z M 43.113281 29.792969 "/>
<path style=" stroke:none;fill-rule:nonzero;fill:rgb(94.901961%,49.411765%,0%);fill-opacity:1;" d="M 38.289062 32.097656 L 32.039062 32.097656 L 35.25 22.277344 Z M 38.289062 32.097656 "/>
<path style=" stroke:none;fill-rule:nonzero;fill:rgb(98.039216%,61.960784%,20.392157%);fill-opacity:1;" d="M 34.875 22.339844 L 31.707031 32.019531 L 31.253906 32.019531 L 27.828125 30.039062 L 27.402344 29.792969 Z M 34.875 22.339844 "/>
<path style=" stroke:none;fill-rule:nonzero;fill:rgb(81.568627%,59.215686%,31.372549%);fill-opacity:1;" d="M 42.164062 35.15625 L 39.535156 36.667969 C 39.535156 36.667969 39.449219 35.128906 39.808594 33.804688 Z M 42.164062 35.15625 "/>
<path style=" stroke:none;fill-rule:nonzero;fill:rgb(57.647059%,33.333333%,10.980392%);fill-opacity:1;" d="M 40.851562 32.132812 C 42.308594 31.3125 42.164062 35.15625 42.164062 35.15625 L 39.808594 33.804688 C 39.996094 33.085938 40.320312 32.4375 40.851562 32.132812 Z M 40.851562 32.132812 "/>
<path style=" stroke:none;fill-rule:nonzero;fill:rgb(81.568627%,59.215686%,31.372549%);fill-opacity:1;" d="M 28.347656 35.15625 L 30.972656 36.667969 C 30.972656 36.667969 31.0625 35.128906 30.699219 33.804688 Z M 28.347656 35.15625 "/>
<path style=" stroke:none;fill-rule:nonzero;fill:rgb(57.647059%,33.333333%,10.980392%);fill-opacity:1;" d="M 29.648438 32.132812 C 28.195312 31.3125 28.339844 35.15625 28.339844 35.15625 L 30.695312 33.804688 C 30.507812 33.085938 30.191406 32.4375 29.648438 32.132812 Z M 29.648438 32.132812 "/>
<path style=" stroke:none;fill-rule:nonzero;fill:rgb(81.568627%,59.215686%,31.372549%);fill-opacity:1;" d="M 37.605469 36.972656 C 37.605469 36.988281 37.605469 36.992188 37.605469 36.992188 L 33.199219 36.992188 C 33.199219 36.992188 33.011719 33.222656 35.402344 33.222656 C 35.625 33.222656 35.828125 33.257812 36.007812 33.3125 C 36.109375 33.351562 36.207031 33.394531 36.300781 33.445312 C 37.671875 34.207031 37.613281 36.726562 37.605469 36.972656 Z M 37.605469 36.972656 "/>
<path style=" stroke:none;fill-rule:nonzero;fill:rgb(57.647059%,33.333333%,10.980392%);fill-opacity:1;" d="M 37.605469 36.972656 C 37.605469 36.988281 37.605469 36.992188 37.605469 36.992188 C 37.605469 36.992188 36.144531 34.574219 35.316406 34.574219 C 34.488281 34.574219 33.199219 36.992188 33.199219 36.992188 C 33.199219 36.992188 33.011719 33.222656 35.402344 33.222656 C 35.625 33.222656 35.828125 33.257812 36.007812 33.3125 C 36.109375 33.351562 36.207031 33.394531 36.300781 33.445312 C 37.671875 34.207031 37.613281 36.726562 37.605469 36.972656 Z M 37.605469 36.972656 "/>
</g>
</svg>
